<?xml version="1.0" encoding="utf-8"?>
<!-- Generator: Adobe Illustrator 24.1.2, SVG Export Plug-In . SVG Version: 6.00 Build 0)  -->
<svg version="1.1" id="Layer_1" xmlns="http://www.w3.org/2000/svg" xmlns:xlink="http://www.w3.org/1999/xlink" x="0px" y="0px"
	 viewBox="0 0 931.5 524" style="enable-background:new 0 0 931.5 524;" xml:space="preserve">
<style type="text/css">
	.st0{opacity:0.25;}
	.st1{fill:#E58D3D;}
	.st2{fill:#5899E4;}
	.st3{clip-path:url(#SVGID_2_);}
	.st4{fill:none;stroke:#E58D3D;stroke-width:6.27;stroke-linecap:round;stroke-miterlimit:10;}
	.st5{fill:none;stroke:#E58D3D;stroke-width:6.27;stroke-linecap:round;stroke-miterlimit:10;stroke-dasharray:0,11.95;}
	.st6{fill:none;stroke:#DFBA3F;stroke-width:5.01;stroke-miterlimit:10;}
	.st7{fill:none;stroke:#FFFFFF;stroke-width:5.16;stroke-miterlimit:10;}
	.st8{fill:none;stroke:#5899E4;stroke-width:4.39;stroke-linecap:round;stroke-miterlimit:10;}
	.st9{fill:none;stroke:#5899E4;stroke-width:4.39;stroke-linecap:round;stroke-miterlimit:10;stroke-dasharray:0,11.93;}
	.st10{fill:none;stroke:#FFFFFF;stroke-width:4.23;stroke-miterlimit:10;}
	.st11{fill:none;stroke:#37343C;stroke-width:3.13;stroke-miterlimit:10;}
	.st12{fill:#ECB5B1;}
	.st13{fill:#FFFFFF;}
	.st14{fill:none;stroke:#37343C;stroke-width:2.61;stroke-miterlimit:10;}
	.st15{fill:none;stroke:#37343C;stroke-width:4.18;stroke-miterlimit:10;}
	.st16{fill:none;stroke:#FFFFFF;stroke-width:3.13;stroke-linejoin:round;}
	.st17{fill:none;stroke:#77C8CC;stroke-width:4.18;stroke-linecap:round;stroke-miterlimit:10;}
	.st18{fill:none;stroke:#77C8CC;stroke-width:2;stroke-miterlimit:10;}
</style>
<g class="st0">
	<path class="st1" d="M196.7,110.2c-56,2.8-102.4,55.1-158.3,50.7c-13.7-1.1-26.9-5.7-38.4-13.3V0h465.6
		c-14.1,14-19.2,34.6-27.6,52.7c-24.3,51.8-84.1,84.6-140.9,77.3C263.2,125.5,230.9,108.4,196.7,110.2z"/>
	<path class="st1" d="M931.5,524h-435c27.5-14.7,53.2-32.6,76.5-53.3c18.8-16.7,36.3-35.4,57.9-48.4c21.6-13,48.8-19.8,72.1-10.4
		c28.8,11.5,48,45.3,79,45.3c29.3,0,49.2-33.7,46-62.8c-3.2-29.1-22.1-53.8-40.3-76.8c-28.3-35.9-56.7-71.7-85-107.5
		c-23.3-29.5-47.8-61.9-48.8-99.5c-1.6-55.4,54.4-101.8,109.7-99.9c55.4,1.9,104.4,43,126.9,93.6c10.2,23.1,16,48.2,29.9,69.3
		c3.2,4.9,6.9,9.4,11.1,13.5L931.5,524z"/>
	<path class="st2" d="M236.5,483.6c0.3,14.5,5,28.6,13.4,40.4H0.1V148.3c16.7-14.6,38.7-21.6,60.8-19.5c35.3,3.3,64.2,29.6,71,64.4
		c5.2,31.1-8.3,65.6,6.7,93.4c23.2,42.9,97.1,38.4,115.6,83.6C268.9,406.2,236.1,444.6,236.5,483.6z"/>
	<g>
		<defs>
			<rect id="SVGID_1_" x="0.1" width="931.3" height="524"/>
		</defs>
		<clipPath id="SVGID_2_">
			<use xlink:href="#SVGID_1_"  style="overflow:visible;"/>
		</clipPath>
		<g class="st3">
			<line class="st4" x1="223.5" y1="207.7" x2="223.5" y2="207.7"/>
			<line class="st5" x1="261.9" y1="207.5" x2="319.6" y2="207.3"/>
			<line class="st4" x1="338.9" y1="207.3" x2="338.9" y2="207.3"/>
			<line class="st4" x1="223.5" y1="180.1" x2="223.5" y2="180.1"/>
			<line class="st5" x1="261.9" y1="180" x2="319.6" y2="179.8"/>
			<line class="st4" x1="338.9" y1="179.7" x2="338.9" y2="179.7"/>
			<line class="st6" x1="149.8" y1="443.3" x2="149.8" y2="542.1"/>
			<line class="st6" x1="123.5" y1="443.3" x2="123.5" y2="542.1"/>
			<line class="st6" x1="97.3" y1="443.3" x2="97.3" y2="542.1"/>
			<line class="st6" x1="71.1" y1="443.3" x2="71.1" y2="542.1"/>
			<line class="st6" x1="44.9" y1="443.3" x2="44.9" y2="542.1"/>
			<line class="st6" x1="18.7" y1="443.3" x2="18.7" y2="542.1"/>
			<line class="st7" x1="947.3" y1="211.3" x2="681.5" y2="-5"/>
			<line class="st7" x1="967.7" y1="194.7" x2="701.9" y2="-21.6"/>
			<line class="st7" x1="988.2" y1="178.1" x2="722.3" y2="-38.3"/>
			<line class="st7" x1="1008.6" y1="161.5" x2="742.8" y2="-54.9"/>
			<line class="st7" x1="1029.1" y1="144.9" x2="763.2" y2="-71.5"/>
			<line class="st7" x1="1049.5" y1="128.3" x2="783.6" y2="-88.1"/>
			<line class="st8" x1="710.8" y1="391.3" x2="710.8" y2="391.3"/>
			<line class="st9" x1="710.8" y1="360.1" x2="710.8" y2="250.9"/>
			<line class="st8" x1="710.8" y1="235.3" x2="710.8" y2="235.3"/>
			<line class="st8" x1="678.1" y1="391.3" x2="678.1" y2="391.3"/>
			<line class="st9" x1="678.1" y1="360.1" x2="678.1" y2="250.9"/>
			<line class="st8" x1="678.1" y1="235.3" x2="678.1" y2="235.3"/>
			<line class="st8" x1="645.4" y1="391.3" x2="645.4" y2="391.3"/>
			<line class="st9" x1="645.4" y1="360.1" x2="645.4" y2="250.9"/>
			<line class="st8" x1="645.4" y1="235.3" x2="645.4" y2="235.3"/>
			<ellipse class="st10" cx="285.4" cy="313.3" rx="33.8" ry="32.7"/>
			<ellipse class="st11" cx="834.2" cy="494.4" rx="140.8" ry="114.5"/>
			<path class="st2" d="M157.1,87.4l3,59c0.1,1.2,0.9,2.2,2,2.6c1.2,0.5,2.6,0.5,3.8-0.1l61.4-31.6c1.1-0.5,1.8-1.6,1.8-2.7
				c-0.1-1.2-0.9-2.2-2.1-2.6l-64.4-27.4c-1.2-0.5-2.6-0.5-3.8,0.1C157.8,85.2,157.1,86.2,157.1,87.4z"/>
			<path class="st12" d="M772.8,261.6l72.1-29.1c1.2-0.4,2-1.4,2.1-2.6c0-1.2-0.6-2.3-1.7-2.8l-67-36.2c-1.2-0.6-2.6-0.7-3.8-0.2
				c-1.1,0.4-2,1.4-2.1,2.6l-5.1,65.4c0,1.2,0.7,2.2,1.7,2.7C770.3,262,771.7,262.1,772.8,261.6L772.8,261.6z"/>
			<path class="st13" d="M585.6,477.9l-16.1-48.6c-0.4-1.2-1.5-2-2.7-2.3c-1.3-0.3-2.7,0-3.7,0.9l-43.8,35.6c-1,0.7-1.4,1.9-1.1,3
				c0.5,1.2,1.5,2,2.8,2.2l59.8,13.1c1.3,0.3,2.8,0.1,3.8-0.8C585.6,480.3,586,479,585.6,477.9L585.6,477.9z"/>
			<line class="st14" x1="362.5" y1="39" x2="365.5" y2="19.7"/>
			<line class="st14" x1="203.4" y1="72.5" x2="206.4" y2="53.2"/>
			<line class="st14" x1="296.6" y1="87.1" x2="274.1" y2="80.4"/>
			<line class="st14" x1="110.7" y1="88.7" x2="130.9" y2="99.2"/>
			<line class="st14" x1="98.9" y1="73.3" x2="114.3" y2="58.4"/>
			<line class="st14" x1="82.9" y1="108" x2="69.2" y2="91.9"/>
			<line class="st14" x1="102.2" y1="40.9" x2="120.8" y2="28.7"/>
			<line class="st14" x1="50.3" y1="10.5" x2="71.7" y2="19.1"/>
			<line class="st14" x1="144.2" y1="19.2" x2="164.6" y2="29.4"/>
			<line class="st14" x1="69.4" y1="53.9" x2="51.5" y2="66.8"/>
			<line class="st14" x1="144.1" y1="45.3" x2="155.5" y2="62.4"/>
			<line class="st14" x1="186.7" y1="34.8" x2="209.4" y2="28.7"/>
			<line class="st14" x1="245" y1="34.8" x2="267.7" y2="28.7"/>
			<line class="st14" x1="276.3" y1="11.3" x2="290.1" y2="27.2"/>
			<line class="st14" x1="375.8" y1="74.4" x2="355.2" y2="84.4"/>
			<line class="st14" x1="314.5" y1="27.3" x2="337.2" y2="21.2"/>
			<line class="st14" x1="13.9" y1="44.7" x2="33.3" y2="33.4"/>
			<line class="st14" x1="30.1" y1="118.6" x2="32" y2="99.2"/>
			<line class="st14" x1="245" y1="72.5" x2="234.2" y2="55.1"/>
			<line class="st14" x1="230.5" y1="25" x2="236.3" y2="6.2"/>
			<line class="st14" x1="281.2" y1="52.1" x2="305.1" y2="50.9"/>
			<line class="st14" x1="323.6" y1="45.7" x2="338.8" y2="60.7"/>
			<line class="st14" x1="393.5" y1="48.8" x2="395.5" y2="29.4"/>
			<line class="st14" x1="401.6" y1="68" x2="380.1" y2="59.5"/>
			<line class="st14" x1="427.6" y1="27.6" x2="415.4" y2="10.8"/>
			<line class="st14" x1="341" y1="96.3" x2="325.8" y2="81.2"/>
			<line class="st14" x1="24.3" y1="75" x2="45.7" y2="83.9"/>
			<path class="st15" d="M92.4,267.8c-17.2-12.9-18.2-34.7-2.3-48.6s42.6-14.8,59.8-1.9"/>
			<path class="st16" d="M112.9,377.5l14.3,22.2l29-8.3l14.3,22.2l29-8.3l14.3,22.2l29-8.3l14.3,22.2l29-8.3l14.3,22.2l29-8.3"/>
			<path class="st15" d="M741.2,132.6c-8.3,10.7-23.1,16.8-38.6,15.9c-15.5-0.9-29.1-8.5-35.6-20c-6.5-11.5-4.7-24.9,4.6-35"/>
			<path class="st17" d="M587.2,48.8c0,17-20.2,17-20.2,34s20.2,17,20.2,34s-20.2,17-20.2,34s20.2,17,20.2,34s-20.2,17-20.2,34
				s20.2,17,20.2,34"/>
			<ellipse class="st13" cx="51.5" cy="336.7" rx="23.6" ry="23.4"/>
			<path class="st2" d="M874,315.9c-8.9,0-16.1-5.9-16.1-13.1s7.2-13.1,16.1-13.1s16.1,5.9,16.1,13.1S882.9,316,874,315.9L874,315.9
				z"/>
			<path class="st18" d="M861.9,503.3c-12.4,0-22.5-8.2-22.5-18.3c0-10.1,10.1-18.3,22.5-18.3c12.4,0,22.5,8.2,22.5,18.3
				C884.4,495.1,874.3,503.3,861.9,503.3z"/>
		</g>
	</g>
</g>
</svg>
