<svg xmlns="http://www.w3.org/2000/svg" xmlns:xlink="http://www.w3.org/1999/xlink" viewBox="0 0 518.12 414.59"><defs><linearGradient id="a" x1="-82.31" y1="-219.01" x2="-82.31" y2="-219.66" gradientTransform="translate(18739.17 72519.58) scale(224.79 330.14)" gradientUnits="userSpaceOnUse"><stop offset="0" stop-color="gray" stop-opacity="0.25"/><stop offset="0.54" stop-color="gray" stop-opacity="0.12"/><stop offset="1" stop-color="gray" stop-opacity="0.1"/></linearGradient></defs><rect width="518.12" height="414.59" style="fill:#fff;opacity:0"/><path d="M258.82,59.29c-27.93-1-54.53-10-79.92-19.85s-50.55-20.79-77.81-26C83.56,10.08,63.51,9.6,49.39,19,35.8,28.06,31.39,43.66,29,58.14,27.27,69,26.22,80.51,31.09,90.72c3.38,7.08,9.38,13,13.53,19.84,14.44,23.62,4.24,52.73-11.41,75.78C25.87,197.16,17.35,207.48,11.69,219s-8.28,24.69-3.28,36.43S25,275.8,37.71,282C63.46,294.44,93.8,298,123.4,300c65.51,4.48,131.36,2.54,197,.6,24.31-.72,48.72-1.45,72.64-5.21,13.28-2.09,27-5.4,36.63-13.4,12.23-10.15,15.27-27.34,7.07-40.07C423,220.61,385,215.3,375.33,192.38c-5.29-12.61.15-26.66,7.84-38.36,16.5-25.09,44.15-47.11,45.61-75.79,1-19.71-12.3-39.43-32.85-48.76-21.54-9.81-51.43-8.56-67.31,7.61C312.23,53.75,283.47,60.15,258.82,59.29Z" transform="translate(37.29 29.18)" style="fill:#fff;opacity:0.10000000149011612;isolation:isolate"/><path d="M187.88,297.93,40.2,297.2,25.53,262.79,77.41,259l-9-37.74L171,208,72.72,173.82l8.68-2.06,158,25.77-8.7,58.9-12.44,32.36Z" transform="translate(37.29 29.18)" style="fill:#6466ae"/><path d="M42.47,282.79s9.06-1.45,14.49,4.95c0,0-4,3.14-12.56-1.21Z" transform="translate(37.29 29.18)" style="fill:#6466ae"/><path d="M41.52,282.62s-5.79,7.11-2.94,15c0,0,4.71-1.88,5.23-11.49Z" transform="translate(37.29 29.18)" style="fill:#6466ae"/><path d="M36.32,271s3.63-6.65,18.12,2.66c0,0-1.93,4.47-8.33,4.1S38,274.45,36.32,271Z" transform="translate(37.29 29.18)" style="fill:#6466ae"/><path d="M35.41,270.47s-7.52-.86-8.24,16.35c0,0,4.76,1,8.15-4.46S37.29,273.87,35.41,270.47Z" transform="translate(37.29 29.18)" style="fill:#6466ae"/><path d="M31,256.74s4.22-11.72,19.57-3.39c0,0-3.51,10.75-18,7.37Z" transform="translate(37.29 29.18)" style="fill:#6466ae"/><path d="M26.29,239.22s8-11.84,22.11-.86c0,0-5,11.11-20.9,5.07Z" transform="translate(37.29 29.18)" style="fill:#6466ae"/><path d="M24.6,222.55s9.31-10.88,23.3,0c0,0-8.82,9.54-23.3,2.78Z" transform="translate(37.29 29.18)" style="fill:#6466ae"/><path d="M23.15,206.36S32.58,195,46,205.75c0,0-10.64,10-22.84,3.26Z" transform="translate(37.29 29.18)" style="fill:#6466ae"/><path d="M24,192s9.92-14.62,22.47-4.71c0,0-10.63,12.56-22.47,7.49Z" transform="translate(37.29 29.18)" style="fill:#6466ae"/><path d="M26.29,175.19S36.8,160.69,49,171.8c0,0-12.45,12.57-22.72,6Z" transform="translate(37.29 29.18)" style="fill:#6466ae"/><path d="M29.8,160.18s12.44-13.63,23.3-8.2c0,0-13,14.47-23.85,11.81Z" transform="translate(37.29 29.18)" style="fill:#6466ae"/><path d="M34.15,146s14.36-16.69,22.71-11.12c0,0-10.58,13-23.73,14.24Z" transform="translate(37.29 29.18)" style="fill:#6466ae"/><path d="M40.41,129.44S53,115.82,62.17,119.2c0,0-10.76,14.13-23.44,14.49Z" transform="translate(37.29 29.18)" style="fill:#6466ae"/><path d="M46.11,114S60,101,66,103.25c0,0-10,14.5-20.54,13.65Z" transform="translate(37.29 29.18)" style="fill:#6466ae"/><path d="M51.66,99.75s12-15.59,18.49-14.38c0,0-7.25,13.9-18.49,16Z" transform="translate(37.29 29.18)" style="fill:#6466ae"/><path d="M57.7,80.53S68.27,68.53,74,68.61c0,0-8.35,16-16.72,15.81Z" transform="translate(37.29 29.18)" style="fill:#6466ae"/><path d="M61.27,67.73,71.48,42.84S72,65.34,60,72.35Z" transform="translate(37.29 29.18)" style="fill:#6466ae"/><path d="M65.41,40.28s1.7-20.78.61-22.47c0,0,7.3,17.28-.67,31.66Z" transform="translate(37.29 29.18)" style="fill:#6466ae"/><path d="M30.61,256.46S20,249.9,13.16,266c0,0,9.43,6.26,18.7-5.39Z" transform="translate(37.29 29.18)" style="fill:#6466ae"/><path d="M26,238.55s-13-5.93-19.28,10.84c0,0,10,6.9,20.47-6.61Z" transform="translate(37.29 29.18)" style="fill:#6466ae"/><path d="M24,223.55s-9.3-10.88-23.3,0c0,0,8.82,9.54,23.3,2.78Z" transform="translate(37.29 29.18)" style="fill:#6466ae"/><path d="M22.83,206.36S13.41,195,0,205.75c0,0,10.63,10,22.83,3.26Z" transform="translate(37.29 29.18)" style="fill:#6466ae"/><path d="M24,192.39S17.39,176,3,183.06c0,0,7.77,14.52,20.39,12.05Z" transform="translate(37.29 29.18)" style="fill:#6466ae"/><path d="M27.13,175.1S20.56,158.44,6,166.17c0,0,8.92,15.27,20.49,11.51Z" transform="translate(37.29 29.18)" style="fill:#6466ae"/><path d="M31.2,160.26S28.61,142,16.53,140.36c0,0,2.56,19.26,13,23.19Z" transform="translate(37.29 29.18)" style="fill:#6466ae"/><path d="M34.41,146s-1-22-11-22.77c0,0,.33,16.7,9.87,25.89Z" transform="translate(37.29 29.18)" style="fill:#6466ae"/><path d="M41.46,128.83s-3-18.3-12.51-20.54c0,0,1.18,17.72,11.57,25Z" transform="translate(37.29 29.18)" style="fill:#6466ae"/><path d="M47.23,114.16s-.09-19.07-5.92-21.87c0,0-3.61,17.26,4.24,24.3Z" transform="translate(37.29 29.18)" style="fill:#6466ae"/><path d="M52.11,99.53s-.82-19.62-6.85-22.39c0,0-2.06,15.53,6,23.68Z" transform="translate(37.29 29.18)" style="fill:#6466ae"/><path d="M58.54,82.09s0-16-4.34-19.71c0,0-4.28,17.49,2.09,22.92Z" transform="translate(37.29 29.18)" style="fill:#6466ae"/><path d="M60.76,66.94,56.57,40.38S50.88,62.15,61,71.74Z" transform="translate(37.29 29.18)" style="fill:#6466ae"/><path d="M61.58,40.54S50.83,22.68,51.05,20.69c0,0,1.14,18.72,14.67,28Z" transform="translate(37.29 29.18)" style="fill:#6466ae"/><path d="M62.84,35.26S52.69,9.89,48.1,7.83c0,0,14.5,7.37,15.58,26.7Z" transform="translate(37.29 29.18)" style="fill:#6466ae"/><path d="M57.21,84.62l-.7-.21c8.57-27.92,10.7-45.73,6-50.2l.5-.52C68,38.35,66,56,57.21,84.62Z" transform="translate(37.29 29.18)" style="fill:#454053"/><path d="M33.63,150l-1-.37c.91-2.56,1.89-5.16,2.92-7.71C44.49,119.6,52.1,98.89,57,83l.89-.44C53,98.48,45.51,120,36.55,142.31,35.5,144.82,34.53,147.4,33.63,150Z" transform="translate(37.29 29.18)" style="fill:#454053"/><path d="M55.23,303.69c-.14-.15-14-15.78-23.69-42.47a157,157,0,0,1-9.35-48.66c-.67-20.77,3.69-43.95,11.15-65l.82.95C17.4,195.79,24.05,236.3,32.89,260.69c9.57,26.45,23.3,41.91,23.43,42.06Z" transform="translate(37.29 29.18)" style="fill:#454053"/><path d="M272.14,270.5s-9.78,11.94-2,30L192,334.37l-7.5,1.57-3.45-15.1,2.32-19.07V291.35Z" transform="translate(37.29 29.18)" style="fill:#d5d6db"/><path d="M25.53,262.79l108.09-19.71L276.84,265.9l-89,32Z" transform="translate(37.29 29.18)" style="fill:#6466ae"/><path d="M25.53,262.79l108.09-19.71L276.84,265.9l-89,32Z" transform="translate(37.29 29.18)" style="fill:#6466ae"/><path d="M25.53,262.78s-10.12,19.15,1.54,36.84l160.34,34.74s-9.95-15.26.51-36.43Z" transform="translate(37.29 29.18)" style="fill:#6466ae"/><path d="M25.53,262.78s-10.12,19.15,1.54,36.84l160.34,34.74s-9.95-15.26.51-36.43Z" transform="translate(37.29 29.18)" style="opacity:0.10000000149011612;isolation:isolate"/><path d="M30.3,269.42s-5.77,14,0,23.09" transform="translate(37.29 29.18)" style="opacity:0.10000000149011612;isolation:isolate"/><path d="M187.41,334.36l89.48-38.19s5,1.08,1.77,4.75S189.13,338,189.13,338L27.07,299.62Z" transform="translate(37.29 29.18)" style="fill:#6466ae"/><path d="M187.41,334.36l89.48-38.19s5,1.08,1.77,4.75S189.13,338,189.13,338L27.07,299.62Z" transform="translate(37.29 29.18)" style="opacity:0.10000000149011612;isolation:isolate"/><path d="M180,301.78s-8.63,10.36,0,25.89" transform="translate(37.29 29.18)" style="opacity:0.10000000149011612;isolation:isolate"/><rect x="182.11" y="308.06" width="40.8" height="0.43" transform="translate(-49.86 109.11) rotate(-18.45)" style="opacity:0.10000000149011612;isolation:isolate"/><rect x="181.53" y="309.14" width="49.72" height="0.43" transform="translate(-59.18 122.74) rotate(-20.82)" style="opacity:0.10000000149011612;isolation:isolate"/><rect x="181.27" y="311.17" width="57.63" height="0.43" transform="matrix(0.93, -0.38, 0.38, 0.93, -65, 131.97)" style="opacity:0.10000000149011612;isolation:isolate"/><rect x="181.11" y="312.03" width="66.33" height="0.43" transform="translate(-72.25 145.07) rotate(-24.31)" style="opacity:0.10000000149011612;isolation:isolate"/><rect x="181.46" y="312.91" width="72.55" height="0.43" transform="translate(-70 142.76) rotate(-23.64)" style="opacity:0.10000000149011612;isolation:isolate"/><rect x="181.97" y="313.18" width="86.82" height="0.43" transform="translate(-68.5 144.23) rotate(-23.36)" style="opacity:0.10000000149011612;isolation:isolate"/><path d="M65.68,264.89l75.94-16,46.26,8.84L125.66,277.8Z" transform="translate(37.29 29.18)" style="fill:#fff;opacity:0.30000001192092896;isolation:isolate"/><path d="M276.84,265.9s3.93,1.58,1.62,4-90.59,28-90.59,28Z" transform="translate(37.29 29.18)" style="fill:#6466ae"/><path d="M315,229s-9.78,11.94-2,30l-78.1,33.87-7.47,1.57L224,279.34l2.34-19.06V249.86Z" transform="translate(37.29 29.18)" style="fill:#d5d6db"/><path d="M68.41,221.28l108.05-19.66,143.23,22.82-89,32Z" transform="translate(37.29 29.18)" style="fill:#3a3768"/><path d="M68.35,221.28s-10.11,19.16,1.54,36.85l160.29,34.73s-10-15.27.53-36.44Z" transform="translate(37.29 29.18)" style="fill:#3a3768"/><path d="M68.35,221.28s-10.11,19.16,1.54,36.85l160.29,34.73s-10-15.27.53-36.44l-50.69-11Z" transform="translate(37.29 29.18)" style="opacity:0.10000000149011612;isolation:isolate"/><path d="M73.14,227.92s-5.77,14,0,23.09" transform="translate(37.29 29.18)" style="opacity:0.10000000149011612;isolation:isolate"/><path d="M230.2,292.86l89.48-38.19s5,1.08,1.77,4.75-89.53,37.11-89.53,37.11l-162-38.4Z" transform="translate(37.29 29.18)" style="fill:#3a3768"/><path d="M230.2,292.86l89.48-38.19s5,1.08,1.77,4.75-89.53,37.11-89.53,37.11l-162-38.4Z" transform="translate(37.29 29.18)" style="opacity:0.10000000149011612;isolation:isolate"/><path d="M222.86,260.28s-8.63,10.36,0,25.89" transform="translate(37.29 29.18)" style="opacity:0.10000000149011612;isolation:isolate"/><rect x="224.96" y="266.56" width="40.8" height="0.43" transform="translate(-34.52 120.54) rotate(-18.45)" style="opacity:0.10000000149011612;isolation:isolate"/><rect x="224.38" y="267.65" width="49.72" height="0.43" transform="translate(-41.64 135.25) rotate(-20.82)" style="opacity:0.10000000149011612;isolation:isolate"/><rect x="224.11" y="269.66" width="57.63" height="0.43" transform="matrix(0.93, -0.38, 0.38, 0.93, -46.09, 145.1)" style="opacity:0.10000000149011612;isolation:isolate"/><rect x="223.96" y="270.53" width="66.33" height="0.43" transform="translate(-51.37 159.04) rotate(-24.31)" style="opacity:0.10000000149011612;isolation:isolate"/><rect x="224.3" y="271.42" width="72.55" height="0.43" transform="translate(-49.76 156.46) rotate(-23.64)" style="opacity:0.10000000149011612;isolation:isolate"/><rect x="224.81" y="271.68" width="86.82" height="0.43" transform="translate(-48.53 157.81) rotate(-23.36)" style="opacity:0.10000000149011612;isolation:isolate"/><path d="M108.53,223.39l75.93-16,46.27,8.84L168.5,236.3Z" transform="translate(37.29 29.18)" style="fill:#fff;opacity:0.44999998807907104;isolation:isolate"/><path d="M319.69,224.4s3.92,1.58,1.62,4-90.58,28-90.58,28Z" transform="translate(37.29 29.18)" style="fill:#3a3768"/><path d="M319,181.53S309.25,203,317,221l-78.1,24.38L231.41,247,228,231.87l2.31-19.06V202.38Z" transform="translate(37.29 29.18)" style="fill:#d5d6db"/><path d="M72.41,173.81l108.09-19.7,143.23,22.82-89,32Z" transform="translate(37.29 29.18)" style="fill:#6466ae"/><path d="M72.41,173.81S62.31,193,74,210.62l160.29,34.74s-9.95-15.27.53-36.44Z" transform="translate(37.29 29.18)" style="fill:#6466ae"/><path d="M72.41,173.81S62.31,193,74,210.62l160.29,34.74s-9.95-15.27.53-36.44Z" transform="translate(37.29 29.18)" style="opacity:0.10000000149011612;isolation:isolate"/><path d="M77.21,180.45s-5.77,14,0,23.08" transform="translate(37.29 29.18)" style="opacity:0.10000000149011612;isolation:isolate"/><path d="M234.27,245.38l89.48-28.69s5,1.08,1.77,4.75S236,249.05,236,249.05L74,210.65Z" transform="translate(37.29 29.18)" style="fill:#6466ae"/><path d="M234.27,245.38l89.48-28.69s5,1.08,1.77,4.75S236,249.05,236,249.05L74,210.65Z" transform="translate(37.29 29.18)" style="opacity:0.10000000149011612;isolation:isolate"/><path d="M226.93,212.81s-8.62,10.36,0,25.89" transform="translate(37.29 29.18)" style="opacity:0.10000000149011612;isolation:isolate"/><rect x="229.03" y="219.08" width="40.8" height="0.43" transform="translate(-19.29 119.39) rotate(-18.45)" style="opacity:0.10000000149011612;isolation:isolate"/><rect x="228.45" y="220.18" width="49.72" height="0.43" transform="translate(-24.5 133.6) rotate(-20.82)" style="opacity:0.10000000149011612;isolation:isolate"/><rect x="228.18" y="222.19" width="57.63" height="0.43" transform="matrix(0.93, -0.38, 0.38, 0.93, -27.8, 143.1)" style="opacity:0.10000000149011612;isolation:isolate"/><rect x="228.03" y="223.06" width="66.33" height="0.43" transform="translate(-31.46 156.5) rotate(-24.31)" style="opacity:0.10000000149011612;isolation:isolate"/><rect x="228.38" y="223.94" width="72.55" height="0.43" transform="translate(-30.38 154.11) rotate(-23.64)" style="opacity:0.10000000149011612;isolation:isolate"/><rect x="228.89" y="224.2" width="86.82" height="0.43" transform="translate(-29.37 155.54) rotate(-23.36)" style="opacity:0.10000000149011612;isolation:isolate"/><path d="M112.6,175.92l75.93-16,46.27,8.84-62.23,20.06Z" transform="translate(37.29 29.18)" style="fill:#fff;opacity:0.30000001192092896;isolation:isolate"/><path d="M323.75,176.93s3.93,1.58,1.63,4-90.58,28-90.58,28Z" transform="translate(37.29 29.18)" style="fill:#6466ae"/><path d="M133.94,46s-16.4-1-14.48,10.51a2.8,2.8,0,0,0,1.45,3s0-.86,1.69-.57a7.6,7.6,0,0,0,1.78.09,3.75,3.75,0,0,0,2.18-.9h0s4.61-1.91,6.41-9.45c0,0,1.33-1.64,1.29-2.06l-2.78,1.18a5,5,0,0,1,.21,3.66s-.09-3.59-.63-3.51c-.11,0-1.44.7-1.44.7s1.63,3.48.4,6c0,0,.47-4.29-.9-5.76l-2,1.14s1.9,3.59.61,6.53c0,0,.33-4.5-1-6.25L125,51.62s1.79,3.54.69,6c0,0-.14-5.24-1.07-5.64a11.3,11.3,0,0,0-1.79,1.93s1.23,2.59.46,3.93c0,0-.46-3.49-.86-3.51a11.51,11.51,0,0,0-1.7,3.88A8.36,8.36,0,0,1,122,54.1a4.6,4.6,0,0,0-2.35,1.22s.24-1.64,2.74-1.78A10.55,10.55,0,0,1,124,51.68a10,10,0,0,0-4,.46s1.32-1.54,4.44-.86l1.73-1.43s-3.27-.43-4.66,0c0,0,1.6-1.36,5.13-.37l1.91-1.13a17.56,17.56,0,0,0-4.46-.39s1.75-.94,5,.08l1.36-.61s-2-.4-2.64-.47-.63-.22-.63-.22a7,7,0,0,1,3.84.43A17.62,17.62,0,0,0,133.94,46Z" transform="translate(37.29 29.18)" style="fill:#6466ae"/><path d="M364.6,93.23s-16.4-1-14.48,10.51a2.8,2.8,0,0,0,1.45,3s0-.86,1.69-.57a7.6,7.6,0,0,0,1.78.09,3.67,3.67,0,0,0,2.16-.9h0s4.62-1.9,6.41-9.45c0,0,1.33-1.64,1.29-2.06L362.13,95a5,5,0,0,1,.2,3.66s-.09-3.59-.62-3.51c-.1,0-1.44.7-1.44.7s1.63,3.48.4,6c0,0,.47-4.29-.91-5.76l-2,1.14s1.9,3.59.61,6.53c0,0,.34-4.5-1-6.26l-1.76,1.38s1.78,3.55.69,6c0,0-.14-5.24-1.08-5.63a10.79,10.79,0,0,0-1.78,1.92s1.23,2.59.47,3.93c0,0-.47-3.49-.87-3.51a11.56,11.56,0,0,0-1.7,3.89,8.51,8.51,0,0,1,1.33-4.12,4.63,4.63,0,0,0-2.36,1.22s.24-1.63,2.74-1.78A10.66,10.66,0,0,1,354.67,99a10,10,0,0,0-4,.46s1.33-1.54,4.45-.86l1.72-1.43a16,16,0,0,0-4.65,0s1.59-1.36,5.13-.37l1.89-1.14a17.07,17.07,0,0,0-4.45-.38s1.75-1,5,.08l1.36-.61s-2-.4-2.64-.47-.63-.23-.63-.23a7.2,7.2,0,0,1,3.84.43A18.09,18.09,0,0,0,364.6,93.23Z" transform="translate(37.29 29.18)" style="fill:#fff;opacity:0.10000000149011612;isolation:isolate"/><path d="M161.55,117s-7.15-14.81-16.24-7.51a2.79,2.79,0,0,0-1.87,2.71s.76-.39,1.3,1.2a7.44,7.44,0,0,0,.79,1.6,3.71,3.71,0,0,0,1.85,1.46h0s3.91,3.1,11.37,1c0,0,2.09.36,2.43.1l-2.38-1.84a5,5,0,0,1-3.1,2s3.09-1.82,2.76-2.25c-.07-.08-1.3-.92-1.3-.92s-2.25,3.12-5,3.28c0,0,4-1.68,4.58-3.6l-1.94-1.15s-2.21,3.42-5.4,3.72c0,0,4.09-1.9,5-3.94l-2.06-.86s-2.23,3.29-4.88,3.52c0,0,4.5-2.67,4.39-3.69a11.17,11.17,0,0,0-2.55-.62s-1.65,2.33-3.2,2.33c0,0,2.82-2.11,2.64-2.45a11.21,11.21,0,0,0-4.23.43,8.44,8.44,0,0,1,4.25-.86,4.73,4.73,0,0,0-2.22-1.46s1.54-.59,2.88,1.52a10.52,10.52,0,0,1,2.42.5,10.14,10.14,0,0,0-2.38-3.31s2,.4,2.9,3.45l2.09.83s-1.2-3.07-2.31-4c0,0,2,.73,2.83,4.31l1.91,1.11a17.58,17.58,0,0,0-1.83-4.08s1.68,1.07,2.37,4.41l1.19.89s-.64-2-.86-2.53-.11-.66-.11-.66a7.21,7.21,0,0,1,1.51,3.56A15.91,15.91,0,0,0,161.55,117Z" transform="translate(37.29 29.18)" style="fill:#fff;opacity:0.10000000149011612;isolation:isolate"/><path d="M327.14,72.3S320,57.49,310.9,64.79A2.81,2.81,0,0,0,309,67.51s.76-.39,1.29,1.19a7.48,7.48,0,0,0,.8,1.6A3.66,3.66,0,0,0,313,71.76h0s3.92,3.1,11.37,1a7.35,7.35,0,0,0,2.43.11L324.41,71a5,5,0,0,1-3.09,2s3.08-1.83,2.75-2.25c-.07-.09-1.29-.92-1.29-.92s-2.25,3.12-5,3.28c0,0,4-1.68,4.58-3.6l-2-1.14s-2.21,3.41-5.4,3.72c0,0,4.09-1.9,5-3.94l-2.07-.86s-2.22,3.29-4.87,3.52c0,0,4.5-2.68,4.39-3.69a10.66,10.66,0,0,0-2.55-.61s-1.65,2.32-3.2,2.32c0,0,2.82-2.11,2.64-2.45a11.21,11.21,0,0,0-4.23.43,8.52,8.52,0,0,1,4.24-.87,4.65,4.65,0,0,0-2.21-1.46s1.54-.59,2.89,1.52a11,11,0,0,1,2.41.51A10.25,10.25,0,0,0,315,63.26s2,.4,2.9,3.47l2.1.83s-1.2-3.07-2.31-4c0,0,2,.73,2.82,4.31l1.92,1.1a17.35,17.35,0,0,0-1.84-4.07S322.27,66,323,69.31l1.2.89s-.65-2-.87-2.53-.1-.66-.1-.66a7.1,7.1,0,0,1,1.49,3.56A16.25,16.25,0,0,0,327.14,72.3Z" transform="translate(37.29 29.18)" style="fill:#fff;opacity:0.10000000149011612;isolation:isolate"/><path d="M350,145.62s-7.14-14.81-16.25-7.51a2.79,2.79,0,0,0-1.87,2.71s.76-.39,1.29,1.19a7.26,7.26,0,0,0,.8,1.6,3.71,3.71,0,0,0,1.84,1.47h0s3.92,3.1,11.38,1a7.35,7.35,0,0,0,2.43.1l-2.38-1.84a5,5,0,0,1-3.1,2s3.08-1.83,2.75-2.25c-.07-.09-1.29-.92-1.29-.92s-2.25,3.12-5,3.28c0,0,4-1.68,4.58-3.6l-2-1.23s-2.21,3.42-5.4,3.72c0,0,4.09-1.91,5-3.94l-2.07-.87s-2.22,3.29-4.87,3.53c0,0,4.5-2.68,4.39-3.69a10.67,10.67,0,0,0-2.55-.62s-1.65,2.32-3.21,2.32c0,0,2.82-2.11,2.65-2.45a11.21,11.21,0,0,0-4.23.43,8.44,8.44,0,0,1,4.25-.86,4.5,4.5,0,0,0-2.22-1.46s1.54-.6,2.89,1.52a10.44,10.44,0,0,1,2.41.5,10.25,10.25,0,0,0-2.35-3.26s2,.4,2.9,3.47l2.1.83s-1.21-3.07-2.32-4c0,0,2,.72,2.82,4.31l1.92,1.1a17.32,17.32,0,0,0-1.83-4.07s1.68,1.07,2.37,4.41l1.2.87s-.65-2-.86-2.54-.11-.66-.11-.66a7.11,7.11,0,0,1,1.5,3.56A16.75,16.75,0,0,0,350,145.62Z" transform="translate(37.29 29.18)" style="fill:#fff;opacity:0.10000000149011612;isolation:isolate"/><ellipse cx="124.42" cy="366.41" rx="9.92" ry="1.11" style="fill:#6466ae;opacity:0.10000000149011612;isolation:isolate"/><ellipse cx="59.4" cy="347.56" rx="9.92" ry="1.11" style="fill:#6466ae;opacity:0.10000000149011612;isolation:isolate"/><ellipse cx="173.99" cy="378.93" rx="9.92" ry="1.11" style="fill:#6466ae;opacity:0.10000000149011612;isolation:isolate"/><ellipse cx="427.99" cy="351.66" rx="9.92" ry="1.11" style="fill:#6466ae;opacity:0.10000000149011612;isolation:isolate"/><ellipse cx="345.45" cy="346.28" rx="9.92" ry="1.11" style="fill:#6466ae;opacity:0.10000000149011612;isolation:isolate"/><ellipse cx="292.05" cy="371.62" rx="11.73" ry="2.01" style="fill:#6466ae;opacity:0.10000000149011612;isolation:isolate"/><path d="M260,322.18s-16.34,8.44-7.9,18.38a3.17,3.17,0,0,0,3.09,2s-.46-.84,1.29-1.51a7.91,7.91,0,0,0,1.77-.94,4.12,4.12,0,0,0,1.58-2.11h0s3.34-4.47.75-12.74c0,0,.34-2.34,0-2.71l-2,2.72a5.54,5.54,0,0,1,2.28,3.4s-2.15-3.4-2.59-3c-.09.08-1,1.49-1,1.49s3.56,2.41,3.82,5.54c0,0-2-4.38-4.16-5l-1.24,2.21s3.88,2.36,4.31,5.92c0,0-2.25-4.51-4.56-5.42l-.91,2.33s3.75,2.39,4.09,5.35c0,0-3.13-5-4.26-4.8a12.24,12.24,0,0,0-.61,2.87s2.64,1.77,2.69,3.51c0,0-2.44-3.08-2.82-2.88a12.75,12.75,0,0,0,.59,4.71,9.3,9.3,0,0,1-1.08-4.71,5.09,5.09,0,0,0-1.56,2.52s-.71-1.71,1.61-3.28a11.87,11.87,0,0,1,.49-2.71,11.37,11.37,0,0,0-3.58,2.73s.4-2.24,3.8-3.35l.86-2.36s-3.4,1.44-4.45,2.71c0,0,.76-2.23,4.72-3.29l1.17-2.16a19.83,19.83,0,0,0-4.5,2.16s1.15-1.91,4.86-2.79l1-1.36s-2.2.78-2.81,1.06-.73.14-.73.14a8,8,0,0,1,3.93-1.79S260.15,322.33,260,322.18Z" transform="translate(37.29 29.18)" style="fill:#6466ae"/><path d="M308.48,162.79c-2.82-7.67-18.35-8.39-25.09-6.44-4.79,1.4-14.89,3-20.28,3.76l-.35-.34c.7-.2.71-.71.63-1.47a21.45,21.45,0,0,1,0-3c3.31,1,6.25-1.4,6.25-1.4h0c3.88-1.73,2.84-9.12,3.58-11.14.56-1.51,1.16-10.4,1.42-14.84h.06v-1.49a6.74,6.74,0,0,1,.06-1s.38-10.84,1.12-13c.69-2,1.25-12.19,1.34-13.81v-.21l-.06-.94c0-.69.06-1.45,0-2.25,0-3.69-.38-8.34-.43-9.09v-.39c0-1.58-.17-9.47-6.88-12.45l-8.32-3.7c-.74-6.41-2.44-12.78-2.29-19.23,0-1,.09-1.94.18-2.91v2.74c.26-8.07,3.31-16.19,3-24.09,0,.78-.08,1.55-.15,2.33a25,25,0,0,0-.83-7.94A4.64,4.64,0,0,0,260.13,18a5.45,5.45,0,0,0-2.36-.93,48.5,48.5,0,0,0-6.21-1.16,9.53,9.53,0,0,0-1.39-2.71c-4.38-6-10.86-11.65-18.52-12.95-3.85-.64-8.27-.1-10.88,2.64a9.45,9.45,0,0,0-.77.78c-1.41,1.68-2,3.88-3.45,5.56l-.31.32c-2.82,2.53-7.22,3.05-10.36,5.31a12.47,12.47,0,0,0-1.55,1.36A26.68,26.68,0,0,0,201,20.36c-1.41,2-2.86,4.05-3.31,6.42-.9,4.74,2.33,9.25,2.93,14,1.34,10.69-10.49,20.17-8.25,30.72a14.08,14.08,0,0,0,3.81,6.83c-4.61,4.17-8.54,8.22-8.54,8.22v.25h-.73l.07.86h-.07l.4,4.68-.4,6.82v.64h0c.13,2.5.66,11.48,1.29,13.37.74,2.2,1.11,13,1.11,13s.82,15.33,1.58,17.36-.32,9.39,3.58,11.13h0a8.26,8.26,0,0,0,3.91,1.62c-.2,1.61-.07,2.78.57,3.15a1.88,1.88,0,0,0,.9.26,10.57,10.57,0,0,0-.7,1.23,17.94,17.94,0,0,1-4.52-1.07c-4.19-1.72-18.07-5.61-22.11-2.88s-13.74,5.21-9.26,16.2,6.57,11.27,6.57,11.27a16.18,16.18,0,0,1,3.59,3.61c1.35,2,13.89,6.65,17,6.65a29.69,29.69,0,0,1,4,.2s-3.41,3-3,4.72-1,15.62-1,15.62,3.45,3.47,4.93-1.08l0,.06c.27.38,1.77,2.08,4.57-.06a25.39,25.39,0,0,1,3.66-2.32L217.17,210a37.84,37.84,0,0,1,4.26,0c2.16.18,4.28-1.1,5.61-2.09,2.82,1.07,6,2.24,7.49,2.67,3.06.86,17.1,4.63,20.38,3.45a4.64,4.64,0,0,0,1.77-1.26l3.13.1-1.46.29,6.74.1-.17.09h4.87c7.13.07,15.14.09,16.19-.15,1.65-.37,10.22-.11,12.74,0h.7s9.41-1.88,5.53-11.43c-3-7.33-12.16-9.46-16.24-10,1.15-.23,2.14-.4,2.8-.51,2.84-.43,8.36-3,8.81-3.9s5.08-3.45,6.27-4.92S311.31,170.45,308.48,162.79Zm-77.94,21.45-.46.15-.31.11-.6.58-1.51-1c.93.06,1.89.12,2.88.16Z" transform="translate(37.29 29.18)" style="fill:url(#a)"/><path d="M258.05,138.75s6.6,17.26,10.35,15.53,2.74-9.06,3.45-11.07S273.41,126,273.41,126s.36-10.78,1.08-13c.67-2,1.2-12.12,1.29-13.71V99l-.71-12.52-4-1L261.73,89l-1.3,7.39-.5,2.89-.22,1.22Z" transform="translate(37.29 29.18)" style="fill:#be6f72"/><path d="M260.22,135.86s6.3,5.15,8.2,5.61,3.06,4.47,3.06,4.47" transform="translate(37.29 29.18)" style="opacity:0.10000000149011612;isolation:isolate"/><path d="M206.41,139.5s-6.6,17.26-10.35,15.54S193.32,146,192.6,144s-1.5-17.25-1.5-17.25-.37-10.79-1.08-13c-.67-2-1.21-12.13-1.3-13.72v-.21l.72-12.51,4-1,9.34,3.45,1.3,7.39.5,2.89.22,1.23Z" transform="translate(37.29 29.18)" style="fill:#be6f72"/><rect x="271.96" y="76.33" width="14.73" height="22.97" style="fill:#3e373a"/><rect x="271.96" y="76.33" width="14.73" height="22.97" style="opacity:0.10000000149011612;isolation:isolate"/><path d="M203.83,156.69s-5,5.54-3.16,6.54,14,19.85,14,19.85,39.69,4.89,47.18-2.44,7.34-20.44,7.34-20.44-6,1.29-6.67.59-4.26-4.1-4.26-4.1S207.28,153.62,203.83,156.69Z" transform="translate(37.29 29.18)" style="fill:#4b4b5b"/><path d="M203.83,156.69s-5,5.54-3.16,6.54,14,19.85,14,19.85,39.69,4.89,47.18-2.44,7.34-20.44,7.34-20.44-6,1.29-6.67.59-4.26-4.1-4.26-4.1S207.28,153.62,203.83,156.69Z" transform="translate(37.29 29.18)" style="opacity:0.019999999552965164;isolation:isolate"/><path d="M275.29,86.72,262.35,97.08l-3.92.28-1.44.11-24.12,1.76-25-1.82-3.72-.27-4.75-.35-10-9.49a170.43,170.43,0,0,1,13.17-12.61A27.4,27.4,0,0,1,209,70.43l.29-.1A7.16,7.16,0,0,0,212,68.42c4.86-5,9.35-17.37,9.35-17.37S242.77,40,240.18,54.5s9.64,10.93,9.64,10.93l4,1.84,1.59.73,4.06,1.86,9.16,4.2C275.89,77.37,275.29,86.72,275.29,86.72Z" transform="translate(37.29 29.18)" style="fill:#be6f72"/><circle cx="269.15" cy="72.79" r="19.27" style="opacity:0.10000000149011612;isolation:isolate"/><path d="M275.32,100.45H188.73v-.21l.72-12.51a170.3,170.3,0,0,1,13.17-12.6L257,73l2.53-2.67,9.16,4.2c7.19,3.31,6.61,12.66,6.61,12.66S276.28,98,275.32,100.45Z" transform="translate(37.29 29.18)" style="opacity:0.10000000149011612;isolation:isolate"/><path d="M275.32,100H188.73v-.21l.72-12.51a170.43,170.43,0,0,1,13.17-12.61L257,72.54l2.53-2.67,9.16,4.2c7.19,3.31,6.61,12.66,6.61,12.66S276.28,97.56,275.32,100Z" transform="translate(37.29 29.18)" style="fill:#e7c8ca"/><path d="M218,64.93s13.66,17.41,31.86-.35,2,39.62,2,39.62l-39.26,4.65Z" transform="translate(37.29 29.18)" style="opacity:0.10000000149011612;isolation:isolate"/><path d="M218,65.8s13.66,17.4,31.86-.36,2,39.62,2,39.62l-39.26,4.66Z" transform="translate(37.29 29.18)" style="fill:#e7c8ca"/><path d="M255.46,68.85l1.44,22,1.55,7.33,1.18,5.61s3,43.15,2.16,45.3.43,3.89.61,5-.18,4,0,5.33,0,1.87-3.3,1.41-7.92-1.27-7.92-1.27-11.65.86-15.67-.57-11.69-1.37-11.69-1.37-11.51.29-15.25-.14-5.75,4.61-8.19,3.16,2.87-15.38,4.59-19.41-2.3-14.24-2.3-14.24l5.18-28.72L209,91.76V71.29l.29-.1A7,7,0,0,0,212,69.28l1.3,20.6,40.56,1.44V68.14" transform="translate(37.29 29.18)" style="opacity:0.10000000149011612;isolation:isolate"/><path d="M255.46,68l1.44,22,1.55,7.34,1.18,5.61s3,43.14,2.16,45.3.43,3.88.61,5-.18,4,0,5.33,0,1.86-3.3,1.4-7.92-1.26-7.92-1.26-11.65.86-15.67-.58-11.65-1.44-11.65-1.44-11.51.29-15.25-.14-5.75,4.6-8.19,3.16,2.87-15.38,4.59-19.41-2.3-14.24-2.3-14.24l5.18-28.72L209,90.83V70.43l.29-.1a7.16,7.16,0,0,0,2.73-1.91l1.3,20.6,40.56,1.44V67.28" transform="translate(37.29 29.18)" style="fill:#e7c8ca"/><path d="M260.12,22a4.78,4.78,0,0,0-1.29-2.45,5.43,5.43,0,0,0-2.28-.93,47,47,0,0,0-6-1.15,9.61,9.61,0,0,0-1.29-2.68C245,8.78,238.77,3.17,231.41,1.9c-3.85-.67-8.32-.07-10.78,3-1.36,1.67-1.94,3.88-3.31,5.52-2.64,3.19-7.39,3.58-10.72,6a20,20,0,0,0-4.31,5c-1.36,2-2.76,4-3.19,6.39-.86,4.7,2.25,9.19,2.82,13.94,1.3,10.63-10.1,20.06-7.94,30.54,1.25,6.11,6.9,10.42,12.74,12.6,2.06.77,4.41,1.54,5.38,3.52.43.86.5,1.86.91,2.73,1.36,2.91,5.84,3,8.25.9s3.17-5.54,3.45-8.74c1.16-14-4.43-27.75-3.78-41.75.19-4.23,1.38-9,5.18-11,5.1-2.58,11.24,1.73,16.86.91a33.43,33.43,0,0,1,1.61,20.41c-.89,3.72-2.44,7.33-2.55,11.17-.17,5.85,3,11.19,5.71,16.36a8.68,8.68,0,0,1,1.17,3.22,7.65,7.65,0,0,1-.62,3.31c-1.54,4.14-4.2,8-4.5,12.4a2,2,0,0,0,.32,1.48,1.89,1.89,0,0,0,1.12.5c4.65.8,8.69-3.33,11-7.48a35,35,0,0,0,4.32-14.89c.47-8.79-2.68-17.43-2.48-26.22C258.25,41.7,262.77,31.62,260.12,22Z" transform="translate(37.29 29.18)" style="opacity:0.10000000149011612;isolation:isolate"/><path d="M260.55,21.56a4.78,4.78,0,0,0-1.29-2.45,5.43,5.43,0,0,0-2.28-.93A45.36,45.36,0,0,0,251,17a9.54,9.54,0,0,0-1.29-2.69c-4.23-6-10.49-11.6-17.85-12.87-3.85-.67-8.32-.07-10.78,3-1.36,1.67-1.94,3.88-3.31,5.52-2.63,3.19-7.39,3.58-10.72,6a20.21,20.21,0,0,0-4.31,5,17.19,17.19,0,0,0-3.19,6.38c-.86,4.71,2.25,9.2,2.82,14,1.3,10.62-10.09,20-7.94,30.54,1.25,6.11,6.9,10.42,12.74,12.6,2.06.77,4.41,1.54,5.38,3.52.43.86.5,1.86.91,2.73,1.36,2.91,5.84,3,8.25.9s3.17-5.54,3.45-8.74c1.16-14-4.43-27.76-3.78-41.75.2-4.24,1.38-9,5.18-11,5.1-2.59,11.24,1.73,16.86.9A33.45,33.45,0,0,1,245,51.44c-.89,3.72-2.44,7.33-2.55,11.17-.17,5.85,3,11.19,5.71,16.36a8.75,8.75,0,0,1,1.16,3.15,7.64,7.64,0,0,1-.62,3.3c-1.54,4.15-4.2,8-4.5,12.41a2,2,0,0,0,.32,1.48,1.89,1.89,0,0,0,1.12.5c4.65.8,8.69-3.33,11-7.48A35,35,0,0,0,261,77.44c.47-8.79-2.68-17.43-2.48-26.22C258.68,41.26,263.2,31.2,260.55,21.56Z" transform="translate(37.29 29.18)" style="fill:#3e373a"/><path d="M251,212.62l17.12.54-2.45-12.69-13.12,1.25Z" transform="translate(37.29 29.18)" style="fill:#c3c7d9"/><path d="M304.06,182.51c-1.15,1.44-5.61,4-6,4.89s-5.75,3.45-8.49,3.88-11.4,2.34-13,3.34c-1.14.72-10.25,3-16.23,4.29a45.26,45.26,0,0,1-4.92.89c-2.58.14-30.91-9.5-30.91-9.5l5.46-5.6.3-.11c1.55-.52,8.68-2.93,12.64-4.08,4.46-1.29,9.64-6.61,9.64-6.61s7.62-2.59,8.63-2.88S258.61,161,258.61,161s16.54-2.29,23-4.24,21.44-1.22,24.17,6.4S305.23,181.07,304.06,182.51Z" transform="translate(37.29 29.18)" style="fill:#4b4b5b"/><path d="M228.69,206.81s-3.3,3.46-6.61,3.17-14.88.86-14.88.86a23.35,23.35,0,0,0-5.79,3.38c-2.71,2.13-4.14.43-4.41.07l-.05-.07c-1.44,4.54-4.74,1.08-4.74,1.08s1.43-13.81,1-15.53,2.85-4.69,2.85-4.69l3.88-1,9.84-2.52,14.09,4.89Z" transform="translate(37.29 29.18)" style="fill:#e7c8ca"/><path d="M199.87,194.09,197,214.29l-.05-.07c-1.44,4.54-4.74,1.08-4.74,1.08s1.43-13.81,1-15.53,2.85-4.69,2.85-4.69Z" transform="translate(37.29 29.18)" style="opacity:0.10000000149011612;isolation:isolate"/><path d="M220.23,136.62s7.62,2.59,14.24,0" transform="translate(37.29 29.18)" style="opacity:0.10000000149011612;isolation:isolate"/><path d="M246.24,141.52s3.16,1.58,5.61,0" transform="translate(37.29 29.18)" style="opacity:0.10000000149011612;isolation:isolate"/><path d="M246.24,145.26s5.32.72,6.33-.72" transform="translate(37.29 29.18)" style="opacity:0.10000000149011612;isolation:isolate"/><path d="M244.52,153.31s10-1.29,12.47-3" transform="translate(37.29 29.18)" style="opacity:0.10000000149011612;isolation:isolate"/><path d="M214,150.29s5.61,3.16,9.79,3" transform="translate(37.29 29.18)" style="opacity:0.10000000149011612;isolation:isolate"/><path d="M260.35,198.88a45.52,45.52,0,0,1-4.91.89c-2.59.14-30.92-9.5-30.92-9.5l5.46-5.6.31-.11c.86.61,1.57,1.13,2.07,1.53,2.38,1.87,4.67-.57,5.54-.57s8.34,6.18,8.34,6.18,6.9,1.58,8,3,5.18,1.15,5.9,2.15A3.79,3.79,0,0,1,260.35,198.88Z" transform="translate(37.29 29.18)" style="opacity:0.10000000149011612;isolation:isolate"/><path d="M207.2,161.51s-7,.4-11-1.3-17.4-5.6-21.28-2.86-13.24,5.18-8.92,16.11,6.33,11.22,6.33,11.22a15.64,15.64,0,0,1,3.45,3.58c1.29,2,13.37,6.62,16.4,6.62s8.34,0,15.81,5.17a32.57,32.57,0,0,0,14.24,5.76s9.49,3.88,12.45,4.75,16.46,4.59,19.63,3.45,5.17-8.35,5.17-8.35,1.44-6.47.72-7.47-4.75-.73-5.89-2.16-8.06-3-8.06-3-7.46-6.19-8.32-6.19-3.16,2.45-5.54.58a125,125,0,0,0-14.89-9.49C212,175,207.2,161.51,207.2,161.51Z" transform="translate(37.29 29.18)" style="fill:#4b4b5b"/><path d="M193.16,165.68a8.26,8.26,0,0,1,7.07,1.87c3.46,2.88,15.07,8.66,15.07,8.66" transform="translate(37.29 29.18)" style="opacity:0.10000000149011612;isolation:isolate"/><path d="M279.46,165.5s-15.39,2.33-18.26,5.49" transform="translate(37.29 29.18)" style="opacity:0.10000000149011612;isolation:isolate"/><path d="M297.15,213.14h-.67c-2.44-.08-10.68-.34-12.27,0-1.87.43-26.61,0-26.61,0l4.84-1s-1.8-6.29-.66-6.82c0,0-6.47-4.26-1.59-7.14a15.1,15.1,0,0,1,10.14-1.66l12.25-4.15,2.35-.8s13.81.72,17.55,10.21S297.15,213.14,297.15,213.14Z" transform="translate(37.29 29.18)" style="fill:#e7c8ca"/><path d="M297.15,213.14h-.67c4-3.31,13.1-13.4-13.9-20.75l2.35-.8s13.81.72,17.55,10.21S297.15,213.14,297.15,213.14Z" transform="translate(37.29 29.18)" style="opacity:0.10000000149011612;isolation:isolate"/><circle cx="309.06" cy="230.39" r="0.75" style="fill:#4b4b5b"/><circle cx="304.67" cy="231.63" r="0.75" style="fill:#4b4b5b"/><g style="opacity:0.10000000149011612"><path d="M246,42.89A33.44,33.44,0,0,0,243.53,29c-5.61.84-11.76-3.49-16.86-.9-3.78,1.92-5,6.72-5.18,11-.05,1.11-.06,2.23,0,3.35v-1.2c.2-4.23,1.38-9,5.18-11,5.11-2.59,11.24,1.72,16.86.9A33.39,33.39,0,0,1,246,42.88Z" transform="translate(37.29 29.18)"/><path d="M202.54,42.1a14.77,14.77,0,0,0-.06-2.82c-.46-3.8-2.53-7.42-2.91-11.13-.48,4.47,2.36,8.76,2.91,13.29A2.46,2.46,0,0,1,202.54,42.1Z" transform="translate(37.29 29.18)"/><path d="M225.27,80.82c-.26,3.2-1,6.63-3.45,8.75s-6.9,2-8.25-.9c-.43-.87-.5-1.87-.92-2.74-1-2-3.31-2.74-5.37-3.51-5.85-2.19-11.48-6.47-12.74-12.61a13.57,13.57,0,0,1-.23-1.68,13.38,13.38,0,0,0,.23,3.84c1.26,6.12,6.9,10.42,12.74,12.61,2.06.77,4.41,1.54,5.37,3.51.43.86.51,1.86.92,2.73,1.36,2.91,5.84,3,8.25.9S225,86.18,225.27,83a47.68,47.68,0,0,0,.13-5.07C225.41,78.89,225.35,79.86,225.27,80.82Z" transform="translate(37.29 29.18)"/><path d="M258.6,49.22v1.86c.24-8,3.18-16.09,2.89-23.95C261.27,34.4,258.76,41.83,258.6,49.22Z" transform="translate(37.29 29.18)"/><path d="M249.34,81.68a5.83,5.83,0,0,0,.1-1.56A8.92,8.92,0,0,0,248.29,77c-2.5-4.75-5.34-9.61-5.68-14.87v.67c-.18,5.84,3,11.19,5.7,16.36A10.25,10.25,0,0,1,249.34,81.68Z" transform="translate(37.29 29.18)"/><path d="M261.08,75.44a35.11,35.11,0,0,1-4.35,14.89c-2.28,4.15-6.31,8.28-11,7.48a1.9,1.9,0,0,1-1.12-.51,1.38,1.38,0,0,1-.2-.33c0,.33-.09.67-.12,1a2,2,0,0,0,.32,1.47,1.9,1.9,0,0,0,1.12.51c4.66.79,8.69-3.34,11-7.48a35.15,35.15,0,0,0,4.35-14.9,27.29,27.29,0,0,0,0-3A6.31,6.31,0,0,1,261.08,75.44Z" transform="translate(37.29 29.18)"/></g><path d="M261.78,205.32s10.92,4.59,18.12-5.55" transform="translate(37.29 29.18)" style="fill:none;stroke:#000;stroke-miterlimit:10;opacity:0.10000000149011612;isolation:isolate"/><path d="M263.93,213.33s8.92-5.8,20.28-.19" transform="translate(37.29 29.18)" style="fill:none;stroke:#000;stroke-miterlimit:10;opacity:0.10000000149011612;isolation:isolate"/><path d="M204.23,212s3.75-8.45,13.75-2" transform="translate(37.29 29.18)" style="fill:none;stroke:#000;stroke-miterlimit:10;opacity:0.10000000149011612;isolation:isolate"/><path d="M192.09,87.08l7.64-6.9s29.61-1.94,30.84,8.12c0,0,10.49-11.94,32.57-9.27l9.34,7.43L246.66,97.79l-25.09,8.71-18.48-8.27Z" transform="translate(37.29 29.18)" style="opacity:0.10000000149011612;isolation:isolate"/><path d="M192.09,87.51l7.64-6.9s29.61-1.94,30.84,8.12c0,0,10.49-11.93,32.57-9.27l9.34,7.44L246.66,98.23l-25.09,8.7-18.48-8.31Z" transform="translate(37.29 29.18)" style="fill:#d5d6db"/><path d="M188.71,88.38l3.38,40.41,35.82,1.83-1.56-40.24V89.7Z" transform="translate(37.29 29.18)" style="opacity:0.10000000149011612;isolation:isolate"/><path d="M188.71,87.51l3.38,40.42,35.82,1.8-1.56-40.25v-.67Z" transform="translate(37.29 29.18)" style="fill:#6466ae"/><path d="M274.12,87.51l-36.94,5.54v40.57l36.1-5.22Z" transform="translate(37.29 29.18)" style="opacity:0.10000000149011612;isolation:isolate"/><path d="M274.12,86.62l-36.94,5.54v40.6l36.1-5.22Z" transform="translate(37.29 29.18)" style="fill:#6466ae"/><path d="M265.41,96.56l-20,2.21.43,6.8,19.52-2.13Z" transform="translate(37.29 29.18)" style="fill:#fff;opacity:0.30000001192092896;isolation:isolate"/><path d="M194,149.62l2,5.47s3,2.59,6.32,1.29,6.19-1.94,7.63-3.2,3.45-7.58,3.45-7.58,2-6.91,4-8.63,7.34-25.51,0-23.18-12.88,23.83-12.88,23.83a5.08,5.08,0,0,1-3.16,1.72c-1.87.15-5.61-.29-6.33,1.3S191.88,146.41,194,149.62Z" transform="translate(37.29 29.18)" style="fill:#be6f72"/><path d="M237.18,93.05a12.44,12.44,0,0,1-10.83-2.7l1.56,40.27a11,11,0,0,0,9.27,3.06Z" transform="translate(37.29 29.18)" style="opacity:0.10000000149011612;isolation:isolate"/><path d="M237.18,92.19a12.41,12.41,0,0,1-10.83-2.71l1.56,40.24a11,11,0,0,0,9.27,3.07Z" transform="translate(37.29 29.18)" style="fill:#6466ae"/><path d="M237.18,92.19a12.41,12.41,0,0,1-10.83-2.71l1.56,40.24a11,11,0,0,0,9.27,3.07Z" transform="translate(37.29 29.18)" style="opacity:0.10000000149011612;isolation:isolate"/><path d="M238,87.62s15-4.59,19-4" transform="translate(37.29 29.18)" style="opacity:0.10000000149011612;isolation:isolate"/><path d="M221.23,85.62s-14.56-3.46-17-2.48" transform="translate(37.29 29.18)" style="opacity:0.10000000149011612;isolation:isolate"/><path d="M247.52,88.22s10-3.68,13.68-1.93" transform="translate(37.29 29.18)" style="opacity:0.10000000149011612;isolation:isolate"/><path d="M242.46,180.62a32.78,32.78,0,0,1,4.95-3,82.2,82.2,0,0,0,7.34-4.48" transform="translate(37.29 29.18)" style="opacity:0.10000000149011612;isolation:isolate"/><path d="M204.23,136.62s-6.3,5.15-8.19,5.61S193,146.7,193,146.7" transform="translate(37.29 29.18)" style="opacity:0.10000000149011612;isolation:isolate"/><path d="M270.41,148.8l-2,5.48s-3,2.59-6.33,1.3-6.19-1.94-7.63-3.2-3.45-7.59-3.45-7.59-2-6.9-4-8.63-7.34-25.5,0-23.18,12.94,23.9,12.94,23.9a5.15,5.15,0,0,0,3.16,1.73c1.87.14,5.61-.29,6.33,1.29S272.57,145.62,270.41,148.8Z" transform="translate(37.29 29.18)" style="fill:#be6f72"/><path d="M266.89,138.72s4.12,2.65,4.1,5.82" transform="translate(37.29 29.18)" style="opacity:0.10000000149011612;isolation:isolate"/><circle cx="269.22" cy="71.84" r="19.27" style="fill:#be6f72"/><path d="M219.83,37.48c2.34-.36,4.38-1.72,6.62-2.5,5-1.76,10.53-.55,15.59,1a20.24,20.24,0,0,0,6,1.29,6,6,0,0,0,5.24-2.59,5.85,5.85,0,0,0,0-5.4,15.42,15.42,0,0,0-3.52-4.35c-4.49-4.23-10.06-8.2-16.21-7.76a22.44,22.44,0,0,0-7.13,2A76.9,76.9,0,0,0,218,23.38c-2.07,1.2-5.92,2.81-7.11,5C208.15,33.42,215.6,38.15,219.83,37.48Z" transform="translate(37.29 29.18)" style="fill:#3e373a"/><path d="M253.23,32.9A6,6,0,0,1,248,35.49a20.21,20.21,0,0,1-6-1.27c-5.06-1.58-10.59-2.79-15.59-1-2.23.78-4.29,2.16-6.63,2.5-3.41.54-8.9-2.43-9.49-6.2-.67,4.36,5.69,8.09,9.49,7.5,2.34-.37,4.4-1.73,6.63-2.5,5-1.76,10.53-.56,15.59,1a19.53,19.53,0,0,0,6,1.27,6.08,6.08,0,0,0,5.24-2.59,5.12,5.12,0,0,0,.61-3.16,4.69,4.69,0,0,1-.61,1.86Z" transform="translate(37.29 29.18)" style="opacity:0.10000000149011612;isolation:isolate"/><path d="M409.64,266.73s2.56,3.35-1.18,8.4-6.82,9.31-5.58,12.46c0,0,5.64-9.38,10.23-9.51S414.69,272.37,409.64,266.73Z" transform="translate(37.29 29.18)" style="fill:#6466ae"/><path d="M409.64,266.73a4.5,4.5,0,0,1,.53,1c4.47,5.27,6.87,10.18,2.55,10.3-4,.12-8.82,7.29-10,9.1a3.06,3.06,0,0,0,.13.43s5.64-9.38,10.23-9.51S414.69,272.37,409.64,266.73Z" transform="translate(37.29 29.18)" style="opacity:0.10000000149011612;isolation:isolate"/><path d="M414.41,271c0,1.18-.13,2.13-.3,2.13s-.29-.95-.29-2.13.16-.62.32-.62S414.41,269.82,414.41,271Z" transform="translate(37.29 29.18)" style="fill:#ffd139"/><path d="M416,272.4c-1,.56-1.93.91-2,.76s.7-.71,1.73-1.29.62-.16.7,0S417.06,271.84,416,272.4Z" transform="translate(37.29 29.18)" style="fill:#ffd139"/><path d="M396.12,266.73s-2.56,3.35,1.18,8.4,6.82,9.31,5.57,12.46c0,0-5.64-9.38-10.23-9.51S391.09,272.37,396.12,266.73Z" transform="translate(37.29 29.18)" style="fill:#6466ae"/><path d="M396.12,266.73a4.71,4.71,0,0,0-.53,1c-4.47,5.27-6.86,10.18-2.55,10.3,4,.12,8.82,7.29,10,9.1a2.16,2.16,0,0,1-.14.43s-5.64-9.38-10.23-9.51S391.09,272.37,396.12,266.73Z" transform="translate(37.29 29.18)" style="opacity:0.10000000149011612;isolation:isolate"/><path d="M391.41,271c0,1.18.14,2.13.3,2.13s.3-.95.3-2.13-.17-.62-.33-.62S391.41,269.82,391.41,271Z" transform="translate(37.29 29.18)" style="fill:#ffd139"/><path d="M389.73,272.4c1,.56,1.94.91,2,.76s-.69-.71-1.72-1.29-.63-.16-.71,0S388.7,271.84,389.73,272.4Z" transform="translate(37.29 29.18)" style="fill:#ffd139"/><ellipse cx="440.17" cy="338.27" rx="26.75" ry="4.1" style="fill:#6466ae;opacity:0.10000000149011612;isolation:isolate"/><path d="M416.65,283.09l-.13,1-.18,1.48-.08.61-.18,1.48-.08.62-.17,1.47-2.05,16.87c-.18,1.5-2.63,2.67-5.58,2.67H397.56c-3,0-5.4-1.17-5.58-2.67l-2.05-16.78-.18-1.47-.08-.62-.18-1.47-.08-.66-.17-1.48-.13-1c-.1-.86,1.22-1.56,2.89-1.56h21.76C415.41,281.52,416.75,282.24,416.65,283.09Z" transform="translate(37.29 29.18)" style="fill:#66617d"/><path d="M416.52,284.13l-.18,1.48H389.41l-.18-1.48Z" transform="translate(37.29 29.18)" style="fill:#9d9cb4"/><path d="M416.26,286.22l-.17,1.48H389.68l-.19-1.48Z" transform="translate(37.29 29.18)" style="fill:#9d9cb4"/><path d="M416,288.32l-.18,1.47h-25.9l-.18-1.47Z" transform="translate(37.29 29.18)" style="fill:#9d9cb4"/></svg>