<svg xmlns="http://www.w3.org/2000/svg" xmlns:xlink="http://www.w3.org/1999/xlink" viewBox="0 0 602 485"><defs><linearGradient id="a" x1="121.09" y1="205.62" x2="118.03" y2="262.63" gradientTransform="matrix(1, 0, 0, -1, 32.5, 449.5)" gradientUnits="userSpaceOnUse"><stop offset="0" stop-color="#ffbb0a"/><stop offset="1" stop-color="#fff551"/></linearGradient><linearGradient id="b" x1="177.68" y1="-8.98" x2="244.64" y2="171.25" gradientTransform="matrix(1, 0, 0, -1, -108.34, 370.11)" xlink:href="#a"/><linearGradient id="c" x1="234.98" y1="140" x2="306.92" y2="127.37" gradientTransform="matrix(1, 0, 0, -1, -108.34, 370.11)" xlink:href="#a"/><linearGradient id="d" x1="-1747.89" y1="2310.85" x2="-1834.86" y2="2431.22" gradientTransform="matrix(-0.05, -1, 1, -0.05, -2309.57, -1303.9)" xlink:href="#a"/><linearGradient id="e" x1="91.25" y1="266.09" x2="78.34" y2="446.81" xlink:href="#a"/><linearGradient id="f" x1="124.32" y1="169.45" x2="119.11" y2="242.37" xlink:href="#a"/><linearGradient id="g" x1="322.75" y1="86.32" x2="333.16" y2="-0.6" gradientTransform="matrix(1, 0, 0, -1, 32.5, 449.5)" gradientUnits="userSpaceOnUse"><stop offset="0.01" stop-color="#e4e4e4"/><stop offset="0.58" stop-color="#f6f7f6"/><stop offset="0.99" stop-color="#fefffd"/></linearGradient><linearGradient id="h" x1="337.27" y1="81.35" x2="342.8" y2="35.11" xlink:href="#g"/><linearGradient id="i" x1="208.83" y1="20.54" x2="258.84" y2="62.49" xlink:href="#g"/><linearGradient id="j" x1="445.21" y1="85.23" x2="216.38" y2="131.15" gradientTransform="matrix(1, 0, 0, -1, 32.5, 449.5)" gradientUnits="userSpaceOnUse"><stop offset="0" stop-color="#2b5295"/><stop offset="0.41" stop-color="#1960bb"/><stop offset="1" stop-color="#0075f2"/></linearGradient><linearGradient id="k" x1="102.26" y1="152.51" x2="440.73" y2="152.51" xlink:href="#j"/><linearGradient id="l" x1="220.03" y1="76.11" x2="322.3" y2="43.55" gradientTransform="matrix(1, 0, 0, -1, -108.34, 370.11)" xlink:href="#g"/><linearGradient id="m" x1="215.73" y1="101.38" x2="345.77" y2="101.38" xlink:href="#j"/><linearGradient id="n" x1="314.18" y1="134.93" x2="403.29" y2="180.45" gradientTransform="matrix(1, 0, 0, -1, -108.34, 370.11)" gradientUnits="userSpaceOnUse"><stop offset="0" stop-color="#ff1511"/><stop offset="1" stop-color="#ff6c7b"/></linearGradient><linearGradient id="o" x1="309.26" y1="86.15" x2="399.09" y2="132.04" xlink:href="#n"/><linearGradient id="p" x1="-2379.3" y1="156.91" x2="-2526.48" y2="165.74" gradientTransform="translate(-2046.56 405.61) rotate(180)" xlink:href="#n"/><linearGradient id="q" x1="-2451.38" y1="246.82" x2="-2337.27" y2="148.56" gradientTransform="translate(-2046.56 405.61) rotate(180)" xlink:href="#n"/><linearGradient id="r" x1="-2519.29" y1="140.29" x2="-2417.01" y2="107.73" gradientTransform="translate(-2078.87 370.25) rotate(180)" xlink:href="#g"/><linearGradient id="s" x1="435.29" y1="94.74" x2="232.18" y2="158.84" gradientTransform="matrix(1, 0, 0, -1, -108.34, 370.11)" xlink:href="#g"/><linearGradient id="t" x1="324.54" y1="136.43" x2="317.86" y2="138.53" xlink:href="#g"/><linearGradient id="u" x1="362.82" y1="154.97" x2="452.57" y2="200.83" gradientTransform="matrix(1, 0, 0, -1, 32.5, 449.5)" xlink:href="#n"/><linearGradient id="v" x1="-8.01" y1="1670.79" x2="2.54" y2="1670.79" gradientTransform="matrix(0.26, 0.97, 0.97, -0.26, -1245.59, 618.26)" gradientUnits="userSpaceOnUse"><stop offset="0" stop-color="#9bb3d5"/><stop offset="0.02" stop-color="#9db4d6"/><stop offset="0.46" stop-color="#cbd6e5"/><stop offset="0.8" stop-color="#e7eaee"/><stop offset="1" stop-color="#f2f2f2"/></linearGradient><linearGradient id="w" x1="-22.79" y1="1590.66" x2="-14.59" y2="1589.17" gradientTransform="matrix(0.26, 0.97, 0.97, -0.26, -1245.59, 618.26)" gradientUnits="userSpaceOnUse"><stop offset="0" stop-color="#f15a24"/><stop offset="0.99" stop-color="#ffb501"/></linearGradient><linearGradient id="x" x1="417.44" y1="193.7" x2="414.49" y2="235.02" gradientTransform="matrix(1, 0, 0, -1, -108.34, 370.11)" xlink:href="#w"/><linearGradient id="y" x1="303.92" y1="46.02" x2="396.33" y2="46.02" gradientTransform="matrix(1, -0.09, -0.09, -1, -33.46, 274.03)" xlink:href="#a"/><linearGradient id="z" x1="348.85" y1="106.4" x2="370.58" y2="106.4" gradientTransform="matrix(1, -0.05, -0.05, -1, -65.59, 321.48)" xlink:href="#a"/><linearGradient id="aa" x1="382.62" y1="109.59" x2="405.79" y2="109.59" gradientTransform="matrix(1, -0.05, -0.05, -1, -65.59, 321.48)" xlink:href="#a"/><linearGradient id="ab" x1="-420.55" y1="-1018" x2="-410" y2="-1018" gradientTransform="translate(-821.27 596.1) rotate(100.41)" xlink:href="#v"/><linearGradient id="ac" x1="-436.24" y1="-1099.25" x2="-428.04" y2="-1100.74" gradientTransform="translate(-821.27 596.1) rotate(100.41)" xlink:href="#w"/><linearGradient id="ad" x1="448.33" y1="64" x2="453.31" y2="64" gradientTransform="matrix(1, 0, 0, -1, 32.5, 449.5)" xlink:href="#v"/><linearGradient id="ae" x1="550.16" y1="67.82" x2="583.15" y2="67.82" gradientTransform="matrix(1, 0, 0, -1, -108.34, 370.11)" gradientUnits="userSpaceOnUse"><stop offset="0" stop-color="#9bb3d5"/><stop offset="0.14" stop-color="#b1c3dc"/><stop offset="0.36" stop-color="#cdd8e6"/><stop offset="0.57" stop-color="#e2e6ed"/><stop offset="0.79" stop-color="#eeeff1"/><stop offset="1" stop-color="#f2f2f2"/></linearGradient><linearGradient id="af" x1="494.13" y1="49.97" x2="512.78" y2="49.97" gradientTransform="matrix(0.25, 0.97, 0.97, -0.25, 221.68, -155.08)" xlink:href="#a"/><linearGradient id="ag" x1="385.78" y1="66.84" x2="391.65" y2="66.84" gradientTransform="matrix(1, 0, 0, -1, 32.5, 449.5)" xlink:href="#v"/><linearGradient id="ah" x1="507.51" y1="79.94" x2="514.6" y2="79.94" gradientTransform="matrix(1, 0, 0, -1, -108.34, 370.13)" xlink:href="#n"/><linearGradient id="ai" x1="550.16" y1="131.15" x2="562.22" y2="131.15" gradientTransform="matrix(1, 0, 0, -1, -108.34, 370.11)" gradientUnits="userSpaceOnUse"><stop offset="0" stop-color="#0274e1"/><stop offset="0.99" stop-color="#77e2ff"/></linearGradient><linearGradient id="aj" x1="495.5" y1="77.14" x2="562.26" y2="77.14" xlink:href="#ai"/><linearGradient id="ak" x1="546.71" y1="111.31" x2="555.15" y2="111.31" gradientTransform="matrix(1, 0, 0, -1, -108.34, 370.11)" xlink:href="#v"/><linearGradient id="al" x1="510.14" y1="49.37" x2="517.75" y2="49.37" gradientTransform="matrix(1, 0, 0, -1, -108.34, 370.11)" xlink:href="#v"/><linearGradient id="am" x1="271.23" y1="41.78" x2="216.13" y2="86.04" gradientTransform="matrix(1, 0, 0, -1, -108.34, 370.11)" xlink:href="#j"/><linearGradient id="an" x1="285.41" y1="65.02" x2="380.31" y2="167.19" gradientTransform="matrix(1, 0, 0, -1, -108.34, 370.11)" xlink:href="#j"/><linearGradient id="ao" x1="164.55" y1="9.49" x2="306.59" y2="9.49" gradientTransform="matrix(1, 0, 0, -1, -108.34, 370.11)" xlink:href="#j"/><linearGradient id="ap" x1="164.55" y1="9.5" x2="270.29" y2="9.5" gradientTransform="matrix(1, 0, 0, -1, -108.34, 370.11)" xlink:href="#j"/><linearGradient id="aq" x1="230.18" y1="16.31" x2="223.15" y2="65.24" xlink:href="#n"/><linearGradient id="ar" x1="219.59" y1="14.79" x2="212.56" y2="63.72" xlink:href="#n"/><linearGradient id="as" x1="208.62" y1="13.21" x2="201.59" y2="62.14" xlink:href="#n"/><linearGradient id="at" x1="192.26" y1="9.01" x2="193.97" y2="34.2" xlink:href="#n"/><linearGradient id="au" x1="155.06" y1="2.74" x2="217.77" y2="32.02" xlink:href="#n"/><linearGradient id="av" x1="156.5" y1="-0.36" x2="219.21" y2="28.92" xlink:href="#n"/><linearGradient id="aw" x1="157.99" y1="-3.55" x2="220.7" y2="25.73" xlink:href="#n"/><linearGradient id="ax" x1="164.84" y1="6.19" x2="195.21" y2="6.19" xlink:href="#n"/><linearGradient id="ay" x1="263.67" y1="35.32" x2="272.61" y2="71.52" gradientTransform="matrix(1, 0, 0, -1, -108.34, 370.11)" xlink:href="#j"/><linearGradient id="az" x1="227.52" y1="48.08" x2="305.98" y2="48.08" gradientTransform="matrix(1, 0, 0, -1, -108.34, 370.11)" xlink:href="#g"/><linearGradient id="ba" x1="249.7" y1="47.19" x2="291" y2="47.19" gradientTransform="matrix(1, 0, 0, -1, -108.34, 370.11)" xlink:href="#g"/><linearGradient id="bb" x1="277.24" y1="43.59" x2="303.25" y2="43.59" gradientTransform="matrix(1, 0, 0, -1, -108.34, 370.11)" xlink:href="#g"/><linearGradient id="bc" x1="229.55" y1="52.98" x2="254.55" y2="52.98" gradientTransform="matrix(1, 0, 0, -1, -108.34, 370.11)" xlink:href="#g"/></defs><rect x="0.5" y="0.5" width="601" height="484" style="fill:#fff;stroke:#000;stroke-miterlimit:10;opacity:0"/><ellipse cx="293.13" cy="386.21" rx="260.63" ry="61.51" style="fill:#f2f2f2;opacity:0.1"/><path d="M480.27,139.44H459.72a18.61,18.61,0,0,1-18.62-18.6h0a18.61,18.61,0,0,1,18.6-18.62h13a8,8,0,0,0,8-6.71A7.88,7.88,0,0,0,474,86.58a8.29,8.29,0,0,0-1.11-.08H442a.92.92,0,0,1-.92-.92v0a18.92,18.92,0,0,0-18.92-18.9H310.73a5.08,5.08,0,0,1-5-3.93,5,5,0,0,1,4.85-6h77.69a10,10,0,0,0,10-8.24,9.85,9.85,0,0,0-8.11-11.33,9.63,9.63,0,0,0-1.61-.13H165.17a10,10,0,0,0-10,8.23,9.87,9.87,0,0,0,8.12,11.34,9.51,9.51,0,0,0,1.6.13H203a11,11,0,0,1,10.94,9,10.79,10.79,0,0,1-8.88,12.4,11.5,11.5,0,0,1-1.76.14H89.94a42.09,42.09,0,0,0-42.07,42.07h0a42.06,42.06,0,0,0,34.24,41.32,6.2,6.2,0,0,1,5,6.12v3.44a6.25,6.25,0,0,1-6.25,6.25h0a30.94,30.94,0,0,0-30.94,30.94h0a30.94,30.94,0,0,0,30.88,31H81a9.3,9.3,0,0,1,9.3,9.3h0a9.65,9.65,0,0,1-8.79,9.57,10.34,10.34,0,0,0-2.27.43,24,24,0,0,0,8,46.59h355.9c12.6,0,23.45-9.5,24.46-22.06v-.33A11.55,11.55,0,0,1,479,272h4.42a19.9,19.9,0,0,0,19.93-19.89v0h0c0-8.29-6.69-15.15-14.69-18a12.21,12.21,0,0,1-8.24-11.43v-.57a13.24,13.24,0,0,1,9.69-12.68,35.66,35.66,0,0,0,25.78-34.32h0a35.67,35.67,0,0,0-35.65-35.67Z" transform="translate(32.5 35.5)" style="fill:#fff;opacity:0.1"/><path d="M167.4,26.26a1.76,1.76,0,0,1-1.24-3l7-7-7.63-7.62A1.75,1.75,0,1,1,168,6.17l8.83,8.94a1.76,1.76,0,0,1,0,2.48l-8.18,8.15A1.71,1.71,0,0,1,167.4,26.26Z" transform="translate(32.5 35.5)" style="fill:#fff;opacity:0.1"/><path d="M179.76,26.26a1.76,1.76,0,0,1-1.24-3l7-7L177.9,8.65a1.75,1.75,0,0,1,2.47-2.48h0l8.83,8.94a1.75,1.75,0,0,1,0,2.46l0,0-8.2,8.2A1.68,1.68,0,0,1,179.76,26.26Z" transform="translate(32.5 35.5)" style="fill:#fff;opacity:0.1"/><path d="M192.12,26.26a1.76,1.76,0,0,1-1.25-3l0,0,7-7-7.62-7.62a1.75,1.75,0,1,1,1.87-3,1.8,1.8,0,0,1,.52.51l8.91,8.91a1.76,1.76,0,0,1,0,2.48l-8.21,8.2A1.68,1.68,0,0,1,192.12,26.26Z" transform="translate(32.5 35.5)" style="fill:#fff;opacity:0.1"/><path d="M204.49,26.26a1.76,1.76,0,0,1-1.75-1.77,1.73,1.73,0,0,1,.51-1.23l7-7-7.63-7.62a1.75,1.75,0,0,1,2.48-2.48l8.83,9a1.76,1.76,0,0,1,0,2.48l-8.21,8.2A1.74,1.74,0,0,1,204.49,26.26Z" transform="translate(32.5 35.5)" style="fill:#fff;opacity:0.1"/><path d="M216.85,26.26a1.76,1.76,0,0,1-1.24-3l7-7L215,8.65a1.75,1.75,0,1,1,2.48-2.48l8.83,8.94a1.76,1.76,0,0,1,0,2.48l-8.2,8.2A1.72,1.72,0,0,1,216.85,26.26Z" transform="translate(32.5 35.5)" style="fill:#fff;opacity:0.1"/><path d="M330.56,30.74a1.08,1.08,0,0,1-.77-1.83h0l4.3-4.3-4.7-4.7a1.08,1.08,0,0,1,1.52-1.53l5.47,5.47a1.07,1.07,0,0,1,0,1.51h0l-5.06,5.06A1.1,1.1,0,0,1,330.56,30.74Z" transform="translate(32.5 35.5)" style="fill:#fff;opacity:0.1"/><path d="M338.19,30.74a1.1,1.1,0,0,1-.77-.32,1.07,1.07,0,0,1,0-1.51h0l4.3-4.3L337,19.9a1.08,1.08,0,1,1,1.53-1.53L344,23.84a1.07,1.07,0,0,1,0,1.51h0L339,30.42A1.07,1.07,0,0,1,338.19,30.74Z" transform="translate(32.5 35.5)" style="fill:#fff;opacity:0.1"/><path d="M345.81,30.74a1.07,1.07,0,0,1-.76-.32,1.06,1.06,0,0,1,0-1.5l0,0,4.29-4.3-4.7-4.7a1.08,1.08,0,1,1,1.53-1.53l5.49,5.47a1.07,1.07,0,0,1,0,1.51h0l-5.06,5.06A1.06,1.06,0,0,1,345.81,30.74Z" transform="translate(32.5 35.5)" style="fill:#fff;opacity:0.1"/><path d="M353.43,30.74a1.08,1.08,0,0,1-.77-1.83h0l4.3-4.3-4.71-4.7a1.08,1.08,0,1,1,1.53-1.53l5.46,5.47a1.06,1.06,0,0,1,0,1.5l0,0-5,5.06A1.09,1.09,0,0,1,353.43,30.74Z" transform="translate(32.5 35.5)" style="fill:#fff;opacity:0.1"/><path d="M361.06,30.74a1.1,1.1,0,0,1-.77-.32,1.07,1.07,0,0,1,0-1.51h0l4.3-4.3-4.7-4.7a1.09,1.09,0,0,1,0-1.53,1.07,1.07,0,0,1,1.51,0h0l5.47,5.47a1.07,1.07,0,0,1,0,1.51h0l-5.06,5.06A1.07,1.07,0,0,1,361.06,30.74Z" transform="translate(32.5 35.5)" style="fill:#fff;opacity:0.1"/><path d="M15.88,174.63a1.08,1.08,0,0,1-.76-1.84l4.29-4.29-4.7-4.71a1.07,1.07,0,0,1,0-1.51h0a1.09,1.09,0,0,1,1.53,0l5.46,5.46a1.07,1.07,0,0,1,0,1.51l0,0-5,5.06A1,1,0,0,1,15.88,174.63Z" transform="translate(32.5 35.5)" style="fill:#fff;opacity:0.1"/><path d="M23.5,174.63a1.08,1.08,0,0,1-.76-1.84L27,168.5l-4.7-4.71a1.06,1.06,0,0,1,0-1.5l0,0a1.07,1.07,0,0,1,1.51,0h0l5.47,5.46a1.09,1.09,0,0,1,0,1.53l-5.06,5.06A1.11,1.11,0,0,1,23.5,174.63Z" transform="translate(32.5 35.5)" style="fill:#fff;opacity:0.1"/><path d="M31.13,174.63a1.08,1.08,0,0,1-.77-1.84l4.3-4.29L30,163.79a1.07,1.07,0,0,1,0-1.51h0a1.09,1.09,0,0,1,1.53,0L37,167.73a1.09,1.09,0,0,1,0,1.53l-5.06,5.06A1.08,1.08,0,0,1,31.13,174.63Z" transform="translate(32.5 35.5)" style="fill:#fff;opacity:0.1"/><path d="M38.75,174.63a1.08,1.08,0,0,1-.76-1.84l4.29-4.29-4.7-4.71a1.07,1.07,0,0,1,0-1.51h0a1.09,1.09,0,0,1,1.53,0l5.46,5.46a1.09,1.09,0,0,1,0,1.53l-5.06,5.06A1.08,1.08,0,0,1,38.75,174.63Z" transform="translate(32.5 35.5)" style="fill:#fff;opacity:0.1"/><path d="M46.37,174.63a1.08,1.08,0,0,1-.76-1.84l4.3-4.29-4.71-4.71a1.07,1.07,0,0,1,0-1.51h0a1.09,1.09,0,0,1,1.53,0l5.46,5.46a1.07,1.07,0,0,1,0,1.51l0,0-5,5.06A1.11,1.11,0,0,1,46.37,174.63Z" transform="translate(32.5 35.5)" style="fill:#fff;opacity:0.1"/><path d="M461.34,125.45a1.14,1.14,0,0,1-.81-1.94h0l4.54-4.54-5-5a1.14,1.14,0,0,1,0-1.61,1.15,1.15,0,0,1,1.62,0l5.78,5.78a1.15,1.15,0,0,1,0,1.61l-5.32,5.38A1.13,1.13,0,0,1,461.34,125.45Z" transform="translate(32.5 35.5)" style="fill:#fff;opacity:0.1"/><path d="M469.4,125.45a1.14,1.14,0,0,1-.81-2l4.54-4.54-5-5a1.15,1.15,0,0,1,1.48-1.76.93.93,0,0,1,.14.14l5.77,5.78a1.13,1.13,0,0,1,0,1.6h0l-5.31,5.43A1.19,1.19,0,0,1,469.4,125.45Z" transform="translate(32.5 35.5)" style="fill:#fff;opacity:0.1"/><path d="M477.45,125.45a1.14,1.14,0,0,1-.81-1.94h0l4.54-4.54-5-5a1.14,1.14,0,0,1,0-1.61,1.15,1.15,0,0,1,1.62,0l5.78,5.78a1.15,1.15,0,0,1,0,1.61l-5.32,5.38A1.13,1.13,0,0,1,477.45,125.45Z" transform="translate(32.5 35.5)" style="fill:#fff;opacity:0.1"/><path d="M485.51,125.45a1.14,1.14,0,0,1-.81-2l4.54-4.54-5-5a1.14,1.14,0,0,1,0-1.61,1.15,1.15,0,0,1,1.62,0l5.77,5.78a1.13,1.13,0,0,1,0,1.6h0l-5.3,5.43A1.19,1.19,0,0,1,485.51,125.45Z" transform="translate(32.5 35.5)" style="fill:#fff;opacity:0.1"/><path d="M493.57,125.45a1.14,1.14,0,0,1-.81-2l4.54-4.54-5-5a1.16,1.16,0,0,1,0-1.62,1.15,1.15,0,0,1,1.61,0l5.78,5.78a1.15,1.15,0,0,1,0,1.61l-5.32,5.43A1.1,1.1,0,0,1,493.57,125.45Z" transform="translate(32.5 35.5)" style="fill:#fff;opacity:0.1"/><circle cx="165.76" cy="82.12" r="10.28" style="fill:#fff;opacity:0.1"/><circle cx="50.71" cy="278.4" r="10.28" style="fill:#fff;opacity:0.1"/><path d="M315.75,24.4a2.52,2.52,0,1,1-2.52-2.52h0a2.51,2.51,0,0,1,2.52,2.5Z" transform="translate(32.5 35.5)" style="fill:#fff;opacity:0.1"/><path d="M277,2.84A2.85,2.85,0,1,1,274.16,0h0A2.84,2.84,0,0,1,277,2.84Z" transform="translate(32.5 35.5)" style="fill:#fff;opacity:0.1"/><circle cx="69.77" cy="172.57" r="2.52" style="fill:#fff;opacity:0.1"/><path d="M30.8,215.64a2.85,2.85,0,1,1-2.86-2.84h0A2.85,2.85,0,0,1,30.8,215.64Z" transform="translate(32.5 35.5)" style="fill:#fff;opacity:0.1"/><circle cx="83.32" cy="326.31" r="2.84" style="fill:#263185"/><path d="M498.87,217.77a2.85,2.85,0,1,1-2.86-2.84h0A2.85,2.85,0,0,1,498.87,217.77Z" transform="translate(32.5 35.5)" style="fill:#fff;opacity:0.1"/><circle cx="501.72" cy="91.67" r="8.97" transform="translate(329.75 594.41) rotate(-76.72)" style="fill:#fff;opacity:0.1"/><circle cx="556.85" cy="290.58" r="8.97" style="fill:#fff;opacity:0.1"/><path d="M273.1,196.61V50.73a1,1,0,0,0-1.89,0V196.61a1,1,0,0,0,1.89,0Z" transform="translate(32.5 35.5)" style="fill:#75bcfc"/><path d="M244.39,114.27H394.47a1,1,0,0,0,0-1.89H244.39a1,1,0,0,0,0,1.89Z" transform="translate(32.5 35.5)" style="fill:#75bcfc"/><path d="M394.94,112.25l-6-4.4-.84-.62a.95.95,0,0,0-1,1.64l6,4.4.84.61a.94.94,0,1,0,.95-1.63Z" transform="translate(32.5 35.5)" style="fill:#75bcfc"/><path d="M394,112.25c-2.47,1.34-5,2.67-7.34,4.19a1,1,0,1,0,1,1.63c2.37-1.51,4.86-2.85,7.33-4.19,1.08-.58.12-2.21-1-1.63Z" transform="translate(32.5 35.5)" style="fill:#75bcfc"/><path d="M340.66,140.25v6.54a1,1,0,0,0,1.26.64,1,1,0,0,0,.64-.64v-6.54a1,1,0,1,0-1.9-.62A.94.94,0,0,0,340.66,140.25Z" transform="translate(32.5 35.5)" style="fill:#75bcfc"/><path d="M340.66,151.41V158a.95.95,0,0,0,1.9,0v-6.55a.95.95,0,0,0-1.9,0Z" transform="translate(32.5 35.5)" style="fill:#75bcfc"/><path d="M340.66,129.41V136a.95.95,0,0,0,1.9,0v-6.55a1,1,0,0,0-1.26-.64A1,1,0,0,0,340.66,129.41Z" transform="translate(32.5 35.5)" style="fill:#75bcfc"/><path d="M340.66,118.89v6.55a1,1,0,0,0,1.26.64,1,1,0,0,0,.64-.64v-6.55a1,1,0,1,0-1.9-.62A.94.94,0,0,0,340.66,118.89Z" transform="translate(32.5 35.5)" style="fill:#75bcfc"/><path d="M273.09,155.11c7.05-5.87,16.79-8.24,25.84-7.17s17.08,6.44,25.69,9.29a124.91,124.91,0,0,0,29.64,6,104.89,104.89,0,0,0,30-1.72,44.38,44.38,0,0,0,15-6.37c2.08-1.36,4.32-2.61,6.29-4.11.71-.54,1.38-1.14,2.07-1.71a11.67,11.67,0,0,1,1-.8c.11-.09.25-.16.35-.26s.51-.2.14-.16c1.2-.15,1.21-2,0-1.89s-2.25,1.3-3.15,2.06a41.59,41.59,0,0,1-4.64,3.26c-4.4,2.88-8.61,5.58-13.68,7.14a72.45,72.45,0,0,1-15,2.55,115.42,115.42,0,0,1-15.56.26,121.5,121.5,0,0,1-30.59-5.64c-8.84-2.82-17-8.19-26.23-9.61-10-1.52-20.71,1.08-28.48,7.55-.94.78.4,2.11,1.34,1.34Z" transform="translate(32.5 35.5)" style="fill:#75bcfc"/><path d="M273.35,137,291.42,119a1,1,0,0,0-1.34-1.34L272,135.71a.94.94,0,0,0,1.34,1.33Z" transform="translate(32.5 35.5)" style="fill:#75bcfc"/><path d="M273.71,151.19l26-25.9,6.58-6.58a1,1,0,0,0-1.34-1.34L279,143.27l-6.58,6.58a.94.94,0,0,0,1.33,1.34h0Z" transform="translate(32.5 35.5)" style="fill:#75bcfc"/><path d="M294.12,146.69l27.54-27.58a1,1,0,0,0-1.34-1.34l-27.54,27.54a1,1,0,0,0,1.34,1.34Z" transform="translate(32.5 35.5)" style="fill:#75bcfc"/><path d="M306.66,149.31l29.11-29.11a1,1,0,0,0-1.34-1.34l-.92.92a1,1,0,0,0,1.34,1.34c.3-.31.61-.62.92-.92l-1.34-1.34L305.36,148a1,1,0,0,0,.49,1.33A1,1,0,0,0,306.66,149.31Z" transform="translate(32.5 35.5)" style="fill:#75bcfc"/><path d="M320.66,154.46l16.76-16.76a1,1,0,0,0-1.34-1.34l-16.76,16.76a1,1,0,0,0,1.34,1.34Z" transform="translate(32.5 35.5)" style="fill:#75bcfc"/><path d="M272,55.85l44.89,44.9,12.76,12.72a1,1,0,0,0,1.34-1.34L286.1,67.24,273.35,54.51A1,1,0,0,0,272,55.85Z" transform="translate(32.5 35.5)" style="fill:#75bcfc"/><path d="M301,83.11c13.54,0,27.06.77,40.6.78a1,1,0,0,0,0-1.89c-13.54,0-27.06-.78-40.6-.79a1,1,0,0,0-.64,1.26A1,1,0,0,0,301,83.11Z" transform="translate(32.5 35.5)" style="fill:#75bcfc"/><path d="M336.66,79.57l5.49,3,.8.43a1,1,0,0,0,.95-1.64l-5.49-3-.79-.43a1,1,0,1,0-1,1.63Z" transform="translate(32.5 35.5)" style="fill:#75bcfc"/><path d="M342.72,81.49l-4.72,4-.66.56a.95.95,0,0,0,1.34,1.34l4.72-4,.66-.56a.95.95,0,0,0-1.34-1.34Z" transform="translate(32.5 35.5)" style="fill:#75bcfc"/><path d="M342.23,167.43a1.44,1.44,0,0,0,.4-1.89,2.43,2.43,0,0,0-1.81-.86,5.32,5.32,0,0,0-4.44,1c-1.53,1.41-1.33,3.62-.63,5.38.59,1.5,1.31,2.94,1.81,4.47.37,1.12,1.23,3.52-.14,4.29a1,1,0,0,0,.95,1.64c2.79-1.57,1.41-5.54.51-7.83-.48-1.21-1.1-2.39-1.5-3.61a3.61,3.61,0,0,1-.17-2.27,1.9,1.9,0,0,1,.64-.84,1.2,1.2,0,0,1,.69-.32,6.1,6.1,0,0,1,2-.06l.58.12c.08,0,.05.12.05,0s-.13-.26-.13-.27c-.09-.33.22-.59-.11-.3-.91.81.43,2.15,1.34,1.34Z" transform="translate(32.5 35.5)" style="fill:#75bcfc"/><path d="M331.35,174.51c2.72,0,5.41-.52,8.11-.78a1,1,0,0,0,0-1.95c-2.7.27-5.39.76-8.11.79a1,1,0,0,0,0,1.89Z" transform="translate(32.5 35.5)" style="fill:#75bcfc"/><path d="M343.79,168.86a23.89,23.89,0,0,0-1.66,6.87,8,8,0,0,0,2.69,6.36c.9.82,2.24-.51,1.34-1.34a6.31,6.31,0,0,1-2.12-5.36,23.51,23.51,0,0,1,1.58-6c.4-1.16-1.43-1.65-1.83-.51Z" transform="translate(32.5 35.5)" style="fill:#75bcfc"/><path d="M345.8,176.22a33.71,33.71,0,0,0,5.5,3.66.94.94,0,0,0,.95-1.63,34.42,34.42,0,0,1-5.5-3.67.95.95,0,0,0-.95,1.64Z" transform="translate(32.5 35.5)" style="fill:#75bcfc"/><path d="M347.71,180.11a7.91,7.91,0,0,1,.52-1.2c.22-.44.47-.87.72-1.29.51-.84,1-1.66,1.55-2.52a1,1,0,0,0-1.64-.95,32.56,32.56,0,0,0-3,5.46.94.94,0,1,0,1.82.5Z" transform="translate(32.5 35.5)" style="fill:#75bcfc"/><path d="M349.73,167.31a15.85,15.85,0,0,1,5.21,7.9c.93,2.89,1.36,6.33,0,9.14-.55,1.09,1.08,2,1.63,1,1.65-3.28,1.34-7.2.25-10.61a17.78,17.78,0,0,0-6.09-9c-1-.72-1.93.92-1,1.63Z" transform="translate(32.5 35.5)" style="fill:#75bcfc"/><path d="M244,198.45a.17.17,0,0,1,0-.1v.19l-.1.23h0l-.15.19h0l-.2.15h0l-.22.09h-.1a1,1,0,0,0,.67-.27.79.79,0,0,0,.2-.31.76.76,0,0,0,.08-.36V198a.91.91,0,0,0-.25-.41l-.19-.15a.89.89,0,0,0-.48-.13h-.35l-.25.1h0l-.19.15h0l-.16.2h0l-.1.23h0a1.31,1.31,0,0,0,0,.28v.09a.74.74,0,0,0,.09.36.78.78,0,0,0,.5.5.74.74,0,0,0,.36.09h.25a.89.89,0,0,0,.42-.24l.15-.19a1,1,0,0,0,.13-.48Z" transform="translate(32.5 35.5)" style="fill:#75bcfc"/><path d="M246.49,199.4h4.45a.95.95,0,0,0,0-1.9h-4.45a1,1,0,0,0-.62,1.9A.94.94,0,0,0,246.49,199.4Z" transform="translate(32.5 35.5)" style="fill:#75bcfc"/><path d="M254.66,198.87h4.71a1,1,0,0,0,1-.85.94.94,0,0,0-.85-1h-4.9a1,1,0,0,0-1,.85.94.94,0,0,0,.85,1Z" transform="translate(32.5 35.5)" style="fill:#75bcfc"/><path d="M263,199.11h4.19a.95.95,0,0,0,0-1.89H263a1,1,0,0,0-1,.85.94.94,0,0,0,.85,1Z" transform="translate(32.5 35.5)" style="fill:#75bcfc"/><path d="M245.34,192.69v-7.08a1,1,0,0,0-1.26-.64,1,1,0,0,0-.64.64v7.08a1,1,0,0,0,1.26.64A1,1,0,0,0,245.34,192.69Z" transform="translate(32.5 35.5)" style="fill:#75bcfc"/><path d="M245.08,178V169.9a1,1,0,0,0-1.26-.64,1,1,0,0,0-.64.64V178a1,1,0,0,0,1.26.64A1,1,0,0,0,245.08,178Z" transform="translate(32.5 35.5)" style="fill:#75bcfc"/><path d="M245.6,164.4v-5.76a1,1,0,0,0-.85-1,.94.94,0,0,0-1,.85.61.61,0,0,0,0,.19v5.76a.95.95,0,1,0,1.89,0Z" transform="translate(32.5 35.5)" style="fill:#75bcfc"/><path d="M246.39,153.4v-6.29a1,1,0,0,0-1.26-.64,1,1,0,0,0-.64.64v6.29a.95.95,0,1,0,1.9,0Z" transform="translate(32.5 35.5)" style="fill:#75bcfc"/><path d="M246.66,139.26v-5a1,1,0,0,0-1.95,0v5a1,1,0,0,0,1.26.64,1,1,0,0,0,.64-.64Z" transform="translate(32.5 35.5)" style="fill:#75bcfc"/><path d="M246.66,129.83v-4.46a1,1,0,0,0-1.26-.64,1,1,0,0,0-.64.64v4.46a1,1,0,0,0,1.26.64A1,1,0,0,0,246.66,129.83Z" transform="translate(32.5 35.5)" style="fill:#75bcfc"/><path d="M246.39,122.76v-5a1,1,0,0,0-1.95,0v5a1,1,0,0,0,1.26.64,1,1,0,0,0,.64-.64Z" transform="translate(32.5 35.5)" style="fill:#75bcfc"/><path d="M242.15,208c2.75,3.06,4.65,6.76,7.1,10l.82-1.43c-4.14.36-8.31.53-12.4,1.3l1.16,1.16c1.33-4,4.39-7.3,6.38-11,.58-1.07-1.06-2-1.64-1-2.07,3.86-5.18,7.24-6.56,11.46a1,1,0,0,0,.81,1.16,1,1,0,0,0,.35,0c3.93-.73,7.93-.88,11.9-1.23.63-.05,1.28-.79.81-1.42-2.54-3.42-4.53-7.24-7.39-10.43-.82-.91-2.15.44-1.34,1.34Z" transform="translate(32.5 35.5)" style="fill:#75bcfc"/><path d="M249.74,210.11c2.19,2.53,3.63,5.73,5.3,8.61a1,1,0,0,0,1.73-.23c.84-4,1.52-8.12,2.15-12.2a.95.95,0,1,0-1.82-.51c-.64,4.08-1.32,8.16-2.16,12.21l1.73-.23c-1.75-3-3.28-6.32-5.59-9-.79-.92-2.13.42-1.34,1.34Z" transform="translate(32.5 35.5)" style="fill:#75bcfc"/><path d="M260.47,215.73v4.64a1,1,0,0,0,.94.95,1,1,0,0,0,.95-.95v-.71a.95.95,0,0,0-1.89,0v.71a1,1,0,0,0,.94.95,1,1,0,0,0,.95-.95v-4.64a.95.95,0,0,0-1.89,0Z" transform="translate(32.5 35.5)" style="fill:#75bcfc"/><path d="M260.66,210.4a1,1,0,0,0,.64-1.26,1,1,0,0,0-.64-.64,1,1,0,0,0-.64,1.26A1,1,0,0,0,260.66,210.4Z" transform="translate(32.5 35.5)" style="fill:#75bcfc"/><polygon points="169.69 182.38 169.69 182.38 170.48 180.82 170.48 180.82 170.48 180.82 169.69 182.38" style="fill:#ff6c7b"/><polygon points="166.6 183.71 166.6 183.71 167.4 182.15 167.4 182.15 166.6 183.71" style="fill:#ff6c7b"/><polygon points="169.69 182.38 170.48 180.82 170.48 180.82 166.01 173.96 165.21 175.51 165.21 175.51 165.21 175.51 169.69 182.38" style="fill:#ff6c7b"/><polygon points="167.4 182.15 167.4 182.15 167.4 182.15 164.27 177.35 164.27 177.35 167.4 182.15" style="fill:#ff6c7b"/><polygon points="165.54 185.78 164.74 187.34 164.74 187.34 165.54 185.78 165.54 185.78 165.54 185.78" style="fill:#ff6c7b"/><polygon points="166.6 183.71 167.4 182.15 167.4 182.15 164.27 177.35 164.27 177.35 163.47 178.91 163.48 178.91 166.6 183.71" style="fill:#ff6c7b"/><polygon points="165.54 185.78 165.54 185.78 162.41 180.99 165.54 185.78" style="fill:#ff6c7b"/><polygon points="163.69 189.41 162.89 190.97 162.89 190.97 163.69 189.41 163.69 189.41 163.69 189.41" style="fill:#ff6c7b"/><polygon points="164.74 187.34 165.54 185.78 165.54 185.78 162.41 180.99 161.62 182.54 161.62 182.54 164.74 187.34" style="fill:#ff6c7b"/><polygon points="163.69 189.41 163.69 189.41 160.56 184.61 160.56 184.61 163.69 189.41" style="fill:#ff6c7b"/><polygon points="161.03 194.6 161.83 193.04 161.83 193.04 161.83 193.04 161.03 194.6" style="fill:#ff6c7b"/><polygon points="162.89 190.97 163.69 189.41 163.69 189.41 160.56 184.61 160.56 184.61 159.76 186.17 159.76 186.17 159.76 186.17 162.89 190.97" style="fill:#ff6c7b"/><polygon points="159.76 186.17 159.76 186.17 154.53 186.42 154.53 186.42 159.76 186.17" style="fill:#ff6c7b"/><polygon points="160.42 200.5 161.22 198.93 161.22 198.93 161.22 198.93 160.42 200.5" style="fill:#ff6c7b"/><polygon points="161.03 194.6 161.83 193.04 161.83 193.04 158.7 188.24 157.9 189.8 161.03 194.6" style="fill:#ff6c7b"/><polygon points="156.75 192.06 161.22 198.93 161.22 198.93 156.75 192.06 151.52 192.31 151.52 192.31 156.75 192.06" style="fill:#ff6c7b"/><polygon points="157.06 202.36 157.86 200.81 157.06 202.36 157.06 202.36" style="fill:#ff6c7b"/><polygon points="160.42 200.5 161.22 198.93 161.22 198.93 156.75 192.06 155.94 193.63 155.95 193.63 155.95 193.63 160.42 200.5" style="fill:#ff6c7b"/><polygon points="157.86 200.81 154.73 196 154.73 196 157.86 200.81" style="fill:#ff6c7b"/><polygon points="156 204.44 155.2 206 155.2 206 156 204.44 156 204.44 156 204.44" style="fill:#ff6c7b"/><polygon points="157.06 202.36 157.86 200.81 154.73 196 154.73 196 153.93 197.56 153.93 197.56 157.06 202.36" style="fill:#ff6c7b"/><polygon points="153.55 315.39 158.78 315.15 156.67 229.09 151.69 239.29 153.55 315.39" style="fill:url(#a)"/><polygon points="156 204.44 156 204.44 152.87 199.64 152.87 199.64 156 204.44" style="fill:#ff6c7b"/><polygon points="153.34 209.62 153.34 209.62 154.14 208.06 154.14 208.06 154.14 208.06 153.34 209.62" style="fill:#ff6c7b"/><polygon points="146.84 201.45 146.84 201.45 146.84 201.45 146.84 201.45" style="fill:#ff6c7b"/><polygon points="155.2 206 156 204.44 156 204.44 152.87 199.64 152.87 199.64 152.07 201.2 152.07 201.2 155.2 206" style="fill:#ff6c7b"/><polygon points="151.48 213.25 151.48 213.25 152.28 211.69 152.28 211.69 152.28 211.69 151.48 213.25" style="fill:#ff6c7b"/><polygon points="153.34 209.62 154.14 208.06 154.14 208.06 151.02 203.26 150.22 204.82 150.22 204.82 150.22 204.82 153.34 209.62" style="fill:#ff6c7b"/><polygon points="150.87 219.15 150.87 219.15 151.68 217.58 151.68 217.58 150.87 219.15" style="fill:#ff6c7b"/><polygon points="151.48 213.25 152.28 211.69 152.28 211.69 149.16 206.89 148.36 208.45 148.36 208.45 148.36 208.45 151.48 213.25" style="fill:#ff6c7b"/><polygon points="151.68 217.58 151.68 217.58 151.68 217.58 147.2 210.71 147.2 210.71 151.68 217.58" style="fill:#ff6c7b"/><polygon points="147.51 221.02 148.31 219.46 147.51 221.02 147.51 221.02" style="fill:#ff6c7b"/><polygon points="150.87 219.15 151.68 217.58 151.68 217.58 147.2 210.71 147.2 210.71 146.4 212.28 146.4 212.28 150.87 219.15" style="fill:#ff6c7b"/><polygon points="148.31 219.46 145.19 214.66 145.17 214.66 145.19 214.66 148.31 219.46" style="fill:#ff6c7b"/><polygon points="146.45 223.09 145.65 224.65 145.65 224.65 146.45 223.09 146.45 223.09 146.45 223.09" style="fill:#ff6c7b"/><polygon points="147.51 221.02 148.31 219.46 145.19 214.66 144.39 216.22 144.39 216.22 144.39 216.22 147.51 221.02" style="fill:#ff6c7b"/><polygon points="146.45 223.09 146.45 223.09 143.33 218.29 143.31 218.29 143.33 218.29 146.45 223.09" style="fill:#ff6c7b"/><polygon points="143.8 228.27 144.6 226.71 144.6 226.71 144.6 226.71 143.8 228.27" style="fill:#ff6c7b"/><polygon points="145.65 224.65 146.45 223.09 146.45 223.09 143.33 218.29 142.53 219.85 144.34 222.64 145.65 224.65" style="fill:#ff6c7b"/><polygon points="141.94 231.91 141.94 231.91 142.74 230.35 142.74 230.35 142.74 230.35 141.94 231.91" style="fill:#ff6c7b"/><polygon points="143.8 228.27 144.6 226.71 144.6 226.71 141.47 221.91 140.67 223.47 140.67 223.47 143.8 228.27" style="fill:#ff6c7b"/><polygon points="141.33 237.8 141.33 237.8 142.13 236.23 142.13 236.23 141.33 237.8" style="fill:#ff6c7b"/><polygon points="141.94 231.91 142.74 230.35 142.74 230.35 139.61 225.55 138.82 227.1 138.82 227.1 141.94 231.91" style="fill:#ff6c7b"/><polygon points="142.13 236.23 142.13 236.23 142.13 236.23 137.66 229.36 137.66 229.36 142.13 236.23" style="fill:#ff6c7b"/><polygon points="137.97 239.67 137.97 239.67 138.77 238.11 138.77 238.11 138.77 238.11 137.97 239.67" style="fill:#ff6c7b"/><polygon points="141.33 237.8 142.13 236.23 142.13 236.23 137.66 229.36 137.66 229.36 136.86 230.93 136.86 230.93 141.33 237.8" style="fill:#ff6c7b"/><polygon points="136.11 243.3 136.11 243.3 136.91 241.73 136.91 241.73 136.91 241.73 136.11 243.3" style="fill:#ff6c7b"/><polygon points="137.97 239.67 138.77 238.11 138.77 238.11 135.64 233.31 134.84 234.87 134.84 234.87 134.84 234.87 137.97 239.67" style="fill:#ff6c7b"/><polygon points="134.26 246.93 135.05 245.37 134.26 246.93 134.26 246.93" style="fill:#ff6c7b"/><polygon points="136.11 243.3 136.91 241.73 136.91 241.73 133.79 236.93 132.98 238.5 132.98 238.5 136.11 243.3" style="fill:#ff6c7b"/><polygon points="132.4 250.56 133.19 249 132.4 250.56 132.4 250.56" style="fill:#ff6c7b"/><polygon points="134.26 246.93 135.05 245.37 131.93 240.56 131.93 240.56 131.93 240.56 131.13 242.12 131.13 242.12 134.26 246.93" style="fill:#ff6c7b"/><polygon points="132.59 254.88 131.79 256.44 131.79 256.44 132.59 254.88 132.59 254.88 132.59 254.88" style="fill:#ff6c7b"/><polygon points="133.19 249 130.07 244.2 130.06 244.2 130.07 244.2 133.19 249" style="fill:#ff6c7b"/><polygon points="132.4 250.56 133.19 249 130.07 244.2 129.27 245.76 129.27 245.76 132.4 250.56" style="fill:#ff6c7b"/><polygon points="132.59 254.88 132.59 254.88 128.12 248.02 128.12 248.02 132.59 254.88" style="fill:#ff6c7b"/><polygon points="128.42 258.32 129.22 256.76 129.22 256.76 129.22 256.76 128.42 258.32" style="fill:#ff6c7b"/><polygon points="131.79 256.44 132.59 254.88 132.59 254.88 128.12 248.02 128.12 248.02 127.32 249.57 127.32 249.57 131.79 256.44" style="fill:#ff6c7b"/><polygon points="126.57 261.95 126.57 261.95 127.37 260.38 127.37 260.38 126.57 261.95" style="fill:#ff6c7b"/><polygon points="128.42 258.32 129.22 256.76 129.22 256.76 126.1 251.96 125.3 253.52 125.3 253.52 128.42 258.32" style="fill:#ff6c7b"/><polygon points="127.37 260.38 127.37 260.38 127.37 260.38 124.24 255.58 124.24 255.58 127.37 260.38" style="fill:#ff6c7b"/><polygon points="125.51 264.02 124.71 265.58 124.71 265.58 125.51 264.02 125.51 264.02 125.51 264.02" style="fill:#ff6c7b"/><polygon points="126.57 261.95 127.37 260.38 127.37 260.38 124.24 255.58 124.24 255.58 123.44 257.15 123.44 257.15 123.44 257.15 126.57 261.95" style="fill:#ff6c7b"/><polygon points="125.51 264.02 125.51 264.02 122.39 259.22 122.39 259.22 125.51 264.02" style="fill:#ff6c7b"/><polygon points="123.65 267.65 122.85 269.21 122.85 269.21 123.65 267.65 123.65 267.65 123.65 267.65" style="fill:#ff6c7b"/><polygon points="124.71 265.58 125.51 264.02 125.51 264.02 122.39 259.22 122.39 259.22 121.59 260.78 121.59 260.78 124.71 265.58" style="fill:#ff6c7b"/><polygon points="122.25 275.1 122.25 275.1 123.05 273.54 123.04 273.54 123.04 273.54 122.25 275.1" style="fill:#ff6c7b"/><polygon points="123.65 267.65 123.65 267.65 120.53 262.85 123.65 267.65" style="fill:#ff6c7b"/><polygon points="114.5 264.66 114.5 264.66 114.5 264.66 114.5 264.66" style="fill:#ff6c7b"/><polygon points="122.85 269.21 123.65 267.65 123.65 267.65 120.53 262.85 119.73 264.41 119.73 264.41 122.85 269.21" style="fill:#ff6c7b"/><polygon points="118.88 276.97 118.88 276.97 119.68 275.41 119.68 275.41 118.88 276.97" style="fill:#ff6c7b"/><polygon points="122.25 275.1 123.04 273.54 123.04 273.54 118.57 266.67 117.78 268.23 117.78 268.23 122.25 275.1" style="fill:#ff6c7b"/><polygon points="119.68 275.41 119.68 275.41 119.68 275.41 118.37 273.4 119.68 275.41" style="fill:#ff6c7b"/><polygon points="117.02 280.6 117.83 279.04 117.02 280.6 117.02 280.6" style="fill:#ff6c7b"/><polygon points="118.88 276.97 119.68 275.41 119.68 275.41 118.37 273.4 116.55 270.61 116.55 270.61 116.55 270.61 115.76 272.17 115.76 272.17 118.88 276.97" style="fill:#ff6c7b"/><polygon points="117.83 279.04 114.7 274.24 114.69 274.24 114.7 274.24 117.83 279.04" style="fill:#ff6c7b"/><polygon points="115.97 282.67 115.97 282.67 115.17 284.23 115.97 282.67 115.97 282.67" style="fill:#ff6c7b"/><polygon points="117.02 280.6 117.83 279.04 114.7 274.24 113.9 275.8 113.9 275.8 117.02 280.6" style="fill:#ff6c7b"/><polygon points="115.97 282.67 115.97 282.67 112.84 277.87 112.84 277.87 115.97 282.67" style="fill:#ff6c7b"/><polygon points="113.31 287.86 113.31 287.86 113.31 287.86 114.11 286.3 114.11 286.3 114.11 286.3 113.31 287.86" style="fill:#ff6c7b"/><polygon points="115.97 282.67 112.84 277.87 112.84 277.87 112.04 279.43 115.17 284.23 115.97 282.67 115.97 282.67" style="fill:#ff6c7b"/><polygon points="112.7 293.75 112.7 293.75 113.5 292.19 113.5 292.19 113.5 292.19 112.7 293.75" style="fill:#ff6c7b"/><polygon points="111.49 285.07 113.31 287.86 114.11 286.3 114.11 286.3 110.98 281.5 110.18 283.06 110.18 283.06 110.18 283.06 111.49 285.07" style="fill:#ff6c7b"/><polygon points="111.49 285.07 113.31 287.86 113.31 287.86 111.49 285.07" style="fill:#ff6c7b"/><polygon points="110.14 294.06 109.34 295.62 109.34 295.62 110.14 294.06 110.14 294.06 110.14 294.06" style="fill:#ff6c7b"/><polygon points="112.7 293.75 113.5 292.19 113.5 292.19 109.03 285.32 108.23 286.88 108.23 286.88 108.23 286.88 112.7 293.75" style="fill:#ff6c7b"/><polygon points="110.14 294.06 110.14 294.06 107.01 289.26 107 289.26 107.01 289.26 110.14 294.06" style="fill:#ff6c7b"/><polygon points="107.48 299.26 107.48 299.26 108.28 297.69 108.28 297.69 108.28 297.69 107.48 299.26" style="fill:#ff6c7b"/><polygon points="109.34 295.62 110.14 294.06 110.14 294.06 107.01 289.26 106.21 290.82 106.21 290.82 109.34 295.62" style="fill:#ff6c7b"/><polygon points="105.63 302.88 106.42 301.32 105.63 302.88 105.63 302.88" style="fill:#ff6c7b"/><polygon points="107.48 299.26 108.28 297.69 108.28 297.69 105.16 292.89 104.35 294.46 104.35 294.46 107.48 299.26" style="fill:#ff6c7b"/><polygon points="103.77 306.51 103.77 306.51 104.57 304.95 104.57 304.95 104.57 304.95 103.77 306.51" style="fill:#ff6c7b"/><polygon points="105.63 302.88 106.42 301.32 103.3 296.52 102.5 298.08 102.5 298.08 102.5 298.08 105.63 302.88" style="fill:#ff6c7b"/><polygon points="97.27 298.33 97.27 298.33 97.27 298.33 97.27 298.33" style="fill:#ff6c7b"/><polygon points="97.29 298.33 102.5 298.08 102.5 298.08 97.29 298.33" style="fill:#ff6c7b"/><polygon points="103.16 312.4 103.16 312.4 103.96 310.84 103.96 310.84 103.16 312.4" style="fill:#ff6c7b"/><polygon points="103.77 306.51 104.57 304.95 104.57 304.95 101.44 300.14 100.64 301.71 103.77 306.51" style="fill:#ff6c7b"/><polygon points="103.96 310.84 103.96 310.84 103.96 310.84 103.96 310.84" style="fill:#ff6c7b"/><polygon points="101.36 306.85 99.48 303.97 99.48 303.97 101.36 306.85" style="fill:#ff6c7b"/><polygon points="99.79 314.28 99.79 314.28 100.59 312.72 100.59 312.72 100.59 312.72 99.79 314.28" style="fill:#ff6c7b"/><polygon points="103.16 312.4 103.96 310.84 103.96 310.84 101.36 306.85 99.48 303.97 99.48 303.97 98.69 305.53 98.69 305.53 103.16 312.4" style="fill:#ff6c7b"/><polygon points="98.74 316.34 98.74 316.34 98.74 316.34 97.94 317.91 97.94 317.91 97.94 317.91 98.74 316.34" style="fill:#ff6c7b"/><polygon points="99.79 314.28 100.59 312.72 100.59 312.72 97.47 307.92 96.67 309.48 96.67 309.48 99.79 314.28" style="fill:#ff6c7b"/><polygon points="96.08 321.53 96.08 321.53 96.88 319.97 96.88 319.97 96.88 319.97 96.08 321.53" style="fill:#ff6c7b"/><polygon points="98.74 316.34 95.61 311.54 94.81 313.11 97.94 317.91 98.74 316.34 98.74 316.34" style="fill:#ff6c7b"/><polygon points="94.81 313.11 97.94 317.91 97.94 317.91 94.81 313.11 89.58 313.36 89.58 313.36 89.58 313.36 94.81 313.11" style="fill:#ff6c7b"/><polygon points="95.02 323.6 94.22 325.17 94.22 325.17 95.02 323.6 95.02 323.6 95.02 323.6" style="fill:#ff6c7b"/><polygon points="96.08 321.53 96.88 319.97 96.88 319.97 93.75 315.17 92.96 316.73 92.96 316.73 96.08 321.53" style="fill:#ff6c7b"/><polygon points="94.41 329.49 93.62 331.05 93.62 331.05 94.41 329.49 94.41 329.49 94.41 329.49" style="fill:#ff6c7b"/><polygon points="95.02 323.6 95.02 323.6 91.9 318.8 91.9 318.8 95.02 323.6" style="fill:#ff6c7b"/><polygon points="94.22 325.17 95.02 323.6 95.02 323.6 91.9 318.8 91.9 318.8 91.1 320.37 91.1 320.37 94.22 325.17" style="fill:#ff6c7b"/><polygon points="94.41 329.49 94.41 329.49 89.94 322.62 89.93 322.62 89.94 322.62 94.41 329.49" style="fill:#ff6c7b"/><polygon points="90.25 332.93 90.25 332.93 91.05 331.37 91.05 331.37 91.05 331.37 90.25 332.93" style="fill:#ff6c7b"/><polygon points="93.62 331.05 94.41 329.49 94.41 329.49 89.94 322.62 89.14 324.18 89.14 324.18 93.62 331.05" style="fill:#ff6c7b"/><polygon points="88.4 336.55 88.4 336.55 89.19 334.99 89.19 334.99 89.19 334.99 88.4 336.55" style="fill:#ff6c7b"/><polygon points="90.25 332.93 91.05 331.37 91.05 331.37 87.92 326.57 87.13 328.13 87.13 328.13 87.13 328.13 90.25 332.93" style="fill:#ff6c7b"/><polygon points="86.54 340.19 86.54 340.19 87.34 338.63 87.34 338.63 86.54 340.19" style="fill:#ff6c7b"/><polygon points="88.4 336.55 89.19 334.99 89.19 334.99 86.07 330.19 85.27 331.75 85.27 331.75 88.4 336.55" style="fill:#ff6c7b"/><polygon points="87.34 338.63 87.34 338.63 87.34 338.63 87.34 338.63" style="fill:#ff6c7b"/><polygon points="85.48 342.25 84.68 343.82 84.68 343.82 85.48 342.25 85.48 342.25 85.48 342.25" style="fill:#ff6c7b"/><polygon points="86.54 340.19 87.34 338.63 87.34 338.63 84.21 333.82 84.21 333.82 84.21 333.82 83.41 335.38 83.41 335.38 86.54 340.19" style="fill:#ff6c7b"/><polygon points="84.07 349.7 84.07 349.7 84.87 348.14 84.87 348.14 84.87 348.14 84.07 349.7" style="fill:#ff6c7b"/><polygon points="85.48 342.25 85.48 342.25 82.35 337.45 82.34 337.45 82.35 337.45 85.48 342.25" style="fill:#ff6c7b"/><polygon points="84.68 343.82 85.48 342.25 85.48 342.25 82.35 337.45 81.55 339.02 81.55 339.02 84.68 343.82" style="fill:#ff6c7b"/><polygon points="74.37 343.08 74.37 343.08 74.37 343.08 74.37 343.08" style="fill:#ff6c7b"/><polygon points="84.07 349.7 84.87 348.14 84.87 348.14 80.4 341.28 79.6 342.83 79.6 342.83 84.07 349.7" style="fill:#ff6c7b"/><path d="M146.58,303.7l-1-58.69-.78-46.47L144,149.05l-.5-30-9.94,19.44,4.46,6.86-.79,1.56-4.48-6.86-.94,1.83,3.12,4.8-.79,1.56L131,143.45l-1.07,2.06,3.12,4.8-.79,1.56-3.12-4.8-1.06,2,3.13,4.8-.81,1.56-3.12-4.8-1.06,2.07,3.13,4.81-.8,1.55-3.13-4.8-1.15,2.26,4.47,6.87-.81,1.57-4.46-6.89-1.22,2.39,3.12,4.8-.79,1.56-3.13-4.75-1.06,2,3.12,4.8-.79,1.56-3.13-4.8-1.06,2.06,3.14,4.8-.81,1.56-3.12-4.81-1.06,2.11,3.14,4.8-.81,1.56-3.12-4.8-1.21,2.26,4.48,6.87-.81,1.57-4.47-6.87-1.2,2.33,3.14,4.8-.81,1.56-3.12-4.8-1.06,2.08,3.13,4.8-.81,1.56-1.31-2L110,184.32,109,186.38l3.13,4.81-.8,1.55-3.13-4.8L107.09,190l3.13,4.8-.8,1.56-3.12-4.8-1.16,2.25,4.47,6.87-.79,1.57-4.48-6.87-1.22,2.38,3.12,4.8-.79,1.56-3.12-4.8-1.06,2.06,3.13,4.8-.81,1.56L100.47,203l-1,2.14,3.13,4.8-.81,1.56-3.12-4.8-1.06,2.08,3.13,4.8-.81,1.56-3.12-4.81-1.11,2.21,4.47,6.88-.79,1.55-4.52-6.83L93.6,216.5l3.12,4.8-.8,1.56-3.12-4.8-1.06,2.05,3.12,4.8-.79,1.56-3.13-4.8-1.06,2.07,3.14,4.8-.81,1.56-3.12-4.8L88,227.36l3.14,4.75-.81,1.55-3.12-4.79-1.16,2.26L90.55,238l-.81,1.56-4.46-6.86-1.23,2.42,1.83,2.79,1.3,2-.8,1.56-3.12-4.81-1.06,2.06,3.12,4.8-.8,1.57-3.12-4.79-1.06,2.06,3.12,4.8-.79,1.56-3.13-4.8L78.48,246l3.12,4.8-.79,1.56L79,249.55l-1.31-2-1.16,2.26L81,256.68l-.8,1.56-4.47-6.87-1.22,2.38,3.12,4.8-.79,1.56-3.12-4.8-1.06,2.08,3.13,4.8-.8,1.57L71.87,259,70.81,261l3.12,4.81-.8,1.55L70,262.58,69,264.64l3.13,4.8L71.27,271l-3.12-4.79L67,268.47l1.88,2.88,2.6,4-.8,1.56L66.2,270,65,272.42l3.12,4.8-.8,1.56L64.18,274l-1.06,2.06,3.12,4.8-.8,1.57-3.12-4.81-1.06,2.07,3.12,4.8L63.59,286l-3.12-4.8-1.06,2.07,3.13,4.8-.81,1.57-3.12-4.81-1.17,2.24L61.92,294l-.81,1.55-4.45-6.86-1.24,2.43,3.13,4.8-.8,1.56-3.12-4.8-1.06,2.07,3.12,4.8-.79,1.56h0l-3.12-4.81-1.06,2.07,3.12,4.8-.79,1.56-3.13-4.79L49.86,302l3.14,4.8-.81,1.56-3.13-4.8-1.15,2.27,4.47,6.86-.8,1.56-4.47-6.86L36.92,327.27,51.27,325l38.6-6.08L108.2,316l35.31-5.57,3.18-.5Zm-38.85-24-28.46,3.41.2-.39L119.25,205l5-9.78,1.07,46,.85,36.36Z" transform="translate(32.5 35.5)" style="fill:url(#b)"/><path d="M143.46,119,36.92,327.23l-5.23.25L138.23,119.27Z" transform="translate(32.5 35.5)" style="fill:url(#c)"/><polygon points="91.05 331.37 87.92 326.57 91.05 331.37 91.05 331.37" style="fill:url(#d)"/><polygon points="177.3 234.04 157.82 276.7 156.75 230.67 151.75 240.45 111.97 318.18 111.77 318.57 140.23 315.23 122.36 354.38 83.76 360.47 176.46 184.55 177.3 234.04" style="fill:url(#e)"/><polygon points="179.08 339.2 176 345.93 140.69 351.49 178.08 280.51 179.08 339.2" style="fill:url(#f)"/><path d="M102.16,239.86c0,.14-.08.28-.13.42l-.09.3-.09.2a6.43,6.43,0,0,1-.32.71c0,.09-.09.18-.14.27-.19.37-.4.72-.62,1.07s-.67,1-1,1.49l-.3.39c-.38.51-.78,1-1.22,1.52A26.31,26.31,0,0,1,95,249.42a16.55,16.55,0,0,1-1.71,1.28,10.87,10.87,0,0,1-1.6.89h0l3.31-.84a14.18,14.18,0,0,0,3.31-2.16,26.31,26.31,0,0,0,3.23-3.19c.44-.51.84-1,1.23-1.52l.29-.39.3-.4c.26-.37.51-.73.74-1.09s.44-.72.63-1.07l.07-.13.06-.14a6.43,6.43,0,0,0,.32-.71l.07-.15v-.05l.09-.3.1-.3V239h0Z" transform="translate(32.5 35.5)" style="fill:#1960bb"/><polygon points="159.83 293.6 143.79 257.84 140.48 258.67 156.52 294.43 159.83 293.6" style="fill:#1960bb"/><polygon points="170.09 288.94 166.78 289.77 171.09 299.39 138.3 314.25 141.61 313.42 174.4 298.56 170.09 288.94" style="fill:#1960bb"/><path d="M108,223.17l16,35.76,10.26-4.66,4.31,9.62-32.79,14.86-4.27-9.64L113,263.92l-10.8-24.08a9.77,9.77,0,0,1-1.39,3,30.23,30.23,0,0,1-2.56,3.4A26.31,26.31,0,0,1,95,249.43a14.55,14.55,0,0,1-3.31,2.17l-4.45-9.94a10.08,10.08,0,0,0,3.14-2.55,32.7,32.7,0,0,0,3.14-4A40.32,40.32,0,0,0,95.93,231a7.31,7.31,0,0,0,1-2.79Z" transform="translate(32.5 35.5)" style="fill:#75bcfc"/><path d="M121.87,165.55a16.15,16.15,0,0,1,1-1.68c.27-.43.56-.85.87-1.25l.26-.35c.33-.41.67-.81,1-1.21a14.67,14.67,0,0,1,2.81-2.35,12.86,12.86,0,0,1,3.6-1.58l.31-.08-3.31.83-.31.09a12.43,12.43,0,0,0-3.6,1.57,14.67,14.67,0,0,0-2.81,2.35,12.08,12.08,0,0,0-1,1.21l-.26.35c-.1.13-.21.26-.3.39-.2.28-.39.57-.57.86-.35.55-.67,1.11-1,1.68a.64.64,0,0,1-.08.14h0c-.2.4-.39.79-.57,1.19l3.31-.83C121.42,166.44,121.66,166,121.87,165.55Z" transform="translate(32.5 35.5)" style="fill:#ff2f30"/><path d="M130.41,146.92l1.09-.18.65-.08.94-.1h2.47c.47,0,.92.06,1.38.1s.88.11,1.3.18l.63.1c.34.07.67.15,1,.24s.44.1.65.17l.87.31c.29.11.49.17.73.27a14.13,14.13,0,0,1,1.4.71l.12.08a11.7,11.7,0,0,1,1.42,1l.63.52.31.28a11.8,11.8,0,0,1,1,1q.45.54.84,1.11l.23.37c.17.27.34.55.49.83l.24.46c.13.27.26.56.38.85s.14.31.2.47c.16.43.31.87.43,1.32s.21.87.29,1.29.1.75.14,1.12v2.08a5.15,5.15,0,0,1-.13,1c-.06.3-.17.77-.27,1.15a14.74,14.74,0,0,1-.46,1.47.94.94,0,0,1-.12.3c-.17.43-.36.86-.56,1.27-.1.21-.2.42-.31.62-.42.75-.88,1.48-1.37,2.18a21.43,21.43,0,0,1-1.52,1.9c-1.09,1.24-2.19,2.36-3.26,3.38-.87.83-1.8,1.75-2.78,2.74s-1.94,2-2.86,3.18c-.36.43-.69.87-1,1.32,0,.06-.07.12-.11.17a21.89,21.89,0,0,0-1.28,2c-.08.13-.15.26-.22.4a1,1,0,0,1-.07.15,12.85,12.85,0,0,0-.53,1.2h0a9.15,9.15,0,0,0-.33,1.05v.1c-.06.22-.11.45-.15.67h0l3.31-.83c.05-.25.11-.51.18-.77a9,9,0,0,1,.33-1h0a10.82,10.82,0,0,1,.53-1.21l.29-.55a21.89,21.89,0,0,1,1.28-2c.35-.51.72-1,1.12-1.5.92-1.13,1.88-2.19,2.86-3.18s1.91-1.91,2.78-2.74c1.07-1,2.17-2.14,3.26-3.38a20.56,20.56,0,0,0,1.49-1.86h0c.49-.7.95-1.43,1.37-2.18l.21-.39a.64.64,0,0,1,.1-.23c.2-.41.39-.84.56-1.27l.09-.21v-.09a14.74,14.74,0,0,0,.46-1.47v-.08c.09-.35.17-.71.24-1.07a.89.89,0,0,1,.07-.42c.07-.14,0-.4.06-.61s0-.25,0-.37v-1.71a7.29,7.29,0,0,0-.14-1.12v-.13c-.07-.38-.16-.77-.27-1.16s-.21-.73-.34-1.09c0-.08-.07-.15-.1-.23l-.18-.47-.39-.86-.24-.45c-.15-.28-.32-.56-.49-.83a4.1,4.1,0,0,0-.24-.37,13,13,0,0,0-.83-1.12c-.3-.35-.62-.67-.95-1l-.31-.28c-.15-.13-.28-.26-.43-.38l-.2-.14a11.7,11.7,0,0,0-1.42-1l-.1-.07h0a14.13,14.13,0,0,0-1.4-.71l-.15-.06c-.19-.08-.39-.14-.58-.21s-.57-.22-.87-.31h-.1l-.55-.13c-.34-.09-.67-.18-1-.24h-.16a1.27,1.27,0,0,1-.47-.06c-.42-.07-.86-.13-1.3-.18H140c-.36,0-.72,0-1.08-.06h-2.47l-.94.1-.65.08h-.18a4.83,4.83,0,0,0-.91.16l-.54.09c-.55.11-1.11.23-1.67.38l-3.31.83c.56-.15,1.12-.27,1.67-.38Z" transform="translate(32.5 35.5)" style="fill:#ff2f30"/><polygon points="193.18 215.62 189.87 216.45 192.64 226.62 151.41 237.89 154.72 237.06 195.95 225.79 193.18 215.62" style="fill:#ff2f30"/><path d="M134.92,146.48h.64a18.09,18.09,0,0,1,6.57,1.37,13.19,13.19,0,0,1,4.83,3.56,14.09,14.09,0,0,1,2.81,5.41,12.27,12.27,0,0,1,.31,5.52,15.82,15.82,0,0,1-1.72,4.81,21.22,21.22,0,0,1-2.89,4.08c-1.09,1.24-2.19,2.36-3.26,3.38-.87.83-1.8,1.75-2.78,2.74s-1.94,2.05-2.86,3.18a24.64,24.64,0,0,0-2.4,3.5,12.09,12.09,0,0,0-1.35,3.62l24.55-6.71,2.77,10.17-41.23,11.27a37.79,37.79,0,0,1-1.26-7,18.37,18.37,0,0,1,.58-6.26,21.42,21.42,0,0,1,2.78-6,36.86,36.86,0,0,1,5.37-6.26c1.94-1.86,3.69-3.49,5.24-4.92s2.82-2.67,3.83-3.8a11.44,11.44,0,0,0,2.13-3.15,4.78,4.78,0,0,0,.16-3.08,5.71,5.71,0,0,0-3.23-3.75,7.06,7.06,0,0,0-3.16-.68,13.7,13.7,0,0,0-6.84,2.05,14.67,14.67,0,0,0-2.81,2.35,18,18,0,0,0-2.17,2.81,24.07,24.07,0,0,0-1.62,3l-9.62-6.31a19.58,19.58,0,0,1,2.45-3.42,30.72,30.72,0,0,1,4.13-3.93,37.16,37.16,0,0,1,5.6-3.7,33.28,33.28,0,0,1,7-2.78A28.9,28.9,0,0,1,134.92,146.48Z" transform="translate(32.5 35.5)" style="fill:#ff6c7b"/><path d="M204.6,172.3c-.38,0-.75.06-1.16.06a13.53,13.53,0,0,1-1.59-.07,4.22,4.22,0,0,1-1-.08c-.73-.09-1.42-.2-2.09-.33-.39-.07-.75-.17-1.11-.26l-1-.25-.68-.25c-.37-.13-.74-.26-1.09-.41a5.87,5.87,0,0,1-.63-.32c-.39-.2-.79-.39-1.15-.62a15.9,15.9,0,0,1-1.43-1c-.41-.33-.79-.69-1.17-1.06l-.32-.33c-.27-.29-.53-.59-.79-.89l-.3-.37c-.33-.43-.65-.87-1-1.33l-3.31.83c.3.46.62.9.95,1.33l.3.37c.26.3.52.6.79.89l.32.33c.37.37.76.73,1.16,1.06h0a15.9,15.9,0,0,0,1.43,1l.49.3c.21.12.44.21.66.32s.41.22.63.32l.2.09c.28.12.6.22.89.32l.68.25h.14c.26.08.56.14.84.21s.72.19,1.11.26h.16c.61.12,1.26.21,1.93.29l.83.08h.19c.55,0,1.09.06,1.6.06h.5a2.35,2.35,0,0,0,.65-.06c.22-.06.64,0,.94-.08h.25c.41-.06.81-.14,1.18-.23l3.31-.83a11.56,11.56,0,0,1-1.43.25A3.18,3.18,0,0,1,204.6,172.3Z" transform="translate(32.5 35.5)" style="fill:#1960bb"/><path d="M198.58,131.33a13.09,13.09,0,0,1,2-.68l-3.31.83a13.09,13.09,0,0,0-2,.68,14.54,14.54,0,0,0-5.78,4.52l3.31-.83A14.54,14.54,0,0,1,198.58,131.33Z" transform="translate(32.5 35.5)" style="fill:#1960bb"/><path d="M205.33,145.61c-.37,0-.73.07-1.12.07a10.85,10.85,0,0,1-1.45-.07l-.9-.07-2.73-.31-3.31.83,2.73.31.73.07h.17c.5,0,1,.06,1.45.06h.48a2.28,2.28,0,0,0,.64-.06c.21-.06.62,0,.91-.07h.23q.6-.09,1.2-.24l3.31-.83c-.45.11-.94.19-1.43.26Z" transform="translate(32.5 35.5)" style="fill:#1960bb"/><path d="M227,136.68v-1.19a1,1,0,0,0-.05-.39,5.57,5.57,0,0,0-.1-.82c0-.27,0-.28,0-.41s-.09-.4-.14-.6,0-.16,0-.24c-.1-.37-.21-.74-.33-1.09-.05-.12-.09-.23-.13-.35a14.19,14.19,0,0,0-3.59-5.26q-.45-.42-.93-.81c-.06-.06-.14-.1-.21-.16l-.52-.39c-.26-.19-.54-.39-.82-.57l-.59-.37-.42-.27-.55-.29-.44-.24c-.5-.26-1-.5-1.55-.74h-.14a1.17,1.17,0,0,0-.24-.09c-.65-.27-1.32-.51-2-.72l-.31-.12a1.31,1.31,0,0,1-.38-.09c-.71-.2-1.43-.37-2.18-.52l-.34-.08h-.13c-.76-.14-1.54-.26-2.34-.35l-1.14-.11H207c-.85-.06-1.7-.11-2.54-.11h-.9c-.64,0-1.27,0-1.9.1s-1.45.15-2.16.25l-.32.06-.42.07c-.77.13-1.53.28-2.27.47l-3.31.83c.74-.19,1.5-.34,2.27-.47l.41-.07c.81-.13,1.64-.23,2.49-.31s1.86-.12,2.8-.12,1.69,0,2.54.11l1.44.12c.8.09,1.58.21,2.34.35l.47.1c.75.15,1.47.32,2.18.52l.69.21c.68.21,1.35.45,2,.72l.38.14c.53.24,1.05.48,1.55.74l.44.24,1,.56a5.44,5.44,0,0,1,.59.37l.82.57.52.39a10.74,10.74,0,0,1,1.14,1,13.72,13.72,0,0,1,4.05,6.7.42.42,0,0,0,0,.24c.08.33.14.67.19,1s.08.54.1.82,0,.55,0,.83v.75a8.6,8.6,0,0,1-.07,1.34c-.07.45-.08.64-.14.95s-.13.72-.21,1.08l-.09.37a13.56,13.56,0,0,1-.43,1.37c-.13.36-.28.72-.44,1.07a7.32,7.32,0,0,1-.37.71A13.61,13.61,0,0,1,221,146c-.14.2-.29.39-.44.58l-.23.3c-.24.29-.5.58-.77.85a13.82,13.82,0,0,1-3.9,2.8,11.44,11.44,0,0,1-1.14.48l-.16-.06h-.12l-3.31.83.32.1c.46.15.91.31,1.34.48l.45.2c.41.18.82.38,1.21.6l.33.18.35.22c.23.14.46.29.68.45l.37.28.6.47.36.32c.18.18.37.35.54.54l.33.33c.19.21.36.42.54.64l.26.31c.25.33.49.67.72,1a12.38,12.38,0,0,1,.78,1.37c.07.14.13.29.2.43.16.34.3.68.44,1s.14.39.2.58.11.34.16.51.14.49.2.73l.12.52.09.52c.08.48.14,1,.18,1.46v.39a17.42,17.42,0,0,1,0,1.77,6.1,6.1,0,0,1-.1,1.34c-.1.45-.14,1-.22,1.42s-.11.59-.18.87-.17.68-.27,1-.15.51-.24.76-.24.6-.37.9-.22.54-.35.81a12.79,12.79,0,0,1-.78,1.4c-.26.4-.54.78-.83,1.15-.14.18-.28.37-.43.55s-.47.52-.72.77-.3.33-.46.48-.58.51-.88.76l-.44.36c-.47.36-.95.69-1.45,1a20.93,20.93,0,0,1-5.74,2.33l3.31-.83q.81-.19,1.56-.45a20.65,20.65,0,0,0,4.18-1.88c.5-.31,1-.64,1.45-1l.43-.36c.31-.25.61-.5.89-.76s.31-.32.46-.47.49-.51.72-.78.29-.37.43-.55.24-.28.34-.43.33-.47.49-.72.47-.78.68-1.18a.64.64,0,0,1,.1-.23c.13-.26.24-.53.35-.8s.2-.41.28-.63.06-.18.09-.27c.09-.25.16-.51.24-.76s.14-.43.2-.66,0-.23.07-.35c.07-.29.12-.58.18-.87s.09-.41.12-.62.08-.53.1-.8c.05-.42.08-.83.1-1.23v-.11a17.42,17.42,0,0,0,0-1.77v-.39a8.7,8.7,0,0,0-.18-1.46v-.27a.45.45,0,0,0-.05-.25l-.12-.52c-.06-.24-.12-.49-.2-.73s-.1-.34-.16-.51l-.09-.31c0-.09-.08-.18-.11-.27-.14-.34-.28-.68-.44-1-.07-.14-.13-.29-.2-.43a12.38,12.38,0,0,0-.78-1.37,9.87,9.87,0,0,0-.72-1l-.26-.31c-.18-.22-.35-.43-.54-.64l-.33-.34-.54-.53-.37-.32-.25-.22-.34-.25-.37-.28c-.22-.16-.45-.31-.68-.45l-.35-.22-.1-.07-.23-.11c-.39-.22-.8-.42-1.21-.6l-.24-.12-.21-.08q-.61-.24-1.26-.45l2-.49a12.43,12.43,0,0,0,2.37-.86,13.82,13.82,0,0,0,3.9-2.8c.27-.27.53-.56.77-.85l.23-.3c.13-.17.27-.33.39-.5v-.08a13.61,13.61,0,0,0,.94-1.55l.09-.15c.1-.18.19-.37.28-.56s.3-.67.43-1h0a13.56,13.56,0,0,0,.43-1.37v-.09l.06-.28q.12-.54.21-1.08a1.74,1.74,0,0,0,.05-.22c0-.24.07-.48.09-.73s.06-.63.07-.95A3.23,3.23,0,0,0,227,136.68Z" transform="translate(32.5 35.5)" style="fill:#1960bb"/><path d="M201.15,121.05a35.62,35.62,0,0,1,4,.23,28.49,28.49,0,0,1,8.08,2,20.48,20.48,0,0,1,6,3.84,14.31,14.31,0,0,1,3.59,5.26,13.54,13.54,0,0,1,.79,6.43,15.13,15.13,0,0,1-1.31,4.84,14.12,14.12,0,0,1-2.75,4,13.82,13.82,0,0,1-3.9,2.8,12.54,12.54,0,0,1-4.73,1.22,14.36,14.36,0,0,1,8.4,6.15,16,16,0,0,1,2.34,10.67,16.35,16.35,0,0,1-2.41,7.17,15.85,15.85,0,0,1-5.21,5.06,21.83,21.83,0,0,1-7.62,2.73,29.18,29.18,0,0,1-5.28.45,36.18,36.18,0,0,1-4.29-.25,31.75,31.75,0,0,1-11.72-3.46,21.79,21.79,0,0,1-7.87-7.15l7.58-7.46a16.56,16.56,0,0,0,5,5,18.08,18.08,0,0,0,7.73,2.44,22.88,22.88,0,0,0,2.62.15,11.71,11.71,0,0,0,5.84-1.3c2.06-1.17,3.25-3.19,3.55-6.08A8.21,8.21,0,0,0,207,158.5q-3-2.79-9.62-3.53l-2.46-.28.91-8.65,2.73.31a20.44,20.44,0,0,0,2.35.14,11.62,11.62,0,0,0,6.28-1.58,7.43,7.43,0,0,0,3.64-5.77,6.13,6.13,0,0,0-1.86-5.55,11,11,0,0,0-6.21-2.44,15.5,15.5,0,0,0-1.93-.11,14.09,14.09,0,0,0-5.55,1.1,14.54,14.54,0,0,0-5.78,4.52l-6.55-9a14,14,0,0,1,3.91-3.19,23.44,23.44,0,0,1,5.27-2.21,32.09,32.09,0,0,1,6.23-1.14C199.28,121.11,200.21,121.05,201.15,121.05Z" transform="translate(32.5 35.5)" style="fill:#75bcfc"/><polygon points="454.37 239.95 457.68 239.12 459.54 226.29 456.23 227.12 454.37 239.95" style="fill:#ff2f30"/><polygon points="450.08 195.75 432.09 212.89 447.27 215.21 450.58 214.38 435.4 212.06 453.39 194.92 450.08 195.75" style="fill:#ff2f30"/><polygon points="461.03 215.96 466.36 179.03 458.29 177.8 454.98 178.63 463.05 179.86 457.72 216.79 465.44 217.97 463.95 228.29 467.26 227.46 468.75 217.14 461.03 215.96" style="fill:#ff2f30"/><path d="M425.22,181.29l7.72,1.18-1.49,10.32-7.72-1.17-1.86,12.83-11.75-1.79L412,189.83,386.33,186l1.48-10.26,34.67-32.58,8.07,1.23Zm-10.44-1.58,2.8-19.46-18,17.14,15.19,2.32" transform="translate(32.5 35.5)" style="fill:#ff6c7b"/><path d="M463.84,215.39l-3.31.83a10.38,10.38,0,0,0-3.76,1.8l3.31-.83A10.38,10.38,0,0,1,463.84,215.39Z" transform="translate(32.5 35.5)" style="fill:#1960bb"/><path d="M468.44,235.56c-.27,0-.53.05-.8.05a7.33,7.33,0,0,1-1-.05,9,9,0,0,1-1.16-.16h-.13q-.56-.1-1.14-.27l-.89-.28c-.48-.17-.94-.38-1.39-.59l-.83-.41c-.39-.21-.78-.43-1.15-.67l-.23-.15a16.07,16.07,0,0,1-1.4-1.06l-.29-.26q-.69-.61-1.32-1.29a15.3,15.3,0,0,1-1.29-1.58c-.13-.18-.24-.37-.37-.56-.25-.37-.51-.73-.74-1.12-.13-.23-.25-.47-.37-.71s-.39-.71-.56-1.08-.22-.54-.33-.81c-.18-.43-.36-.87-.51-1.32l-3.31.83a1.81,1.81,0,0,0,.16.48c.05.16.24.57.35.85s.21.54.33.8.37.73.56,1.09.24.47.37.7c.23.39.49.76.74,1.13.13.18.24.37.37.55.4.54.83,1.07,1.29,1.58s.86.88,1.32,1.29l.29.26.27.23a13.12,13.12,0,0,0,1.13.83l.23.15c.24.15.47.31.71.45l.44.22.83.41c.15.07.29.16.44.22.31.13.63.26.95.37l.75.24h.15c.38.11.76.2,1.13.27h.11a9,9,0,0,0,1.16.16h2.57c.33,0,.65-.12,1-.2l3.31-.83a10.16,10.16,0,0,1-1.1.21Z" transform="translate(32.5 35.5)" style="fill:#1960bb"/><path d="M489.84,225.41v-1.08a17.86,17.86,0,0,0-.27-2.06v-.1c-.1-.53-.22-1-.37-1.56a1.64,1.64,0,0,0-.12-.4c0-.14-.16-.56-.26-.83l-.18-.45-.17-.42c-.22-.52-.45-1-.72-1.54a20.14,20.14,0,0,0-4.94-6l-.23-.19c-.45-.37-.92-.71-1.4-1.05h-.08c-.45-.3-.92-.6-1.4-.88l-.18-.1-.39-.2c-.44-.24-.89-.47-1.35-.68-.16-.07-.31-.15-.47-.21l-.3-.14c-.5-.21-1-.41-1.54-.6l-1.11-.36h-.11c-.54-.16-1.08-.29-1.59-.39h-.09l-.37,0-.84-.12h-1.72l-.61.05h-.17a5.57,5.57,0,0,0-.71.14l-1.12.28,6.71-12.07-3.31.83-6.8,12.24,2.58-.65h1.85l.84.12.46.07q.76.15,1.59.39c.4.12.81.24,1.22.39.64.23,1.25.47,1.84.74.16.06.31.14.47.21.46.21.91.44,1.35.68l.39.2c.54.31,1.07.64,1.58,1h.08c.56.39,1.11.8,1.63,1.24a20.14,20.14,0,0,1,4.94,6,15.49,15.49,0,0,1,.72,1.54l.17.42c.16.42.31.85.44,1.29a1.94,1.94,0,0,0,.12.39c.15.55.28,1.1.38,1.66a17.86,17.86,0,0,1,.27,2.06v2.09c0,.34-.06.65-.09,1a5.61,5.61,0,0,1-.1,1.07c-.1.36-.11.58-.17.86s-.14.83-.25,1.24c-.16.64-.34,1.29-.56,1.94-.15.43-.33.84-.5,1.26s-.39.93-.61,1.38-.42.84-.64,1.23l-.16.29a16.52,16.52,0,0,1-1,1.47,20.61,20.61,0,0,1-1.52,1.84,19.64,19.64,0,0,1-6.73,4.58,22.23,22.23,0,0,1-2.76.9l3.31-.84a19.43,19.43,0,0,0,9.49-5.47,16.79,16.79,0,0,0,1.52-1.85,1.07,1.07,0,0,0,.14-.16c.3-.42.58-.85.85-1.3l.16-.29c.15-.27.31-.53.45-.81.07-.13.12-.28.19-.42.22-.45.42-.91.61-1.38.08-.2.17-.37.25-.57l.25-.69c.2-.6.38-1.2.53-1.79v-.15c.11-.41.18-.83.25-1.24a5.14,5.14,0,0,1,.16-.76v-.1c0-.36.07-.72.1-1.07s.08-.59.09-.88v-.09A6.92,6.92,0,0,0,489.84,225.41Z" transform="translate(32.5 35.5)" style="fill:#1960bb"/><polygon points="501.49 216.88 498.18 217.71 527.54 228.04 524.12 238.07 527.43 237.24 530.85 227.21 501.49 216.88" style="fill:#1960bb"/><path d="M465.66,182.21,495,192.54l-3.42,10-21.2-7.43-6.8,12.24a7.38,7.38,0,0,1,3.43-.69,15.88,15.88,0,0,1,5.1,1,23.78,23.78,0,0,1,7.34,4.1,20.14,20.14,0,0,1,4.94,6,18.45,18.45,0,0,1,2.1,7.36,20.46,20.46,0,0,1-1.14,8.17,20.1,20.1,0,0,1-4.42,7.47,19.64,19.64,0,0,1-6.73,4.58,22.26,22.26,0,0,1-8.34,1.57,27.38,27.38,0,0,1-9.22-1.63,26.41,26.41,0,0,1-10.78-6.83,20.3,20.3,0,0,1-5.32-10.15l8.71-4.3a19.87,19.87,0,0,0,4.17,7.18,16.07,16.07,0,0,0,6.61,4.43,13,13,0,0,0,4.28.79,9.79,9.79,0,0,0,4.06-.85,9.58,9.58,0,0,0,5.31-6.09,9.74,9.74,0,0,0-.36-7.86,10.23,10.23,0,0,0-6-5.06,11.86,11.86,0,0,0-4-.7,10.67,10.67,0,0,0-1.6.11,10.48,10.48,0,0,0-5,2l-9.82-3.46a16.38,16.38,0,0,1,1-1.72l2.24-3.82c.91-1.55,1.9-3.28,3-5.2s2.22-3.87,3.4-5.85Q460.66,190.94,465.66,182.21Z" transform="translate(32.5 35.5)" style="fill:#75bcfc"/><path d="M470.42,306.57h-.87a5.24,5.24,0,0,1-1-.14l-.3-.06-.82-.2L467,306c-.35-.12-.69-.25-1-.39s-.68-.34-1-.53h-.06a10.46,10.46,0,0,1-1.24-.85c-.21-.16-.42-.33-.62-.51a12.94,12.94,0,0,1-2.74-3.54,12.06,12.06,0,0,1-.61-1.38l-.18-.49a1.33,1.33,0,0,0-.1-.34c0-.11-.14-.5-.19-.75l-.06-.26a10,10,0,0,1-.16-1.08v-2a1.78,1.78,0,0,1,.06-.56,3.72,3.72,0,0,0,.08-.57,4.88,4.88,0,0,1,.12-.55c.05-.18.13-.58.22-.87a8.11,8.11,0,0,1,.3-.79c.11-.26.19-.45.29-.67l.21-.42a10.89,10.89,0,0,1,.66-1.09v-.05a10,10,0,0,1,.7-.88,12.08,12.08,0,0,1,3.45-2.66,10.86,10.86,0,0,1,2.32-.88l-3.31.83a11.42,11.42,0,0,0-2.32.88,11.81,11.81,0,0,0-3.45,2.67,8.33,8.33,0,0,0-.7.87h0a10.89,10.89,0,0,0-.66,1.09l-.08.13c-.05.09-.08.19-.13.29s-.2.44-.29.67c0,.08-.07.14-.1.22s-.14.38-.2.57-.12.4-.17.61,0,.17-.05.26a3.61,3.61,0,0,0-.12.55c0,.18,0,.2-.06.31s0,.18,0,.26a2.16,2.16,0,0,1-.06.56v2a5.6,5.6,0,0,0,.14,1v.08l.06.26c0,.25.12.5.19.75l.1.34a1.31,1.31,0,0,0,.1.32.89.89,0,0,1,.08.17A12.06,12.06,0,0,0,457,301a12.94,12.94,0,0,0,2.74,3.54l.47.41.15.1a10.46,10.46,0,0,0,1.24.85h.06a10.32,10.32,0,0,0,1.05.53h.08l.94.35.28.08.19.05.82.2h.3c.34.06.68.11,1,.14h1.16l.76-.05.59-.07c.39-.06.77-.14,1.15-.23l3.31-.83a12.65,12.65,0,0,1-1.74.3A2.64,2.64,0,0,1,470.42,306.57Z" transform="translate(32.5 35.5)" style="fill:#ff2f30"/><path d="M463.56,276.4c.12-.3.23-.58.35-.86s.26-.62.4-.92.25-.54.38-.8.28-.57.43-.84.26-.48.4-.72l.46-.77.43-.65c.17-.25.35-.5.53-.73l.38-.49.59-.7.38-.42.69-.66c.12-.1.23-.22.34-.32.36-.3.72-.59,1.09-.85a11.41,11.41,0,0,1,3.87-1.8l-3.31.83a11.62,11.62,0,0,0-3.87,1.81c-.37.26-.73.54-1.09.84-.11.1-.22.22-.34.32s-.46.43-.69.66l-.38.43c-.2.22-.4.45-.59.69s-.26.32-.38.49l-.3.38c-.08.11-.15.24-.23.35l-.43.65-.46.77c-.14.24-.27.48-.4.72s-.14.23-.2.35-.15.34-.23.5-.26.52-.38.79-.27.61-.4.92l-.35.86c0,.12-.1.23-.14.36-.15.39-.29.79-.43,1.21L463,278C463.17,277.42,463.37,276.91,463.56,276.4Z" transform="translate(32.5 35.5)" style="fill:#ff2f30"/><path d="M493.25,295.25v-.54a5,5,0,0,0-.08-1c-.06-.51-.14-1-.23-1.52a.45.45,0,0,0-.07-.29,3.09,3.09,0,0,1-.14-.61c-.09-.41-.2-.82-.32-1.22-.06-.21-.13-.42-.19-.63s-.09-.28-.14-.42-.21-.52-.31-.78-.14-.37-.22-.54c-.25-.57-.51-1.13-.81-1.67s-.69-1.17-1.07-1.73l-.32-.42c-.3-.41-.59-.81-.92-1.2-.18-.21-.37-.4-.55-.59s-.56-.64-.87-.94-.47-.41-.7-.62-.57-.53-.89-.79h0c-.52-.42-1.06-.82-1.62-1.19l-.55-.35c-.27-.17-.54-.36-.83-.52l-.42-.23-.44-.23c-.56-.29-1.13-.57-1.71-.82h-.08a21.7,21.7,0,0,0-2.1-.78l-.48-.15-.29-.07q-.75-.21-1.47-.36l-.29-.07H475c-.55-.1-1.09-.17-1.63-.22h0q-.64-.06-1.29-.06h-.68a9.39,9.39,0,0,0-1.2.11h-.28l-.38.06c-.36.07-.72.14-1.07.23l-3.31.83c.35-.09.71-.16,1.07-.23a6.28,6.28,0,0,1,.66-.08c.39-.05.79-.09,1.2-.11h.68q.66,0,1.32.06c.54.05,1.08.12,1.63.22l.43.09q.72.15,1.47.36l.77.22c.73.24,1.44.5,2.12.79h.08c.58.25,1.15.53,1.71.82l.44.23c.43.24.84.49,1.25.75l.55.35c.56.38,1.1.77,1.62,1.19.32.26.6.53.9.8l.71.63c.29.29.56.6.84.9s.4.41.58.63.54.7.81,1c.14.19.3.38.43.57a19.15,19.15,0,0,1,1.07,1.73c.3.54.56,1.1.81,1.67.08.18.15.36.22.54q.24.58.45,1.2c.07.21.13.42.19.63.12.4.23.81.32,1.22a3.36,3.36,0,0,0,.14.61c.12.6.23,1.2.3,1.81s.07,1,.09,1.5v2.07a3.92,3.92,0,0,1-.09,1c-.09.35-.1.7-.17,1.05s-.12.67-.2,1c-.13.54-.26,1.08-.43,1.62s-.37,1.06-.58,1.58-.36.84-.55,1.25-.32.67-.49,1l-.23.4c-.32.55-.65,1.08-1,1.59a18.28,18.28,0,0,1-1.36,1.69,21.3,21.3,0,0,1-6.65,5,21,21,0,0,1-4,1.45l3.31-.83a21,21,0,0,0,4-1.45,21.3,21.3,0,0,0,6.65-5,16.92,16.92,0,0,0,1.36-1.68h0c.36-.51.69-1,1-1.57l.23-.4.24-.43c.09-.18.16-.38.25-.56.19-.41.38-.83.55-1.25.06-.14.13-.27.18-.41.14-.38.28-.77.4-1.17s.24-.77.33-1.16a1.9,1.9,0,0,1,.1-.46c.08-.34.14-.67.2-1a3.86,3.86,0,0,1,.12-.57,3.37,3.37,0,0,1,.05-.48c0-.33.07-.65.09-1s.05-.37.05-.55v-.49A3.85,3.85,0,0,1,493.25,295.25Z" transform="translate(32.5 35.5)" style="fill:#ff2f30"/><path d="M471.78,255.35h1.65a14.63,14.63,0,0,1,1.75.07c.58.07,1.41.16,2.11.29.5.09,1,.18,1.51.31H479c.57.14,1.14.3,1.71.49a26.34,26.34,0,0,1,2.57,1l.37.17c.76.35,1.5.74,2.21,1.15.14.08.26.17.4.26.6.37,1.18.77,1.75,1.19l.48.36a24.81,24.81,0,0,1,2,1.69,20.58,20.58,0,0,1,1.78,1.95l.08.08c.53.66,1,1.35,1.48,2.05a1,1,0,0,0,.11.17c.44.7.84,1.43,1.21,2.17,0,.08.09.16.12.24a24.41,24.41,0,0,1,1,2.29l.21.57-8.78,4.81,3.31-.83,8.71-4.85-.14-.39-.07-.18a24.41,24.41,0,0,0-1-2.29c0-.08-.08-.16-.12-.24-.37-.74-.77-1.47-1.21-2.17a1,1,0,0,1-.11-.17c-.46-.7-.95-1.39-1.48-2.05l-.08-.08a20.58,20.58,0,0,0-1.78-2c-.52-.51-1.07-1-1.63-1.45-.1-.09-.22-.16-.32-.24l-.48-.36c-.57-.43-1.15-.82-1.75-1.19-.13-.09-.26-.18-.4-.26l-.18-.11a21.94,21.94,0,0,0-2-1l-.37-.17-.39-.18c-.71-.29-1.43-.57-2.18-.81l-.64-.2c-.36-.11-.72-.2-1.07-.29h-.16c-.44-.11-.87-.21-1.31-.29h-.2c-.71-.13-1.41-.23-2.11-.29h0c-.58-.05-1.16-.07-1.73-.07h-1.65a6.21,6.21,0,0,0-1.35.15h-.11c-.63.09-1.26.22-1.88.37l-3.31.83c.62-.15,1.25-.28,1.88-.37A14.33,14.33,0,0,1,471.78,255.35Z" transform="translate(32.5 35.5)" style="fill:#ff2f30"/><path d="M487.42,286.9a20.86,20.86,0,0,1,2.43,7.68,20.71,20.71,0,0,1-5.06,15.76,21.3,21.3,0,0,1-6.65,5,22,22,0,0,1-8.31,2.1H468.5a25,25,0,0,1-7.82-1.28,23.7,23.7,0,0,1-8.61-4.81,20.08,20.08,0,0,1-5.3-7.56,26.18,26.18,0,0,1-1.77-9.94,39.75,39.75,0,0,1,2-11.9,57.14,57.14,0,0,1,6.12-13.68,32.9,32.9,0,0,1,7.91-8.84,20.59,20.59,0,0,1,9.31-4,19.74,19.74,0,0,1,3.07-.23,23.48,23.48,0,0,1,7.24,1.2,24.57,24.57,0,0,1,9.73,5.81,23.82,23.82,0,0,1,6,9.52l-8.72,4.93a15,15,0,0,0-3.7-6.6,15.25,15.25,0,0,0-6.47-4,12.51,12.51,0,0,0-3.93-.66,11,11,0,0,0-6.45,2.13q-4.73,3.3-7.42,11.29a12.42,12.42,0,0,1,6.47-3.11,15.46,15.46,0,0,1,2.54-.22,18.21,18.21,0,0,1,5.62.95,23.76,23.76,0,0,1,7.77,4.17A21.34,21.34,0,0,1,487.42,286.9Zm-9.23,12.43a10.58,10.58,0,0,0,.43-4.47,12.69,12.69,0,0,0-1.28-4.21,11.15,11.15,0,0,0-2.79-3.46,12.13,12.13,0,0,0-4-2.23,12.27,12.27,0,0,0-3.75-.61H466a11,11,0,0,0-4.24,1.19,11.81,11.81,0,0,0-3.45,2.67,10.31,10.31,0,0,0-2.2,3.89,11,11,0,0,0-.45,4.56,11.19,11.19,0,0,0,1.3,4.3,12.94,12.94,0,0,0,2.74,3.54,10.78,10.78,0,0,0,4,2.31,11.48,11.48,0,0,0,3.49.56,6.37,6.37,0,0,0,1-.05,11.64,11.64,0,0,0,4.27-1.26,12.08,12.08,0,0,0,3.53-2.78,10.82,10.82,0,0,0,2.23-4" transform="translate(32.5 35.5)" style="fill:#ff6c7b"/><polygon points="391.14 437.28 247.55 437.28 233.27 422.18 330.28 325.17 479.75 325.17 391.14 437.28" style="opacity:0.19;fill:url(#g)"/><polygon points="457.8 352.94 258.13 397.32 330.28 325.17 479.75 325.17 457.8 352.94" style="fill:url(#h)"/><polygon points="247.55 437.28 233.27 422.18 254.47 414.52 247.55 437.28" style="fill:url(#i)"/><polygon points="472.34 344.37 262.89 393.4 263.85 335.23 473.23 291.13 472.34 344.37" style="fill:url(#j)"/><polygon points="263.85 335.23 134.76 302.85 344.13 258.75 473.23 291.13 263.85 335.23" style="fill:url(#k)"/><path d="M105.89,269.52,105,324s123.26,31.69,125.44,32l.93-56.09Z" transform="translate(32.5 35.5)" style="fill:url(#l)"/><polygon points="260.04 334.27 260.04 334.27 134.76 302.85 134.73 304.71 260 337.26 259.13 389.42 133.84 358 133.81 359.85 262.89 393.4 262.94 390.37 263.8 338.25 263.85 335.23 260.04 334.27" style="fill:url(#m)"/><path d="M301.55,324.65l-2.08-3.12c-.85-1.18-1.39-1.95-1.9-2.78h-.05c-.46,1.06-.92,2.05-1.77,3.68l-2,4.07-2.42.58,5-9.48-4.81-6.93,2.45-.59,2.16,3.32c.61.92,1.07,1.64,1.51,2.41h.07c.46-1.08.88-1.93,1.48-3.12l2.24-4.37,2.42-.58-5,9.15,5.09,7.18Z" transform="translate(32.5 35.5)" style="fill:#fff"/><path d="M306.46,307.33a23.89,23.89,0,0,1,3.86-1.27c2.11-.5,3.47-.46,4.49.12a2.62,2.62,0,0,1,1.36,2.56A5.27,5.27,0,0,1,313.4,313v.05a3.14,3.14,0,0,1,3.37,2.89,1.79,1.79,0,0,1,0,.4,5.59,5.59,0,0,1-1.39,3.61c-1.14,1.32-3,2.24-5.65,2.88a24.24,24.24,0,0,1-3.28.59Zm2.11,6.19,1.92-.46c2.23-.53,3.54-2,3.54-3.59,0-1.92-1.45-2.32-3.59-1.81a11,11,0,0,0-1.87.59Zm0,7.84a10.6,10.6,0,0,0,1.77-.32c2.19-.53,4.2-1.81,4.2-4.19s-1.92-2.7-4.22-2.14l-1.75.41Z" transform="translate(32.5 35.5)" style="fill:#fff"/><path d="M333.6,308.62c0,5.64-3.42,9.44-7.6,10.44s-7.35-1.59-7.35-6.54c0-5.2,3.22-9.37,7.6-10.42S333.6,303.77,333.6,308.62Zm-12.7,3.31c0,3.49,1.9,6.17,5.22,5.38s5.25-4.34,5.25-8.06c0-3.25-1.7-6.24-5.22-5.4S320.9,308.34,320.9,311.93Z" transform="translate(32.5 35.5)" style="fill:#fff"/><path d="M338.85,301.11l-5,1.19v-1.79l12.11-2.9v1.79l-5,1.2v14.61l-2.13.51Z" transform="translate(32.5 35.5)" style="fill:#fff"/><path d="M349.92,296.71v16.4l-2.11.5v-16.4Z" transform="translate(32.5 35.5)" style="fill:#fff"/><path d="M365,308.91a12.57,12.57,0,0,1-4.32,1.81c-4.61,1.11-8.08-1-8.08-6.34a10.9,10.9,0,0,1,8.54-10.64,8.14,8.14,0,0,1,3.89-.2l-.51,1.84a7.36,7.36,0,0,0-3.3.12,8.09,8.09,0,0,0-6.39,8.27c0,4,2.31,6,6.29,5.08a10.43,10.43,0,0,0,3.45-1.51Z" transform="translate(32.5 35.5)" style="fill:#fff"/><path d="M367.4,306.31a6.62,6.62,0,0,0,3.79.16c2.16-.52,3.42-2,3.42-3.61s-.88-2.19-3.08-2.52c-2.68-.3-4.33-1.29-4.33-3.6,0-2.55,2.12-4.95,5.3-5.71a6.91,6.91,0,0,1,3.61-.06l-.58,1.86a5.86,5.86,0,0,0-3.11,0c-2.23.53-3.08,2.07-3.08,3.19,0,1.53,1,2,3.25,2.38,2.77.4,4.18,1.4,4.18,3.8s-1.87,5.16-5.73,6.08a7.81,7.81,0,0,1-4.18,0Z" transform="translate(32.5 35.5)" style="fill:#fff"/><polygon points="133.84 358 137.54 356.21 137.5 358.91 133.84 358" style="fill:#07225f"/><path d="M126,193.9c-.14-.94-.3-1.89-.48-2.82l195.38,42.49.42,27.79-.42-25.49Z" transform="translate(32.5 35.5)" style="fill:url(#n)"/><path d="M321.79,294.64l-196.3-42.35c.12-.79.22-1.6.32-2.39l195.93,42Z" transform="translate(32.5 35.5)" style="fill:url(#o)"/><polygon points="288.44 251.63 482.93 296.91 482.93 236.7 287.56 194.19 288.44 251.63" style="fill:url(#p)"/><polygon points="353.36 269.07 482.46 236.7 287.09 194.19 157.99 226.57 353.36 269.07" style="fill:url(#q)"/><path d="M446.33,205.49l.9,54.44S324,291.58,321.79,291.88l-.92-56Z" transform="translate(32.5 35.5)" style="fill:url(#r)"/><path d="M129,250.47c2.61-19.49,3-38.28.17-56l191.73,41.4.42,25.49.45,30.51Z" transform="translate(32.5 35.5)" style="fill:url(#s)"/><polygon points="354.29 327.39 354.25 327.37 353.79 296.86 354.29 327.39" style="fill:url(#t)"/><polygon points="353.36 269.07 482.46 236.7 482.46 296.91 354.29 330.14 354.29 327.38 479.73 295.43 479.73 240.99 353.37 271.37 353.36 269.07" style="fill:url(#u)"/><path d="M372.75,177h0a1.12,1.12,0,0,1,.2.33v.11a3.93,3.93,0,0,1,.19.58,5.61,5.61,0,0,1,0,2.82.45.45,0,0,1-.2.23h0l6-2.28h0a1,1,0,0,0,0-.6.67.67,0,0,0-.07-.18h0l-6.32-1h0A.44.44,0,0,1,372.75,177Z" transform="translate(32.5 35.5)" style="fill:#575755"/><polygon points="393.58 221.06 393.58 221.06 393.58 221.06 393.58 221.06" style="fill:#e4eeed"/><path d="M360.14,175h0a.8.8,0,0,1,.27.18l.07.08a1.51,1.51,0,0,1,.22.28l.06.09a3.4,3.4,0,0,1,.26.5l.06.14c.07.17.13.34.2.53l.06.2c.08.25.16.52.23.81.64,2.6.67,5.82.07,7.19a1.54,1.54,0,0,1-.26.42l-.1.07a.71.71,0,0,1-.14.1h0l11.87-4.5h0a.45.45,0,0,0,.2-.23,5.61,5.61,0,0,0,0-2.82,3.93,3.93,0,0,0-.19-.58v-.11a1.12,1.12,0,0,0-.2-.33h0a.51.51,0,0,0-.16-.09h0l-12.55-2h-.06Z" transform="translate(32.5 35.5)" style="fill:url(#v)"/><path d="M361.08,185.55h.06a.71.71,0,0,0,.14-.1A.54.54,0,0,1,361.08,185.55Z" transform="translate(32.5 35.5)" style="fill:#0075f2"/><path d="M361.08,176.23l-.06-.14Z" transform="translate(32.5 35.5)" style="fill:#0075f2"/><path d="M361.34,177l-.06-.2Z" transform="translate(32.5 35.5)" style="fill:#0075f2"/><path d="M361.66,185a1.54,1.54,0,0,1-.26.42A1.54,1.54,0,0,0,361.66,185Z" transform="translate(32.5 35.5)" style="fill:#0075f2"/><path d="M360.14,175" transform="translate(32.5 35.5)" style="fill:#0075f2"/><path d="M360.76,175.59l-.06-.09Z" transform="translate(32.5 35.5)" style="fill:#0075f2"/><path d="M360.41,175.11l.07.08Z" transform="translate(32.5 35.5)" style="fill:#0075f2"/><path d="M206.66,191a.93.93,0,0,1,.26.18l.08.08a1.86,1.86,0,0,1,.21.28l.07.09c.08.15.17.32.26.51s0,.09.05.13a2.37,2.37,0,0,1,.2.53c.06.19.05.13.07.21.08.24.15.51.23.8.63,2.6.66,5.82.06,7.19a1.41,1.41,0,0,1-.26.42h-.08a.56.56,0,0,1-.2.11h0l11.19-1.17,10.84-1.13L250,197.11l12.11-1.26,3.3-.34,24.92-2.6,12.87-1.34,3.16-.33L318.66,190,339,187.87l10.9-1.13,11.15-1.17h0a.54.54,0,0,0,.2-.1l.1-.07a1.54,1.54,0,0,0,.26-.42c.6-1.37.57-4.59-.07-7.19-.07-.29-.15-.56-.23-.81l-.06-.2c-.07-.19-.13-.36-.2-.53l-.06-.14a3.4,3.4,0,0,0-.26-.5l-.06-.09a1.51,1.51,0,0,0-.22-.28l-.07-.08a.8.8,0,0,0-.27-.18h-.21l-11.16,1.13-10.87,1.13-20.41,2.13-12.16,1.27-3.27.34-12.81,1.33-24.94,2.6-3.27.34-12.15,1.27-20.42,2.12-10.87,1.14-11.16,1.16a.34.34,0,0,1,.2,0Z" transform="translate(32.5 35.5)" style="fill:url(#w)"/><path d="M206.91,191.11l.08.08Z" transform="translate(32.5 35.5)" style="fill:#e4eeed"/><path d="M206.66,191Z" transform="translate(32.5 35.5)" style="fill:#e4eeed"/><path d="M207.58,192.22a.19.19,0,0,0-.05-.13C207.48,192.05,207.56,192.18,207.58,192.22Z" transform="translate(32.5 35.5)" style="fill:#e4eeed"/><path d="M207.78,201.44a.56.56,0,0,1-.2.11A.56.56,0,0,0,207.78,201.44Z" transform="translate(32.5 35.5)" style="fill:#e4eeed"/><path d="M208.14,201a1.41,1.41,0,0,1-.26.42A1.41,1.41,0,0,0,208.14,201Z" transform="translate(32.5 35.5)" style="fill:#e4eeed"/><path d="M207.27,191.58l-.07-.09Z" transform="translate(32.5 35.5)" style="fill:#e4eeed"/><path d="M207.85,193a.74.74,0,0,0-.07-.21A2,2,0,0,1,207.85,193Z" transform="translate(32.5 35.5)" style="fill:#e4eeed"/><path d="M201.73,191.41a.34.34,0,0,1,.2,0h0a1,1,0,0,1,.22.13l0,.06.08.07a1.86,1.86,0,0,1,.21.28l.06.09a3.06,3.06,0,0,1,.26.51l.06.13c.07.17.14.34.2.53s0,.14.07.21c.08.25.15.51.22.8.64,2.6.67,5.82.07,7.19a1.41,1.41,0,0,1-.26.42l-.1.07a.56.56,0,0,1-.2.11h0l2.35-.25,2.36-.24h0a.56.56,0,0,0,.2-.11h.08a1.41,1.41,0,0,0,.26-.42c.6-1.37.57-4.59-.06-7.19-.08-.29-.15-.56-.23-.8a.86.86,0,0,0-.07-.21c0-.07-.13-.36-.2-.53s0-.09-.05-.13a4.61,4.61,0,0,1-.26-.51l-.07-.09a1.86,1.86,0,0,0-.21-.28l-.08-.08a.93.93,0,0,0-.26-.18h0a.34.34,0,0,0-.2,0l-2.35.24h0Z" transform="translate(32.5 35.5)" style="fill:#e4eeed"/><path d="M201.93,191.44" transform="translate(32.5 35.5)" style="fill:#ff7485"/><path d="M202.2,191.63l.08.07Z" transform="translate(32.5 35.5)" style="fill:#ff7485"/><path d="M202.81,192.58l.06.13Z" transform="translate(32.5 35.5)" style="fill:#ff7485"/><path d="M202.49,192l.06.09Z" transform="translate(32.5 35.5)" style="fill:#ff7485"/><path d="M203.43,201.44a1.41,1.41,0,0,1-.26.42A1.41,1.41,0,0,0,203.43,201.44Z" transform="translate(32.5 35.5)" style="fill:#ff7485"/><path d="M203.07,201.93a.56.56,0,0,1-.2.11A.56.56,0,0,0,203.07,201.93Z" transform="translate(32.5 35.5)" style="fill:#ff7485"/><path d="M203.07,193.24a.26.26,0,0,0,.07.21C203.21,193.52,203.09,193.31,203.07,193.24Z" transform="translate(32.5 35.5)" style="fill:#ff7485"/><path d="M203.07,201.93l.1-.07a1.41,1.41,0,0,0,.26-.42c.6-1.37.57-4.59-.07-7.19-.07-.29-.14-.55-.22-.8a.86.86,0,0,0-.07-.21c0-.07-.13-.36-.2-.53l-.06-.13a3.06,3.06,0,0,0-.26-.51l-.06-.09a1.86,1.86,0,0,0-.21-.28l-.08-.07a.06.06,0,0,0,0-.06,1,1,0,0,0-.22-.13h0a.34.34,0,0,0-.2,0h0l-12.46,1.3-2.2.23a2.55,2.55,0,0,0-1.37.55,3.1,3.1,0,0,0-1,1.24,4.63,4.63,0,0,0-.25.8,5.88,5.88,0,0,1-.12.69v.15a5.08,5.08,0,0,1-.05.87h0v1a2,2,0,0,0,.07.66v.19c.08.53.17.92.19,1s.05.16.07.24.08.28.12.41l.09.25v.14l.11.22c.06.14.13.29.2.42l.16.27c.08.12.16.24.25.35l.15.17.3.29.15.12c.1.06.19.13.29.18a1.23,1.23,0,0,0,.26.12l.19.08a2.8,2.8,0,0,0,1.15.13l4.38-.45,1.87-.2,4-.42,4.38-.45h0A.55.55,0,0,0,203.07,201.93Z" transform="translate(32.5 35.5)" style="fill:#ff7485"/><path d="M348.06,189.24a5.46,5.46,0,0,0-1.66-.17,4.26,4.26,0,0,0-1,.16l-3.51,1-.92-.69-.86-.62-.82-.55c-.45-.3-.92-.6-1.4-.88l-1-.57c-.81-.47-1.66-.91-2.54-1.34l-1.08-.52c-.24-.12-.49-.23-.75-.34-.66-.3-1.36-.6-2.07-.88-.37-.16-.76-.31-1.15-.46-1-.38-2-.75-3.06-1.08-.4-.14-.8-.27-1.22-.39-1.06-.33-2.15-.64-3.25-.92-.41-.12-.84-.22-1.26-.32-1.12-.28-2.26-.53-3.41-.76l-1.27-.23c-1.15-.21-2.32-.4-3.5-.56L311,179l-1-.11c-.84-.1-1.7-.18-2.54-.25l-1.29-.09c-1.18-.07-2.36-.13-3.53-.15H301.4c-1.17,0-2.32,0-3.48.05h-1.26A63.52,63.52,0,0,0,281.31,181l-.45.14-1,.33a26.91,26.91,0,0,0-2.57,1l-.88.38-1,.48c-.45.21-.87.42-1.28.65l-.78.43c-.7.41-1.36.83-2,1.27-.23.16-.46.31-.67.48a19.9,19.9,0,0,0-1.66,1.38c-.2.17-.38.34-.56.52a18.7,18.7,0,0,0-1.33,1.48c-.15.18-.3.37-.44.56a13.22,13.22,0,0,0-1,1.55c-.11.2-.22.4-.31.6a13.07,13.07,0,0,0-.65,1.6c-.06.22-.13.42-.18.63a10.25,10.25,0,0,0-.29,1.64v.64a11.5,11.5,0,0,0,0,1.66,3.87,3.87,0,0,0,.09.66,11.42,11.42,0,0,0,.36,1.64c.06.22.14.44.21.66a16.41,16.41,0,0,0,.69,1.62c.11.22.22.44.34.66a18.18,18.18,0,0,0,1,1.55l.49.66c.37.5.78,1,1.21,1.49l.6.64.41.42,1,1c.37.35.47.41.71.61l.31.27-3.07.88a1.45,1.45,0,0,0-1,.68.72.72,0,0,0,0,.67,1.9,1.9,0,0,0,.53.63l7.07,5.5L356.91,196l-.18-.72-7.08-5.3A4,4,0,0,0,348.06,189.24Zm-62.37,17-.32-.23c-7.35-5.81-4.56-13.2,6.5-16.51a35.31,35.31,0,0,1,5.38-1.16,47,47,0,0,1,12.87,0c6.32.86,12.15,2.94,15.91,6,.11.08.21.17.3.25Z" transform="translate(32.5 35.5)" style="fill:url(#x)"/><path d="M348.31,188.17a6.16,6.16,0,0,0-1.66-.17,4.85,4.85,0,0,0-1,.16l-3.5,1q-.45-.36-.93-.69l-.86-.63-.81-.55q-.69-.45-1.41-.87l-1-.58c-.82-.46-1.67-.91-2.54-1.33l-1.09-.53-.75-.33c-.66-.31-1.36-.6-2.06-.89l-1.16-.46c-1-.38-2-.74-3.05-1.08l-1.22-.39c-1.07-.33-2.15-.64-3.25-.92l-1.26-.32c-1.13-.28-2.27-.52-3.41-.75l-1.28-.23c-1.15-.22-2.32-.4-3.5-.57-.42-.06-.86-.12-1.3-.16s-.66-.09-1-.12c-.84-.09-1.7-.18-2.54-.25l-1.28-.08c-1.18-.08-2.37-.13-3.54-.16h-4.74l-.95,0h-.29a63.5,63.5,0,0,0-15.35,2.61l-.45.15-1,.32c-.9.31-1.75.63-2.57,1-.3.12-.59.25-.87.38l-1,.47c-.44.21-.87.43-1.28.65s-.52.29-.77.44a21.7,21.7,0,0,0-2,1.26l-.68.48c-.59.45-1.15.91-1.66,1.38a4.59,4.59,0,0,0-.55.53,15.58,15.58,0,0,0-1.34,1.47L267,189a15.89,15.89,0,0,0-1,1.56,6.63,6.63,0,0,0-.31.59,13.16,13.16,0,0,0-.64,1.61c-.07.21-.13.41-.19.62a13.1,13.1,0,0,0-.29,1.64v.65a15.14,15.14,0,0,0,0,1.65,5,5,0,0,0,.09.66,15.48,15.48,0,0,0,.36,1.64c.07.22.14.44.22.67.2.55.43,1.09.68,1.61.11.22.22.44.34.66a18.27,18.27,0,0,0,1,1.56l.48.66c.37.49.78,1,1.22,1.48.19.22.39.43.59.64l.42.43c.33.32.68.65,1,1a4.38,4.38,0,0,0,.72.62c.09.09.2.17.3.26l-3.07.88a1.45,1.45,0,0,0-1,.68.74.74,0,0,0,0,.68,1.65,1.65,0,0,0,.52.62l7.07,5.5,81.66-22.65-7.26-6A4.43,4.43,0,0,0,348.31,188.17Zm-62.36,17-.32-.24c-7.35-5.81-4.56-13.19,6.5-16.51a36.43,36.43,0,0,1,5.37-1.16,47.08,47.08,0,0,1,12.88,0c6.31.85,12.14,2.93,15.91,6l.29.26Z" transform="translate(32.5 35.5)" style="fill:url(#y)"/><path d="M297.2,177.36l.3,9.93a36.43,36.43,0,0,0-5.37,1.16c-11.06,3.32-13.85,10.7-6.5,16.51l.32.24,12-3.44.3,9.53L277.75,217l-2.09-34.7,1-.47c.28-.13.57-.26.87-.38.82-.35,1.67-.67,2.57-1l1-.32.45-.15a63.5,63.5,0,0,1,15.35-2.61Z" transform="translate(32.5 35.5)" style="fill:url(#z)"/><path d="M332.74,183.66l-.29,18.14-21.79,6-.13-9.69,16.05-4.59-.29-.26c-3.77-3.07-9.6-5.15-15.91-6l-.13-9.54a8.27,8.27,0,0,1,1,.12l1.3.16c1.18.17,2.35.35,3.5.57l1.28.23c1.14.23,2.28.47,3.41.75l1.26.32c1.1.28,2.18.59,3.25.92l1.22.39c1,.34,2.06.7,3,1.08l1.16.46C331.38,183.11,332.08,183.35,332.74,183.66Z" transform="translate(32.5 35.5)" style="fill:url(#aa)"/><path d="M245.51,365.73h0a1.29,1.29,0,0,0-.18.35v.11a3.87,3.87,0,0,0-.13.59,5.64,5.64,0,0,0,.22,2.82.36.36,0,0,0,.21.21h0l-6.2-1.7v-.05a1.22,1.22,0,0,1-.05-.6.61.61,0,0,1,.05-.18h0l6.21-1.54h0A.29.29,0,0,0,245.51,365.73Z" transform="translate(32.5 35.5)" style="fill:#575755"/><polygon points="290.38 408.77 290.37 408.77 290.37 408.77 290.38 408.77" style="fill:#e4eeed"/><path d="M257.9,362.63h0a.75.75,0,0,0-.26.21l-.06.08a1.17,1.17,0,0,0-.19.3l-.06.09c-.07.16-.14.33-.21.53V364l-.15.54a.33.33,0,0,1-.05.21c-.06.26-.11.53-.16.82-.4,2.65-.16,5.86.56,7.17a1.17,1.17,0,0,0,.3.4.21.21,0,0,0,.1.06.6.6,0,0,0,.15.09h0l-12.21-3.46h0a.36.36,0,0,1-.21-.21,5.64,5.64,0,0,1-.22-2.82,3.87,3.87,0,0,1,.13-.59v-.11a1.29,1.29,0,0,1,.18-.35h0a.33.33,0,0,1,.15-.11h0l12.33-3h.06A.37.37,0,0,0,257.9,362.63Z" transform="translate(32.5 35.5)" style="fill:url(#ab)"/><path d="M257.87,373.27h0a.6.6,0,0,1-.15-.09A.6.6,0,0,0,257.87,373.27Z" transform="translate(32.5 35.5)" style="fill:#0075f2"/><path d="M257.07,364v-.14S257.09,363.94,257.07,364Z" transform="translate(32.5 35.5)" style="fill:#0075f2"/><path d="M256.87,364.73a.33.33,0,0,1,.05-.21C257,364.45,256.89,364.66,256.87,364.73Z" transform="translate(32.5 35.5)" style="fill:#0075f2"/><path d="M257.27,372.72a1.17,1.17,0,0,0,.3.4A1.17,1.17,0,0,1,257.27,372.72Z" transform="translate(32.5 35.5)" style="fill:#0075f2"/><path d="M257.9,362.63" transform="translate(32.5 35.5)" style="fill:#0075f2"/><path d="M257.33,363.31l.06-.09Z" transform="translate(32.5 35.5)" style="fill:#0075f2"/><path d="M257.66,362.84l-.06.08Z" transform="translate(32.5 35.5)" style="fill:#0075f2"/><path d="M412.2,365.33a.72.72,0,0,0-.25.21l-.07.09a1.81,1.81,0,0,0-.19.29v.1a4.77,4.77,0,0,0-.22.52v.14c-.06.17-.11.35-.16.55v.21a7.62,7.62,0,0,1-.15.82c-.41,2.64-.16,5.85.55,7.17a1.45,1.45,0,0,0,.3.39h.08a.4.4,0,0,0,.21.09h0l-11.25-.2-10.9-.19-20.54-.36L357.44,375l-3.32-.06-25.05-.44-12.94-.23-3.17-.05L300.65,374l-20.47-.36-11-.19L258,373.2h0a.72.72,0,0,1-.2-.09.21.21,0,0,1-.1-.06,1.17,1.17,0,0,1-.3-.4c-.72-1.31-1-4.52-.56-7.17.05-.29.1-.56.16-.82a.33.33,0,0,1,.05-.21l.15-.54v-.14c.07-.2.14-.37.21-.53l.06-.09a1.17,1.17,0,0,1,.19-.3l.06-.08a.75.75,0,0,1,.26-.21h.2l11.23.2,10.92.19,20.52.36,12.22.21,3.29.06,12.88.23,25.07.44h3.29l12.21.22,20.52.36,10.93.19,11.22.2a.34.34,0,0,0-.2,0Z" transform="translate(32.5 35.5)" style="fill:url(#ac)"/><path d="M412,365.54l-.07.09Z" transform="translate(32.5 35.5)" style="fill:#e4eeed"/><path d="M412.2,365.33" transform="translate(32.5 35.5)" style="fill:#e4eeed"/><path d="M411.38,366.68v0Z" transform="translate(32.5 35.5)" style="fill:#e4eeed"/><path d="M412,375.88a.4.4,0,0,0,.21.09A.4.4,0,0,1,412,375.88Z" transform="translate(32.5 35.5)" style="fill:#e4eeed"/><path d="M411.57,375.43a1.45,1.45,0,0,0,.3.39A1.45,1.45,0,0,1,411.57,375.43Z" transform="translate(32.5 35.5)" style="fill:#e4eeed"/><path d="M411.66,366v0Z" transform="translate(32.5 35.5)" style="fill:#e4eeed"/><path d="M411.17,367.44v0Z" transform="translate(32.5 35.5)" style="fill:#e4eeed"/><path d="M417.14,365.37a.35.35,0,0,0-.2.05h0a.77.77,0,0,0-.21.14l-.05.06-.06.09a1.17,1.17,0,0,0-.19.3l-.06.09a4.87,4.87,0,0,0-.21.53v.14c0,.05-.1.35-.15.54s0,.14,0,.21c-.06.25-.11.52-.16.82-.41,2.64-.16,5.86.56,7.17a1.41,1.41,0,0,0,.29.4l.11.06a.72.72,0,0,0,.2.09h-4.74a.4.4,0,0,1-.21-.09H412a1.45,1.45,0,0,1-.3-.39c-.71-1.32-1-4.53-.55-7.17a4,4,0,0,1,.15-.82v-.21c.05-.2.1-.38.16-.55v-.14a4.77,4.77,0,0,1,.22-.52v-.1a1.81,1.81,0,0,1,.19-.29l.07-.09a.72.72,0,0,1,.25-.21h0a.34.34,0,0,1,.2,0h2.37Z" transform="translate(32.5 35.5)" style="fill:#e4eeed"/><path d="M416.94,365.42" transform="translate(32.5 35.5)" style="fill:#ff7485"/><path d="M416.66,365.62l-.06.09Z" transform="translate(32.5 35.5)" style="fill:#ff7485"/><path d="M416.16,366.63v.14C416.16,366.82,416.14,366.67,416.16,366.63Z" transform="translate(32.5 35.5)" style="fill:#ff7485"/><path d="M416.43,366l-.06.09Z" transform="translate(32.5 35.5)" style="fill:#ff7485"/><path d="M416.31,375.51a1.41,1.41,0,0,0,.29.4A1.41,1.41,0,0,1,416.31,375.51Z" transform="translate(32.5 35.5)" style="fill:#ff7485"/><path d="M416.71,376a.72.72,0,0,0,.2.09A.72.72,0,0,1,416.71,376Z" transform="translate(32.5 35.5)" style="fill:#ff7485"/><path d="M416,367.31v.21C416,367.59,415.94,367.38,416,367.31Z" transform="translate(32.5 35.5)" style="fill:#ff7485"/><path d="M416.71,376l-.11-.06a1.41,1.41,0,0,1-.29-.4c-.72-1.31-1-4.53-.56-7.17a3.41,3.41,0,0,1,.16-.82v-.21a4.27,4.27,0,0,1,.15-.54c.05-.16,0-.1,0-.14a4.87,4.87,0,0,1,.21-.53l.06-.09a1.17,1.17,0,0,1,.19-.3l.06-.09.05-.06a.77.77,0,0,1,.21-.14h0a.35.35,0,0,1,.2-.05h0l12.52.22h2.21a2.55,2.55,0,0,1,1.42.43,3,3,0,0,1,1,1.16,4.22,4.22,0,0,1,.32.76c.07.23.12.46.17.69v.14a8.09,8.09,0,0,0,.12.86h0v1.72a.61.61,0,0,1,0,.19,5.11,5.11,0,0,1-.1,1,2.08,2.08,0,0,0,0,.25,3.13,3.13,0,0,1-.09.41l-.06.27v.14l-.09.22a1.23,1.23,0,0,1-.16.44l-.14.28c-.07.13-.14.25-.22.37s-.09.13-.13.19a4.12,4.12,0,0,1-.28.31l-.14.13-.27.21-.25.14-.18.09a2.81,2.81,0,0,1-1.14.24l-4.4-.08h-1.88l-4-.07-4.4-.08h0A.45.45,0,0,1,416.71,376Z" transform="translate(32.5 35.5)" style="fill:#ff7485"/><polygon points="480.83 375.96 483.35 396.32 485.81 374.68 480.83 375.96" style="fill:url(#ad)"/><path d="M444.26,266,446,335.24a7.36,7.36,0,0,0,2.36,5.22h0l4.69-.2,1.6-6a40.14,40.14,0,0,0,1.11-14.92l-6.25-55.23Z" transform="translate(32.5 35.5)" style="fill:url(#ae)"/><rect x="369.4" y="317.16" width="51.43" height="6.06" transform="translate(19.32 658.91) rotate(-75.62)" style="fill:url(#af)"/><polygon points="420.98 385.49 418.93 384.96 418.28 379.83 424.15 381.34 420.98 385.49" style="fill:url(#ag)"/><polygon points="419.28 387.71 418.93 384.96 420.98 385.49 419.28 387.71" style="fill:#373f42"/><rect x="400.6" y="291.07" width="2.46" height="6.06" transform="translate(49.65 645.81) rotate(-75.62)" style="fill:#373f42"/><path d="M406.24,289l-1.2,4.65h0l-5.87-1.5h0l1.2-4.66a1,1,0,0,1,1.21-.72l4,1a1,1,0,0,1,.72,1.21Z" transform="translate(32.5 35.5)" style="fill:url(#ah)"/><path d="M447.82,251.44l4.84-19.05a4.69,4.69,0,0,0-3.32-5.74,3,3,0,0,0-.41-.09h0a4.7,4.7,0,0,0-5.44,3.82s0,.07,0,.11l-2.71,19.82Z" transform="translate(32.5 35.5)" style="fill:url(#ai)"/><path d="M398.73,336.73h0a3.32,3.32,0,0,0,3.93-2.24c8.37-26.8,16.87-55.81,24.51-64.32a7,7,0,0,1,6.08-2.24l12.55,1.56c7.4,1.19,11.52-14.46,4.52-17.49,0,0-15.11-12.3-30,13.88-7.3,11.27-12.4,25.29-16.28,40a1.69,1.69,0,0,1-1.88,1.24l-6.8-1.07a1.68,1.68,0,0,0-1.86,1.15l-6.26,19.91a1.67,1.67,0,0,0,1.1,2.09,1.1,1.1,0,0,0,.26.06l8.42,1-.69,2.21a3.31,3.31,0,0,0,2.13,4.18Z" transform="translate(32.5 35.5)" style="fill:url(#aj)"/><path d="M446.81,258.66a4.22,4.22,0,1,1-4.36-4.08A4.22,4.22,0,0,1,446.81,258.66Z" transform="translate(32.5 35.5)" style="fill:url(#ak)"/><path d="M444.57,258.74a2,2,0,1,1-2.07-1.93h.07A2,2,0,0,1,444.57,258.74Z" transform="translate(32.5 35.5)" style="fill:#fff"/><path d="M409.41,320.61a3.8,3.8,0,1,1-3.93-3.67A3.8,3.8,0,0,1,409.41,320.61Z" transform="translate(32.5 35.5)" style="fill:url(#al)"/><path d="M407.4,320.68a1.79,1.79,0,1,1-1.85-1.73A1.79,1.79,0,0,1,407.4,320.68Z" transform="translate(32.5 35.5)" style="fill:#fff"/><path d="M118,305.72l-8.84,22.39L197.71,350l10-23.56c1.69-4-2.25-8.44-8.75-9.85l-68.14-15.26C125.18,300,119.47,302,118,305.72Z" transform="translate(32.5 35.5)" style="fill:url(#am)"/><path d="M108.58,328l-51,38.82c-4,3.26-4.46,9.51,4,12.13l71.9,20.88c6.73,2,15.18.54,18.75-3.14l45.53-46.87.55-3.77Z" transform="translate(32.5 35.5)" style="fill:url(#an)"/><path d="M62.05,375.11l71.91,21c6.74,2,15.18.54,18.75-3.13l9.24-9.51,36.3-37.36-87.92-21.58-1.23-.3L58.38,366.08C54.42,369.31,56,373.39,62.05,375.11Z" transform="translate(32.5 35.5)" style="fill:url(#ao)"/><path d="M62.05,375.11l71.91,21c6.74,2,15.18.54,18.75-3.13l9.24-9.51c-12.62-14.7-42.43-48.53-51.62-59l-1.23-.3L58.38,366.07C54.42,369.31,56,373.39,62.05,375.11Z" transform="translate(32.5 35.5)" style="opacity:0.5;isolation:isolate;fill:url(#ap)"/><path d="M166.66,350.44l6.16,1.57c2.52.64,5.59.15,6.82-1.09l2.08-2.08c1.22-1.22.17-2.71-2.33-3.33l-6.1-1.51c-2.48-.62-5.49-.15-6.73,1.05l-2.12,2C163.17,348.31,164.16,349.81,166.66,350.44Z" transform="translate(32.5 35.5)" style="fill:#e9eeee"/><path d="M148.21,345.76l6,1.53c2.47.62,5.5.14,6.77-1.07l2.13-2c1.26-1.19.28-2.65-2.16-3.25l-6-1.48c-2.42-.6-5.4-.14-6.68,1l-2.17,2C144.86,343.68,145.77,345.11,148.21,345.76Z" transform="translate(32.5 35.5)" style="fill:#e9eeee"/><path d="M130.22,341.2l5.85,1.48c2.4.61,5.42.15,6.71-1l2.19-2c1.28-1.16.37-2.59-2-3.18l-5.81-1.44c-2.35-.58-5.31-.13-6.61,1L128.33,338C127,339.16,127.84,340.6,130.22,341.2Z" transform="translate(32.5 35.5)" style="fill:#e9eeee"/><path d="M112.66,336.75l5.71,1.45c2.35.59,5.34.13,6.66-1l2.23-1.94c1.31-1.15.47-2.54-1.85-3.11l-5.67-1.41c-2.3-.57-5.23-.13-6.56,1l-2.27,1.91C109.57,334.76,110.34,336.16,112.66,336.75Z" transform="translate(32.5 35.5)" style="fill:url(#aq)"/><path d="M157.49,359.37l6.23,1.62c2.56.67,5.68.17,7-1.11l2.15-2.16c1.27-1.26.23-2.81-2.31-3.46l-6.17-1.58c-2.5-.64-5.57-.15-6.86,1.09l-2.2,2.11C154,357.11,155,358.7,157.49,359.37Z" transform="translate(32.5 35.5)" style="fill:#e9eeee"/><path d="M138.82,354.49l6.07,1.58c2.5.66,5.6.16,6.91-1.09l2.21-2.11c1.3-1.24.34-2.75-2.13-3.38l-6-1.54c-2.45-.62-5.49-.15-6.81,1.07l-2.27,2.09C135.46,352.32,136.36,353.84,138.82,354.49Z" transform="translate(32.5 35.5)" style="fill:#e9eeee"/><path d="M120.66,349.73l5.92,1.55c2.43.63,5.51.15,6.85-1.08l2.23-2.09c1.33-1.21.44-2.68-2-3.3l-5.87-1.5c-2.38-.61-5.4-.14-6.75,1l-2.3,2C117.39,347.61,118.22,349.11,120.66,349.73Z" transform="translate(32.5 35.5)" style="fill:#e9eeee"/><path d="M102.88,345.11l5.77,1.51c2.37.62,5.42.15,6.79-1.05l2.31-2c1.35-1.18.54-2.62-1.82-3.23l-5.72-1.46c-2.33-.59-5.32-.13-6.69,1l-2.35,2C99.78,343,100.53,344.48,102.88,345.11Z" transform="translate(32.5 35.5)" style="fill:url(#ar)"/><path d="M148,368.62l6.3,1.7c2.59.7,5.78.18,7.11-1.15l2.24-2.24c1.32-1.31.29-2.92-2.28-3.6l-6.25-1.64c-2.53-.67-5.66-.17-7,1.12L145.82,365C144.46,366.31,145.42,367.93,148,368.62Z" transform="translate(32.5 35.5)" style="fill:#e9eeee"/><path d="M129.09,363.53l6.14,1.66c2.52.68,5.68.17,7.05-1.13l2.29-2.19c1.35-1.28.4-2.85-2.1-3.51l-6.09-1.61c-2.47-.65-5.57-.16-6.95,1.1L127.1,360C125.71,361.28,126.59,362.86,129.09,363.53Z" transform="translate(32.5 35.5)" style="fill:#e9eeee"/><path d="M110.66,358.57l6,1.62c2.45.66,5.59.16,7-1.11l2.35-2.14c1.37-1.25.5-2.79-1.93-3.43L118.14,352c-2.41-.64-5.49-.15-6.89,1.08l-2.39,2.08C107.44,356.37,108.25,357.92,110.66,358.57Z" transform="translate(32.5 35.5)" style="fill:#e9eeee"/><path d="M92.74,353.74l5.83,1.57c2.4.65,5.51.16,6.93-1.08l2.39-2.09c1.41-1.23.61-2.73-1.77-3.35l-5.79-1.53c-2.35-.62-5.4-.14-6.82,1.06l-2.43,2.05C89.66,351.59,90.37,353.11,92.74,353.74Z" transform="translate(32.5 35.5)" style="fill:url(#as)"/><path d="M138.1,378.23l6.38,1.77c2.62.73,5.88.2,7.27-1.19l2.32-2.32c1.36-1.36.35-3-2.25-3.74L145.5,371c-2.57-.7-5.76-.18-7.15,1.16L136,374.47C134.57,375.82,135.51,377.51,138.1,378.23Z" transform="translate(32.5 35.5)" style="fill:#e9eeee"/><path d="M119,372.92l6.22,1.73c2.55.7,5.78.18,7.2-1.17l2.38-2.27c1.39-1.33.46-3-2.07-3.65l-6.16-1.68c-2.5-.67-5.66-.17-7.09,1.14L117,369.25C115.6,370.57,116.46,372.22,119,372.92Z" transform="translate(32.5 35.5)" style="fill:#e9eeee"/><path d="M100.37,367.74l6,1.69c2.49.69,5.69.17,7.14-1.15l2.43-2.21c1.42-1.3.57-2.9-1.89-3.57l-6-1.63c-2.43-.66-5.57-.16-7,1.12l-2.47,2.17C97.12,365.46,97.91,367.11,100.37,367.74Z" transform="translate(32.5 35.5)" style="fill:#e9eeee"/><path d="M70.31,371.71l8,2.3a6.64,6.64,0,0,0,5.56-.89l14.42-12.59c1.12-1,.52-2.18-1.33-2.68l-7.85-2.13a6.6,6.6,0,0,0-5.35.84L69.12,368.92C67.93,369.93,68.45,371.18,70.31,371.71Z" transform="translate(32.5 35.5)" style="fill:url(#at)"/><path d="M127.83,388.21l6.47,1.86c2.65.76,6,.21,7.42-1.23l2.42-2.42c1.41-1.42.42-3.16-2.21-3.9l-6.4-1.79c-2.6-.73-5.87-.19-7.31,1.2l-2.46,2.36C124.29,385.71,125.21,387.46,127.83,388.21Z" transform="translate(32.5 35.5)" style="fill:#e9eeee"/><path d="M108.49,382.66l6.29,1.81c2.58.74,5.88.2,7.36-1.21l2.52-2.35c1.45-1.39.54-3.09-2-3.8l-6.24-1.75c-2.53-.71-5.76-.19-7.24,1.17l-2.51,2.31C105.1,380.22,105.94,381.93,108.49,382.66Z" transform="translate(32.5 35.5)" style="fill:#e9eeee"/><path d="M89.66,377.26,95.78,379c2.52.72,5.79.19,7.29-1.18l2.53-2.3c1.48-1.35.65-3-1.85-3.71l-6.09-1.72c-2.46-.69-5.67-.18-7.17,1.15l-2.57,2.26C86.41,374.88,87.18,376.55,89.66,377.26Z" transform="translate(32.5 35.5)" style="fill:#e9eeee"/><path d="M166.8,349.49l6.15,1.57c2.53.64,5.59.15,6.83-1.09l2.08-2.07c1.22-1.22.17-2.72-2.34-3.34l-6.1-1.51c-2.47-.62-5.48-.15-6.73,1.05l-2.12,2C163.31,347.36,164.3,348.86,166.8,349.49Z" transform="translate(32.5 35.5)" style="fill:#fefffd"/><path d="M148.35,344.81l6,1.52c2.46.63,5.5.15,6.77-1.06l2.13-2c1.25-1.19.28-2.65-2.17-3.26l-6-1.47c-2.41-.6-5.39-.14-6.67,1l-2.17,2C145,342.73,145.91,344.19,148.35,344.81Z" transform="translate(32.5 35.5)" style="fill:#fefffd"/><path d="M130.35,340.24l5.85,1.49c2.41.61,5.42.14,6.72-1l2.18-2c1.28-1.17.38-2.59-2-3.18l-5.8-1.45c-2.36-.58-5.32-.13-6.62,1l-2.22,1.95C127.13,338.21,128,339.64,130.35,340.24Z" transform="translate(32.5 35.5)" style="fill:#fefffd"/><path d="M112.8,335.79l5.71,1.45c2.34.59,5.33.13,6.65-1l2.23-1.95c1.31-1.14.48-2.54-1.85-3.11l-5.67-1.41c-2.3-.57-5.23-.13-6.56,1l-2.26,1.91C109.66,333.8,110.48,335.2,112.8,335.79Z" transform="translate(32.5 35.5)" style="fill:url(#au)"/><path d="M157.66,358.42l6.23,1.62c2.56.67,5.69.17,7-1.11l2.16-2.16c1.27-1.26.23-2.81-2.31-3.46l-6.17-1.58c-2.51-.64-5.58-.15-6.87,1.09l-2.2,2.11C154.12,356.19,155.1,357.75,157.66,358.42Z" transform="translate(32.5 35.5)" style="fill:#fefffd"/><path d="M139,353.53l6.07,1.59c2.49.65,5.59.16,6.91-1.09l2.21-2.11c1.29-1.24.33-2.75-2.14-3.38L146,347c-2.44-.63-5.48-.15-6.81,1.06l-2.27,2.05C135.59,351.37,136.49,352.89,139,353.53Z" transform="translate(32.5 35.5)" style="fill:#fefffd"/><path d="M120.76,348.77l5.92,1.55c2.43.64,5.5.16,6.85-1.07l2.26-2.06c1.32-1.21.44-2.69-2-3.3l-5.87-1.51c-2.38-.61-5.39-.14-6.75,1.05l-2.29,2C117.53,346.66,118.35,348.11,120.76,348.77Z" transform="translate(32.5 35.5)" style="fill:#fefffd"/><path d="M103,344.11l5.77,1.51c2.37.62,5.42.15,6.79-1l2.31-2c1.36-1.19.54-2.63-1.81-3.23l-5.73-1.47c-2.32-.59-5.31-.13-6.69,1l-2.35,2C99.91,342.11,100.66,343.52,103,344.11Z" transform="translate(32.5 35.5)" style="fill:url(#av)"/><path d="M148.11,367.67l6.31,1.7c2.59.7,5.78.18,7.11-1.15l2.24-2.24c1.31-1.31.28-2.92-2.28-3.6l-6.25-1.64c-2.54-.67-5.67-.17-7,1.12L146,364.05C144.59,365.36,145.55,367,148.11,367.67Z" transform="translate(32.5 35.5)" style="fill:#fefffd"/><path d="M129.22,362.58l6.14,1.65c2.52.69,5.69.18,7-1.12l2.3-2.19c1.34-1.28.39-2.85-2.11-3.51l-6.09-1.61c-2.47-.65-5.57-.16-6.94,1.1l-2.34,2.15C125.84,360.32,126.73,361.91,129.22,362.58Z" transform="translate(32.5 35.5)" style="fill:#fefffd"/><path d="M110.81,357.62l6,1.61c2.46.66,5.59.17,7-1.11l2.34-2.13c1.38-1.26.51-2.79-1.93-3.43L118.28,351c-2.41-.63-5.48-.15-6.88,1.08l-2.39,2.1C107.58,355.42,108.38,357,110.81,357.62Z" transform="translate(32.5 35.5)" style="fill:#fefffd"/><path d="M92.87,352.78l5.84,1.57c2.39.65,5.5.16,6.93-1.08l2.39-2.09c1.4-1.23.6-2.73-1.77-3.35l-5.79-1.53c-2.35-.62-5.4-.14-6.83,1.06l-2.43,2.05C89.77,350.63,90.5,352.11,92.87,352.78Z" transform="translate(32.5 35.5)" style="fill:url(#aw)"/><path d="M138.23,377.28l6.43,1.83c2.63.72,5.89.19,7.27-1.19l2.32-2.33c1.37-1.36.36-3-2.24-3.74l-6.35-1.74c-2.56-.7-5.76-.18-7.15,1.16l-2.37,2.28C134.66,374.87,135.66,376.56,138.23,377.28Z" transform="translate(32.5 35.5)" style="fill:#fefffd"/><path d="M119.12,372l6.21,1.72c2.55.71,5.78.19,7.2-1.16l2.38-2.27c1.4-1.33.47-3-2.06-3.65l-6.19-1.68c-2.5-.68-5.67-.17-7.09,1.14l-2.43,2.22C115.73,369.62,116.59,371.26,119.12,372Z" transform="translate(32.5 35.5)" style="fill:#fefffd"/><path d="M100.5,366.79l6,1.68c2.49.69,5.69.18,7.14-1.14l2.43-2.22c1.43-1.3.57-2.89-1.89-3.56l-6-1.63c-2.44-.66-5.58-.17-7,1.11l-2.47,2.17C97.26,364.5,98,366.11,100.5,366.79Z" transform="translate(32.5 35.5)" style="fill:#fefffd"/><path d="M70.44,370.76l8,2.29a6.64,6.64,0,0,0,5.56-.89l14.42-12.59c1.12-1,.52-2.18-1.33-2.68l-7.85-2.13a6.6,6.6,0,0,0-5.35.84L69.25,368C68.06,369,68.58,370.22,70.44,370.76Z" transform="translate(32.5 35.5)" style="fill:url(#ax)"/><path d="M128,387.26l6.46,1.86c2.65.76,6,.21,7.43-1.23l2.41-2.42c1.42-1.41.42-3.16-2.21-3.89l-6.4-1.8c-2.6-.73-5.86-.19-7.31,1.2l-2.46,2.36C124.42,384.75,125.35,386.51,128,387.26Z" transform="translate(32.5 35.5)" style="fill:#fefffd"/><path d="M108.66,381.71l6.29,1.81c2.58.74,5.89.2,7.36-1.21l2.47-2.35c1.45-1.39.54-3.09-2-3.8l-6.23-1.75c-2.53-.71-5.77-.19-7.25,1.17l-2.51,2.31C105.23,379.27,106.07,381,108.66,381.71Z" transform="translate(32.5 35.5)" style="fill:#fefffd"/><path d="M89.79,376.31l6.12,1.76c2.52.72,5.79.19,7.29-1.18l2.53-2.3c1.48-1.36.65-3-1.84-3.71l-6.08-1.7c-2.46-.7-5.66-.18-7.17,1.14l-2.57,2.26C86.55,373.92,87.31,375.6,89.79,376.31Z" transform="translate(32.5 35.5)" style="fill:#fefffd"/><path d="M116.66,305.62l-7.52,18.63,89.12,21.86,8-20.22c1.69-4-2.26-8.45-8.75-9.86l-68-14.85C123.89,299.92,118.18,301.93,116.66,305.62Z" transform="translate(32.5 35.5)" style="fill:url(#ay)"/><path d="M128.94,304.66l65.39,15.08c3.79.88,6.06,3.7,5,6.29l-4.22,10.72c-1,2.58-4.91,3.9-8.67,3l-64.7-16.29c-3.28-.83-5.18-3.43-4.27-5.83l3.8-10C122.22,305.24,125.66,303.9,128.94,304.66Z" transform="translate(32.5 35.5)" style="fill:#07225f"/><path d="M123.45,322.29,130.6,324l15.61,3.77,8.4,2,28,6.76,3.12.75a11.58,11.58,0,0,0,1.31.23c3.06.33,5.92-.74,6.73-2.66l1.13-2.71,2.52-6c.93-2.2-1.21-4.64-4.77-5.43l-7.36-1.62-16.39-3.67-4.5-1-23-5.15-10.74-2.42-.87-.2c-3.11-.69-6.29.4-7.12,2.45l-1.46,3.59-1.83,4.54C118.56,319.3,120.37,321.55,123.45,322.29Z" transform="translate(32.5 35.5)" style="fill:url(#az)"/><path d="M141.36,309.26l13.3,20.56,28,6.76c-5.34-6.47-12-14.57-18.26-22.17Z" transform="translate(32.5 35.5)" style="fill:url(#ba)"/><path d="M168.9,315.42l18.15,22.14c3.06.33,5.92-.74,6.73-2.66l1.13-2.71-9.62-13.08Z" transform="translate(32.5 35.5)" style="fill:url(#bb)"/><path d="M121.21,312.71,130.6,324l15.61,3.77-15.55-20.92-.87-.2c-3.11-.69-6.29.4-7.12,2.45Z" transform="translate(32.5 35.5)" style="fill:url(#bc)"/></svg>